<?xml version="1.0" encoding="UTF-8" standalone="no"?>
<svg xmlns="http://www.w3.org/2000/svg" contentScriptType="application/ecmascript" contentStyleType="text/css"
     height="864px" preserveAspectRatio="none" style="width:892px;height:864px;" version="1.1" viewBox="0 0 892 864"
     width="892px" zoomAndPan="magnify"><defs><filter height="300%" id="f1kta3sh1s7f4v" width="300%" x="-1" y="-1"><feGaussianBlur result="blurOut" stdDeviation="2.0"/><feColorMatrix in="blurOut" result="blurOut2" type="matrix" values="0 0 0 0 0 0 0 0 0 0 0 0 0 0 0 0 0 0 .4 0"/><feOffset dx="4.0" dy="4.0" in="blurOut2" result="blurOut3"/><feBlend in="SourceGraphic" in2="blurOut3" mode="normal"/></filter></defs><g><!--MD5=[ae336da5efe52b168083e063e86251c2]
class Base--><rect codeLine="2" fill="#EEEEEE" filter="url(#f1kta3sh1s7f4v)" height="48" id="Base" style="stroke:#A80036;stroke-width:1.5;" width="59" x="299" y="7"/><ellipse cx="314" cy="23" fill="#B4A7E5" rx="11" ry="11" style="stroke:#A80036;stroke-width:1.0;"/><path d="M310.4277,19.2651 L310.4277,17.1069 L317.8071,17.1069 L317.8071,19.2651 L315.3418,19.2651 L315.3418,27.3418 L317.8071,27.3418 L317.8071,29.5 L310.4277,29.5 L310.4277,27.3418 L312.8931,27.3418 L312.8931,19.2651 Z " fill="#000000"/><text fill="#000000" font-family="sans-serif" font-size="12" font-style="italic" lengthAdjust="spacingAndGlyphs" textLength="27" x="328" y="27.5352">Base</text><line style="stroke:#A80036;stroke-width:1.5;" x1="300" x2="357" y1="39" y2="39"/><line style="stroke:#A80036;stroke-width:1.5;" x1="300" x2="357" y1="47" y2="47"/><!--MD5=[3670a9b67b8a752f6e42da25dea7e2da]
class Leaf--><rect codeLine="4" fill="#EEEEEE" filter="url(#f1kta3sh1s7f4v)" height="48" id="Leaf" style="stroke:#A80036;stroke-width:1.5;" width="56" x="252.5" y="115"/><ellipse cx="267.5" cy="131" fill="#B4A7E5" rx="11" ry="11" style="stroke:#A80036;stroke-width:1.0;"/><path d="M263.9277,127.2651 L263.9277,125.1069 L271.3071,125.1069 L271.3071,127.2651 L268.8418,127.2651 L268.8418,135.3418 L271.3071,135.3418 L271.3071,137.5 L263.9277,137.5 L263.9277,135.3418 L266.3931,135.3418 L266.3931,127.2651 Z " fill="#000000"/><text fill="#000000" font-family="sans-serif" font-size="12" font-style="italic" lengthAdjust="spacingAndGlyphs" textLength="24" x="281.5" y="135.5352">Leaf</text><line style="stroke:#A80036;stroke-width:1.5;" x1="253.5" x2="307.5" y1="147" y2="147"/><line style="stroke:#A80036;stroke-width:1.5;" x1="253.5" x2="307.5" y1="155" y2="155"/><!--MD5=[3fee75583bb7a64f68d843a3c9534ab3]
class Node--><rect codeLine="6" fill="#EEEEEE" filter="url(#f1kta3sh1s7f4v)" height="48" id="Node" style="stroke:#A80036;stroke-width:1.5;" width="63" x="344" y="115"/><ellipse cx="359" cy="131" fill="#B4A7E5" rx="11" ry="11" style="stroke:#A80036;stroke-width:1.0;"/><path d="M355.4277,127.2651 L355.4277,125.1069 L362.8071,125.1069 L362.8071,127.2651 L360.3418,127.2651 L360.3418,135.3418 L362.8071,135.3418 L362.8071,137.5 L355.4277,137.5 L355.4277,135.3418 L357.8931,135.3418 L357.8931,127.2651 Z " fill="#000000"/><text fill="#000000" font-family="sans-serif" font-size="12" font-style="italic" lengthAdjust="spacingAndGlyphs" textLength="31" x="373" y="135.5352">Node</text><line style="stroke:#A80036;stroke-width:1.5;" x1="345" x2="406" y1="147" y2="147"/><line style="stroke:#A80036;stroke-width:1.5;" x1="345" x2="406" y1="155" y2="155"/><!--MD5=[c10d8cd4c7eec05b7116bf1e77b16279]
class NodeWithId--><rect codeLine="8" fill="#EEEEEE" filter="url(#f1kta3sh1s7f4v)" height="48" id="NodeWithId" style="stroke:#A80036;stroke-width:1.5;" width="98" x="325.5" y="223"/><ellipse cx="340.5" cy="239" fill="#B4A7E5" rx="11" ry="11" style="stroke:#A80036;stroke-width:1.0;"/><path d="M336.9277,235.2651 L336.9277,233.1069 L344.3071,233.1069 L344.3071,235.2651 L341.8418,235.2651 L341.8418,243.3418 L344.3071,243.3418 L344.3071,245.5 L336.9277,245.5 L336.9277,243.3418 L339.3931,243.3418 L339.3931,235.2651 Z " fill="#000000"/><text fill="#000000" font-family="sans-serif" font-size="12" font-style="italic" lengthAdjust="spacingAndGlyphs" textLength="66" x="354.5" y="243.5352">NodeWithId</text><line style="stroke:#A80036;stroke-width:1.5;" x1="326.5" x2="422.5" y1="255" y2="255"/><line style="stroke:#A80036;stroke-width:1.5;" x1="326.5" x2="422.5" y1="263" y2="263"/><!--MD5=[4296a1ab0576a383a1a509d52c22ebf0]
class Type--><rect codeLine="10" fill="#FEFECE" filter="url(#f1kta3sh1s7f4v)" height="60.9551" id="Type" style="stroke:#A80036;stroke-width:1.5;" width="61" x="343" y="337.5"/><ellipse cx="358" cy="353.5" fill="#B4A7E5" rx="11" ry="11" style="stroke:#A80036;stroke-width:1.0;"/><path d="M354.4277,349.7651 L354.4277,347.6069 L361.8071,347.6069 L361.8071,349.7651 L359.3418,349.7651 L359.3418,357.8418 L361.8071,357.8418 L361.8071,360 L354.4277,360 L354.4277,357.8418 L356.8931,357.8418 L356.8931,349.7651 Z " fill="#000000"/><text fill="#000000" font-family="sans-serif" font-size="12" font-style="italic" lengthAdjust="spacingAndGlyphs" textLength="29" x="372" y="358.0352">Type</text><line style="stroke:#A80036;stroke-width:1.5;" x1="344" x2="403" y1="369.5" y2="369.5"/><text fill="#000000" font-family="sans-serif" font-size="11" lengthAdjust="spacingAndGlyphs" textLength="38" x="349" y="384.1348">getters</text><line style="stroke:#A80036;stroke-width:1.5;" x1="344" x2="403" y1="390.4551" y2="390.4551"/><!--MD5=[668ff7b541374d4c6903be1f3826bdd1]
class TypeNode--><rect codeLine="24" fill="#FEFECE" filter="url(#f1kta3sh1s7f4v)" height="60.9551" id="TypeNode" style="stroke:#A80036;stroke-width:1.5;" width="92" x="219.5" y="465"/><ellipse cx="234.5" cy="481" fill="#ADD1B2" rx="11" ry="11" style="stroke:#A80036;stroke-width:1.0;"/><path d="M236.9731,487.1431 Q236.3921,487.4419 235.7529,487.5913 Q235.1138,487.7407 234.4082,487.7407 Q231.9014,487.7407 230.5815,486.0889 Q229.2617,484.437 229.2617,481.3159 Q229.2617,478.1865 230.5815,476.5347 Q231.9014,474.8828 234.4082,474.8828 Q235.1138,474.8828 235.7612,475.0322 Q236.4087,475.1816 236.9731,475.4805 L236.9731,478.2031 Q236.3423,477.6221 235.7488,477.3523 Q235.1553,477.0825 234.5244,477.0825 Q233.1797,477.0825 232.4949,478.1492 Q231.8101,479.2158 231.8101,481.3159 Q231.8101,483.4077 232.4949,484.4744 Q233.1797,485.541 234.5244,485.541 Q235.1553,485.541 235.7488,485.2712 Q236.3423,485.0015 236.9731,484.4204 Z " fill="#000000"/><text fill="#000000" font-family="sans-serif" font-size="12" lengthAdjust="spacingAndGlyphs" textLength="60" x="248.5" y="485.5352">TypeNode</text><line style="stroke:#A80036;stroke-width:1.5;" x1="220.5" x2="310.5" y1="497" y2="497"/><text fill="#000000" font-family="sans-serif" font-size="11" lengthAdjust="spacingAndGlyphs" textLength="38" x="225.5" y="511.6348">getters</text><line style="stroke:#A80036;stroke-width:1.5;" x1="220.5" x2="310.5" y1="517.9551" y2="517.9551"/><!--MD5=[7e6b05cc4040617505df4b62b6e30319]
class AbstractBaseNode--><rect codeLine="20" fill="#EEEEEE" filter="url(#f1kta3sh1s7f4v)" height="48" id="AbstractBaseNode" style="stroke:#A80036;stroke-width:1.5;" width="138" x="134.5" y="802"/><ellipse cx="149.5" cy="818" fill="#A9DCDF" rx="11" ry="11" style="stroke:#A80036;stroke-width:1.0;"/><path d="M149.3633,813.3481 L148.2095,818.4199 L150.5254,818.4199 Z M147.8691,811.1069 L150.8657,811.1069 L154.2109,823.5 L151.7622,823.5 L150.9985,820.437 L147.7197,820.437 L146.9727,823.5 L144.5239,823.5 Z " fill="#000000"/><text fill="#000000" font-family="sans-serif" font-size="12" font-style="italic" lengthAdjust="spacingAndGlyphs" textLength="106" x="163.5" y="822.5352">AbstractBaseNode</text><line style="stroke:#A80036;stroke-width:1.5;" x1="135.5" x2="271.5" y1="834" y2="834"/><line style="stroke:#A80036;stroke-width:1.5;" x1="135.5" x2="271.5" y1="842" y2="842"/><!--MD5=[979af3a280013c5c1f4d2372a3f28c06]
class FlowNode--><rect codeLine="21" fill="#EEEEEE" filter="url(#f1kta3sh1s7f4v)" height="48" id="FlowNode" style="stroke:#A80036;stroke-width:1.5;" width="88" x="221.5" y="694"/><ellipse cx="236.5" cy="710" fill="#A9DCDF" rx="11" ry="11" style="stroke:#A80036;stroke-width:1.0;"/><path d="M236.3633,705.3481 L235.2095,710.4199 L237.5254,710.4199 Z M234.8691,703.1069 L237.8657,703.1069 L241.2109,715.5 L238.7622,715.5 L237.9985,712.437 L234.7197,712.437 L233.9727,715.5 L231.5239,715.5 Z " fill="#000000"/><text fill="#000000" font-family="sans-serif" font-size="12" font-style="italic" lengthAdjust="spacingAndGlyphs" textLength="56" x="250.5" y="714.5352">FlowNode</text><line style="stroke:#A80036;stroke-width:1.5;" x1="222.5" x2="308.5" y1="726" y2="726"/><line style="stroke:#A80036;stroke-width:1.5;" x1="222.5" x2="308.5" y1="734" y2="734"/><!--MD5=[66148af4ccdef8153c55d160aebad70b]
class LeafNode--><rect codeLine="22" fill="#EEEEEE" filter="url(#f1kta3sh1s7f4v)" height="48" id="LeafNode" style="stroke:#A80036;stroke-width:1.5;" width="87" x="99" y="694"/><ellipse cx="114" cy="710" fill="#A9DCDF" rx="11" ry="11" style="stroke:#A80036;stroke-width:1.0;"/><path d="M113.8633,705.3481 L112.7095,710.4199 L115.0254,710.4199 Z M112.3691,703.1069 L115.3657,703.1069 L118.7109,715.5 L116.2622,715.5 L115.4985,712.437 L112.2197,712.437 L111.4727,715.5 L109.0239,715.5 Z " fill="#000000"/><text fill="#000000" font-family="sans-serif" font-size="12" font-style="italic" lengthAdjust="spacingAndGlyphs" textLength="55" x="128" y="714.5352">LeafNode</text><line style="stroke:#A80036;stroke-width:1.5;" x1="100" x2="185" y1="726" y2="726"/><line style="stroke:#A80036;stroke-width:1.5;" x1="100" x2="185" y1="734" y2="734"/><!--MD5=[af3e6fd19390042ea5ac651ad4dbd16c]
class FlowNodeWithId--><rect codeLine="23" fill="#EEEEEE" filter="url(#f1kta3sh1s7f4v)" height="48" id="FlowNodeWithId" style="stroke:#A80036;stroke-width:1.5;" width="123" x="204" y="586"/><ellipse cx="219" cy="602" fill="#A9DCDF" rx="11" ry="11" style="stroke:#A80036;stroke-width:1.0;"/><path d="M218.8633,597.3481 L217.7095,602.4199 L220.0254,602.4199 Z M217.3691,595.1069 L220.3657,595.1069 L223.7109,607.5 L221.2622,607.5 L220.4985,604.437 L217.2197,604.437 L216.4727,607.5 L214.0239,607.5 Z " fill="#000000"/><text fill="#000000" font-family="sans-serif" font-size="12" font-style="italic" lengthAdjust="spacingAndGlyphs" textLength="91" x="233" y="606.5352">FlowNodeWithId</text><line style="stroke:#A80036;stroke-width:1.5;" x1="205" x2="326" y1="618" y2="618"/><line style="stroke:#A80036;stroke-width:1.5;" x1="205" x2="326" y1="626" y2="626"/><!--MD5=[5012034014c1ff8a3f3643dc415972cf]
class AbstractBuilder--><rect codeLine="35" fill="#EEEEEE" filter="url(#f1kta3sh1s7f4v)" height="48" id="AbstractBuilder" style="stroke:#A80036;stroke-width:1.5;" width="120" x="673.5" y="7"/><ellipse cx="688.5" cy="23" fill="#A9DCDF" rx="11" ry="11" style="stroke:#A80036;stroke-width:1.0;"/><path d="M688.3633,18.3481 L687.2095,23.4199 L689.5254,23.4199 Z M686.8691,16.1069 L689.8657,16.1069 L693.2109,28.5 L690.7622,28.5 L689.9985,25.437 L686.7197,25.437 L685.9727,28.5 L683.5239,28.5 Z " fill="#000000"/><text fill="#000000" font-family="sans-serif" font-size="12" font-style="italic" lengthAdjust="spacingAndGlyphs" textLength="88" x="702.5" y="27.5352">AbstractBuilder</text><line style="stroke:#A80036;stroke-width:1.5;" x1="674.5" x2="792.5" y1="39" y2="39"/><line style="stroke:#A80036;stroke-width:1.5;" x1="674.5" x2="792.5" y1="47" y2="47"/><!--MD5=[c7e597831bc7402c5c99572e8e0a573b]
class NodeBuilder--><rect codeLine="36" fill="#EEEEEE" filter="url(#f1kta3sh1s7f4v)" height="48" id="NodeBuilder" style="stroke:#A80036;stroke-width:1.5;" width="103" x="607" y="115"/><ellipse cx="622" cy="131" fill="#A9DCDF" rx="11" ry="11" style="stroke:#A80036;stroke-width:1.0;"/><path d="M621.8633,126.3481 L620.7095,131.4199 L623.0254,131.4199 Z M620.3691,124.1069 L623.3657,124.1069 L626.7109,136.5 L624.2622,136.5 L623.4985,133.437 L620.2197,133.437 L619.4727,136.5 L617.0239,136.5 Z " fill="#000000"/><text fill="#000000" font-family="sans-serif" font-size="12" font-style="italic" lengthAdjust="spacingAndGlyphs" textLength="71" x="636" y="135.5352">NodeBuilder</text><line style="stroke:#A80036;stroke-width:1.5;" x1="608" x2="709" y1="147" y2="147"/><line style="stroke:#A80036;stroke-width:1.5;" x1="608" x2="709" y1="155" y2="155"/><!--MD5=[618f212f2607b68075603f25ed5aaf67]
class LeafNodeBuilder--><rect codeLine="37" fill="#EEEEEE" filter="url(#f1kta3sh1s7f4v)" height="48" id="LeafNodeBuilder" style="stroke:#A80036;stroke-width:1.5;" width="127" x="745" y="115"/><ellipse cx="760" cy="131" fill="#A9DCDF" rx="11" ry="11" style="stroke:#A80036;stroke-width:1.0;"/><path d="M759.8633,126.3481 L758.7095,131.4199 L761.0254,131.4199 Z M758.3691,124.1069 L761.3657,124.1069 L764.7109,136.5 L762.2622,136.5 L761.4985,133.437 L758.2197,133.437 L757.4727,136.5 L755.0239,136.5 Z " fill="#000000"/><text fill="#000000" font-family="sans-serif" font-size="12" font-style="italic" lengthAdjust="spacingAndGlyphs" textLength="95" x="774" y="135.5352">LeafNodeBuilder</text><line style="stroke:#A80036;stroke-width:1.5;" x1="746" x2="871" y1="147" y2="147"/><line style="stroke:#A80036;stroke-width:1.5;" x1="746" x2="871" y1="155" y2="155"/><!--MD5=[296de3889a05118a3f3c8dc893cff4b7]
class NodeWithIdBuilder--><rect codeLine="38" fill="#EEEEEE" filter="url(#f1kta3sh1s7f4v)" height="48" id="NodeWithIdBuilder" style="stroke:#A80036;stroke-width:1.5;" width="138" x="589.5" y="223"/><ellipse cx="604.5" cy="239" fill="#A9DCDF" rx="11" ry="11" style="stroke:#A80036;stroke-width:1.0;"/><path d="M604.3633,234.3481 L603.2095,239.4199 L605.5254,239.4199 Z M602.8691,232.1069 L605.8657,232.1069 L609.2109,244.5 L606.7622,244.5 L605.9985,241.437 L602.7197,241.437 L601.9727,244.5 L599.5239,244.5 Z " fill="#000000"/><text fill="#000000" font-family="sans-serif" font-size="12" font-style="italic" lengthAdjust="spacingAndGlyphs" textLength="106" x="618.5" y="243.5352">NodeWithIdBuilder</text><line style="stroke:#A80036;stroke-width:1.5;" x1="590.5" x2="726.5" y1="255" y2="255"/><line style="stroke:#A80036;stroke-width:1.5;" x1="590.5" x2="726.5" y1="263" y2="263"/><!--MD5=[4b2c5d02a972ece1eedaae441f62647c]
class TypeBuilder--><rect codeLine="39" fill="#FEFECE" filter="url(#f1kta3sh1s7f4v)" height="73.9102" id="TypeBuilder" style="stroke:#A80036;stroke-width:1.5;" width="439" x="439" y="331"/><ellipse cx="454" cy="347" fill="#ADD1B2" rx="11" ry="11" style="stroke:#A80036;stroke-width:1.0;"/><path d="M456.4731,353.1431 Q455.8921,353.4419 455.2529,353.5913 Q454.6138,353.7407 453.9082,353.7407 Q451.4014,353.7407 450.0815,352.0889 Q448.7617,350.437 448.7617,347.3159 Q448.7617,344.1865 450.0815,342.5347 Q451.4014,340.8828 453.9082,340.8828 Q454.6138,340.8828 455.2612,341.0322 Q455.9087,341.1816 456.4731,341.4805 L456.4731,344.2031 Q455.8423,343.6221 455.2488,343.3523 Q454.6553,343.0825 454.0244,343.0825 Q452.6797,343.0825 451.9949,344.1492 Q451.3101,345.2158 451.3101,347.3159 Q451.3101,349.4077 451.9949,350.4744 Q452.6797,351.541 454.0244,351.541 Q454.6553,351.541 455.2488,351.2712 Q455.8423,351.0015 456.4731,350.4204 Z " fill="#000000"/><text fill="#000000" font-family="sans-serif" font-size="12" lengthAdjust="spacingAndGlyphs" textLength="69" x="468" y="351.5352">TypeBuilder</text><rect fill="#FFFFFF" height="16.1328" style="stroke:#000000;stroke-width:1.0;stroke-dasharray:2.0,2.0;" width="336" x="545" y="328"/><text fill="#000000" font-family="sans-serif" font-size="12" font-style="italic" lengthAdjust="spacingAndGlyphs" textLength="326" x="550" y="340.6016">@JsonDeserialize(using = NodeBuilderDeserializer.class)</text><line style="stroke:#A80036;stroke-width:1.5;" x1="440" x2="877" y1="363" y2="363"/><text fill="#000000" font-family="sans-serif" font-size="11" lengthAdjust="spacingAndGlyphs" textLength="37" x="445" y="377.6348">setters</text><line style="stroke:#A80036;stroke-width:1.5;" x1="440" x2="877" y1="383.9551" y2="383.9551"/><text fill="#000000" font-family="sans-serif" font-size="11" lengthAdjust="spacingAndGlyphs" textLength="64" x="445" y="398.5898">Type build()</text><!--MD5=[01b95d182fe8d23fc8b232b64dd5b18e]
class AbstractHandler--><rect codeLine="51" fill="#EEEEEE" filter="url(#f1kta3sh1s7f4v)" height="48" id="AbstractHandler" style="stroke:#A80036;stroke-width:1.5;" width="126" x="91.5" y="115"/><ellipse cx="106.5" cy="131" fill="#A9DCDF" rx="11" ry="11" style="stroke:#A80036;stroke-width:1.0;"/><path d="M106.3633,126.3481 L105.2095,131.4199 L107.5254,131.4199 Z M104.8691,124.1069 L107.8657,124.1069 L111.2109,136.5 L108.7622,136.5 L107.9985,133.437 L104.7197,133.437 L103.9727,136.5 L101.5239,136.5 Z " fill="#000000"/><text fill="#000000" font-family="sans-serif" font-size="12" font-style="italic" lengthAdjust="spacingAndGlyphs" textLength="94" x="120.5" y="135.5352">AbstractHandler</text><line style="stroke:#A80036;stroke-width:1.5;" x1="92.5" x2="216.5" y1="147" y2="147"/><line style="stroke:#A80036;stroke-width:1.5;" x1="92.5" x2="216.5" y1="155" y2="155"/><!--MD5=[f2f72a8a22143fdabb500f8432b91e61]
class AbstractNodeHandler--><rect codeLine="52" fill="#EEEEEE" filter="url(#f1kta3sh1s7f4v)" height="48" id="AbstractNodeHandler" style="stroke:#A80036;stroke-width:1.5;" width="157" x="78" y="223"/><ellipse cx="93" cy="239" fill="#A9DCDF" rx="11" ry="11" style="stroke:#A80036;stroke-width:1.0;"/><path d="M92.8633,234.3481 L91.7095,239.4199 L94.0254,239.4199 Z M91.3691,232.1069 L94.3657,232.1069 L97.7109,244.5 L95.2622,244.5 L94.4985,241.437 L91.2197,241.437 L90.4727,244.5 L88.0239,244.5 Z " fill="#000000"/><text fill="#000000" font-family="sans-serif" font-size="12" font-style="italic" lengthAdjust="spacingAndGlyphs" textLength="125" x="107" y="243.5352">AbstractNodeHandler</text><line style="stroke:#A80036;stroke-width:1.5;" x1="79" x2="234" y1="255" y2="255"/><line style="stroke:#A80036;stroke-width:1.5;" x1="79" x2="234" y1="263" y2="263"/><!--MD5=[ac17598657dd8818c4c051f0134ed66c]
class TypeHandler--><rect codeLine="54" fill="#FEFECE" filter="url(#f1kta3sh1s7f4v)" height="60.9551" id="TypeHandler" style="stroke:#A80036;stroke-width:1.5;" width="301" x="7" y="337.5"/><ellipse cx="99.25" cy="353.5" fill="#ADD1B2" rx="11" ry="11" style="stroke:#A80036;stroke-width:1.0;"/><path d="M101.7231,359.6431 Q101.1421,359.9419 100.5029,360.0913 Q99.8638,360.2407 99.1582,360.2407 Q96.6514,360.2407 95.3315,358.5889 Q94.0117,356.937 94.0117,353.8159 Q94.0117,350.6865 95.3315,349.0347 Q96.6514,347.3828 99.1582,347.3828 Q99.8638,347.3828 100.5112,347.5322 Q101.1587,347.6816 101.7231,347.9805 L101.7231,350.7031 Q101.0923,350.1221 100.4988,349.8523 Q99.9053,349.5825 99.2744,349.5825 Q97.9297,349.5825 97.2449,350.6492 Q96.5601,351.7158 96.5601,353.8159 Q96.5601,355.9077 97.2449,356.9744 Q97.9297,358.041 99.2744,358.041 Q99.9053,358.041 100.4988,357.7712 Q101.0923,357.5015 101.7231,356.9204 Z " fill="#000000"/><text fill="#000000" font-family="sans-serif" font-size="12" lengthAdjust="spacingAndGlyphs" textLength="75" x="119.75" y="358.0352">TypeHandler</text><rect fill="#FFFFFF" height="16.1328" style="stroke:#000000;stroke-width:1.0;stroke-dasharray:2.0,2.0;" width="31" x="280" y="334.5"/><text fill="#000000" font-family="sans-serif" font-size="12" font-style="italic" lengthAdjust="spacingAndGlyphs" textLength="29" x="281" y="347.1016">Type</text><line style="stroke:#A80036;stroke-width:1.5;" x1="8" x2="307" y1="369.5" y2="369.5"/><line style="stroke:#A80036;stroke-width:1.5;" x1="8" x2="307" y1="377.5" y2="377.5"/><text fill="#000000" font-family="sans-serif" font-size="11" lengthAdjust="spacingAndGlyphs" textLength="289" x="13" y="392.1348">ExecutionContext execute(ExecutionContext context)</text><!--MD5=[e0bbb54261ad1c49170404994e53b829]
reverse link Base to Leaf--><path codeLine="14" d="M309.67,73.57 C303.35,87.54 296.52,102.62 291.06,114.68 " fill="none" id="Base-backto-Leaf" style="stroke:#A80036;stroke-width:1.0;"/><polygon fill="none" points="303.46,70.33,318.08,55,316.21,76.11,303.46,70.33" style="stroke:#A80036;stroke-width:1.0;"/><!--MD5=[58129114eaea77d54b3442254f462ca4]
reverse link Base to Node--><path codeLine="15" d="M346.93,73.57 C353.13,87.54 359.81,102.62 365.16,114.68 " fill="none" id="Base-backto-Node" style="stroke:#A80036;stroke-width:1.0;"/><polygon fill="none" points="340.41,76.12,338.7,55,353.2,70.45,340.41,76.12" style="stroke:#A80036;stroke-width:1.0;"/><!--MD5=[25867d879ddbd565169a0e8efb762d9a]
reverse link Node to NodeWithId--><path codeLine="16" d="M375.09,183.02 C374.97,196.58 374.83,211.04 374.72,222.68 " fill="none" id="Node-backto-NodeWithId" style="stroke:#A80036;stroke-width:1.0;"/><polygon fill="none" points="368.09,182.93,375.28,163,382.09,183.07,368.09,182.93" style="stroke:#A80036;stroke-width:1.0;"/><!--MD5=[41d864c919af604c617c514cbfc2bbaa]
reverse link NodeWithId to Type--><path codeLine="17" d="M374.14,291.4 C374.01,306.72 373.86,323.59 373.75,337.49 " fill="none" id="NodeWithId-backto-Type" style="stroke:#A80036;stroke-width:1.0;"/><polygon fill="none" points="367.14,291.17,374.3,271.23,381.14,291.29,367.14,291.17" style="stroke:#A80036;stroke-width:1.0;"/><!--MD5=[05ab5a9501322f25133ae796aab6c7b9]
reverse link Type to TypeNode--><path codeLine="18" d="M334.83,413.94 C320.23,430.91 304,449.77 290.91,464.97 " fill="none" id="Type-backto-TypeNode" style="stroke:#A80036;stroke-width:1.0;"/><polygon fill="none" points="329.55,409.34,347.91,398.74,340.17,418.47,329.55,409.34" style="stroke:#A80036;stroke-width:1.0;"/><!--MD5=[ff10641b31662aff62f8c646e7cb6f50]
link FlowNode to AbstractBaseNode--><path codeLine="28" d="M252.05,742 C244.87,754.28 235.81,769.76 227.47,784.01 " fill="none" id="FlowNode-to-AbstractBaseNode" style="stroke:#A80036;stroke-width:1.0;"/><polygon fill="none" points="233.28,787.95,217.14,801.68,221.2,780.88,233.28,787.95" style="stroke:#A80036;stroke-width:1.0;"/><!--MD5=[a25f2356b65516f11dafef15662e223b]
link LeafNode to AbstractBaseNode--><path codeLine="29" d="M155.74,742 C162.8,754.28 171.71,769.76 179.91,784.01 " fill="none" id="LeafNode-to-AbstractBaseNode" style="stroke:#A80036;stroke-width:1.0;"/><polygon fill="none" points="186.17,780.85,190.08,801.68,174.04,787.84,186.17,780.85" style="stroke:#A80036;stroke-width:1.0;"/><!--MD5=[75dd6d30bf80a5cdb79dea567d378ffb]
link FlowNodeWithId to FlowNode--><path codeLine="30" d="M265.5,634 C265.5,645.59 265.5,660.03 265.5,673.6 " fill="none" id="FlowNodeWithId-to-FlowNode" style="stroke:#A80036;stroke-width:1.0;"/><polygon fill="none" points="272.5,673.68,265.5,693.68,258.5,673.68,272.5,673.68" style="stroke:#A80036;stroke-width:1.0;"/><!--MD5=[ce06f88c302966aa73ccefaef2f715ee]
link TypeNode to FlowNodeWithId--><path codeLine="31" d="M265.5,526.06 C265.5,538.13 265.5,552.34 265.5,565.55 " fill="none" id="TypeNode-to-FlowNodeWithId" style="stroke:#A80036;stroke-width:1.0;"/><polygon fill="none" points="272.5,565.67,265.5,585.67,258.5,565.67,272.5,565.67" style="stroke:#A80036;stroke-width:1.0;"/><!--MD5=[f0390aa64a544573393ef7803c6850dc]
link Type to TypeBuilder--><path codeLine="44" d="M404.12,368 C411.36,368 418.61,368 425.85,368 " fill="none" id="Type-to-TypeBuilder" style="stroke:#A80036;stroke-width:1.0;"/><polygon fill="#A80036" points="438.89,368,432.89,364,426.89,368,432.89,372,438.89,368" style="stroke:#A80036;stroke-width:1.0;"/><!--MD5=[cd8b1538a2238c992afb6a7520054513]
reverse link AbstractBuilder to LeafNodeBuilder--><path codeLine="45" d="M761.56,71.66 C771.81,86.15 783.08,102.07 792,114.68 " fill="none" id="AbstractBuilder-backto-LeafNodeBuilder" style="stroke:#A80036;stroke-width:1.0;"/><polygon fill="none" points="755.61,75.37,749.77,55,767.04,67.28,755.61,75.37" style="stroke:#A80036;stroke-width:1.0;"/><!--MD5=[3b0b0e1d0ad3b3fd5b604037712c2499]
reverse link AbstractBuilder to NodeBuilder--><path codeLine="46" d="M705.44,71.66 C695.19,86.15 683.92,102.07 675,114.68 " fill="none" id="AbstractBuilder-backto-NodeBuilder" style="stroke:#A80036;stroke-width:1.0;"/><polygon fill="none" points="699.96,67.28,717.23,55,711.39,75.37,699.96,67.28" style="stroke:#A80036;stroke-width:1.0;"/><!--MD5=[207ec1e70bce98faa627fb2c4a77cf3e]
reverse link NodeBuilder to NodeWithIdBuilder--><path codeLine="47" d="M658.5,183.02 C658.5,196.58 658.5,211.04 658.5,222.68 " fill="none" id="NodeBuilder-backto-NodeWithIdBuilder" style="stroke:#A80036;stroke-width:1.0;"/><polygon fill="none" points="651.5,183,658.5,163,665.5,183,651.5,183" style="stroke:#A80036;stroke-width:1.0;"/><!--MD5=[0b792f6c5144b9680e9604515713be7a]
reverse link NodeWithIdBuilder to TypeBuilder--><path codeLine="48" d="M658.5,291.43 C658.5,304.33 658.5,318.32 658.5,330.71 " fill="none" id="NodeWithIdBuilder-backto-TypeBuilder" style="stroke:#A80036;stroke-width:1.0;"/><polygon fill="none" points="651.5,291.23,658.5,271.23,665.5,291.23,651.5,291.23" style="stroke:#A80036;stroke-width:1.0;"/><!--MD5=[2551c99dc05230a95e7a969f69833701]
reverse link AbstractHandler to AbstractNodeHandler--><path d="M155.31,183.02 C155.57,196.58 155.84,211.04 156.06,222.68 " fill="none" id="AbstractHandler-backto-AbstractNodeHandler" style="stroke:#A80036;stroke-width:1.0;"/><polygon fill="none" points="148.31,183.13,154.93,163,162.31,182.86,148.31,183.13" style="stroke:#A80036;stroke-width:1.0;"/><!--MD5=[7e3d031ec23be4835a1c260cff4620a1]
reverse link AbstractNodeHandler to TypeHandler--><path d="M156.86,291.4 C156.99,306.72 157.14,323.59 157.25,337.49 " fill="none" id="AbstractNodeHandler-backto-TypeHandler" style="stroke:#A80036;stroke-width:1.0;"/><polygon fill="none" points="149.86,291.29,156.7,271.23,163.86,291.17,149.86,291.29" style="stroke:#A80036;stroke-width:1.0;"/><!--MD5=[80920ea2bf6d30be05ba22700bcf9e2d]
reverse link TypeHandler to Type--><path codeLine="58" d="M321.14,368 C328.37,368 335.61,368 342.85,368 " fill="none" id="TypeHandler-backto-Type" style="stroke:#A80036;stroke-width:1.0;"/><polygon fill="#A80036" points="308.11,368,314.11,372,320.11,368,314.11,364,308.11,368" style="stroke:#A80036;stroke-width:1.0;"/><!--MD5=[fe15e9dc6810350ca58219f01366bccf]
reverse link TypeHandler to TypeNode--><path codeLine="59" d="M196.17,413.94 C210.77,430.91 227,449.77 240.09,464.97 " fill="none" id="TypeHandler-backto-TypeNode" style="stroke:#A80036;stroke-width:1.0;stroke-dasharray:7.0,7.0;"/><polygon fill="none" points="190.83,418.47,183.09,398.74,201.45,409.34,190.83,418.47" style="stroke:#A80036;stroke-width:1.0;"/><!--MD5=[22e9960c7008172eeb3341055f857228]
@startuml

interface Base #EEE {
}
interface Leaf #EEE {
}
interface Node #EEE {
}
interface NodeWithId #EEE {
}
interface Type {
    getters
}

Base <|-down- Leaf
Base <|-down- Node
Node <|-down- NodeWithId
NodeWithId <|-down- Type
Type <|- - TypeNode

abstract class AbstractBaseNode #EEE
abstract class FlowNode #EEE
abstract class LeafNode #EEE
abstract class FlowNodeWithId #EEE
class TypeNode {
    getters
}

AbstractBaseNode <|-up- FlowNode
AbstractBaseNode <|-up- LeafNode
FlowNode <|-up- FlowNodeWithId
FlowNodeWithId <|-up- TypeNode



abstract class AbstractBuilder #EEE
abstract class NodeBuilder #EEE
abstract class LeafNodeBuilder #EEE
abstract class NodeWithIdBuilder #EEE
class TypeBuilder < @JsonDeserialize(using = NodeBuilderDeserializer.class) > {
    setters
    Type build()
}

TypeBuilder *-left- Type
AbstractBuilder <|- - LeafNodeBuilder
AbstractBuilder <|- - NodeBuilder
NodeBuilder <|- - NodeWithIdBuilder
NodeWithIdBuilder <|-down- TypeBuilder


abstract class AbstractHandler #EEE
abstract class AbstractNodeHandler #EEE extends AbstractHandler

class TypeHandler<Type> extends AbstractNodeHandler {
    ExecutionContext execute(ExecutionContext context)
}

TypeHandler *- Type
TypeHandler <|.. TypeNode

@enduml

PlantUML version 1.2020.26(Mon Dec 21 18:45:07 CET 2020)
(GPL source distribution)
Java Runtime: OpenJDK Runtime Environment
JVM: OpenJDK 64-Bit Server VM
Default Encoding: UTF-8
Language: en
Country: NO
--></g></svg>