<?xml version="1.0" encoding="UTF-8" standalone="no"?>
<svg xmlns="http://www.w3.org/2000/svg" contentScriptType="application/ecmascript" contentStyleType="text/css"
     height="985px" preserveAspectRatio="none" style="width:893px;height:985px;" version="1.1" viewBox="0 0 893 985"
     width="893px" zoomAndPan="magnify"><defs><filter height="300%" id="fe2wxw5js5myh" width="300%" x="-1" y="-1"><feGaussianBlur result="blurOut" stdDeviation="2.0"/><feColorMatrix in="blurOut" result="blurOut2" type="matrix" values="0 0 0 0 0 0 0 0 0 0 0 0 0 0 0 0 0 0 .4 0"/><feOffset dx="4.0" dy="4.0" in="blurOut2" result="blurOut3"/><feBlend in="SourceGraphic" in2="blurOut3" mode="normal"/></filter></defs><g><!--MD5=[ae336da5efe52b168083e063e86251c2]
class Base--><rect codeLine="2" fill="#EEEEEE" filter="url(#fe2wxw5js5myh)" height="48" id="Base" style="stroke:#A80036;stroke-width:1.5;" width="59" x="296" y="223"/><ellipse cx="311" cy="239" fill="#B4A7E5" rx="11" ry="11" style="stroke:#A80036;stroke-width:1.0;"/><path d="M307.4277,235.2651 L307.4277,233.1069 L314.8071,233.1069 L314.8071,235.2651 L312.3418,235.2651 L312.3418,243.3418 L314.8071,243.3418 L314.8071,245.5 L307.4277,245.5 L307.4277,243.3418 L309.8931,243.3418 L309.8931,235.2651 Z " fill="#000000"/><text fill="#000000" font-family="sans-serif" font-size="12" font-style="italic" lengthAdjust="spacingAndGlyphs" textLength="27" x="325" y="243.5352">Base</text><line style="stroke:#A80036;stroke-width:1.5;" x1="297" x2="354" y1="255" y2="255"/><line style="stroke:#A80036;stroke-width:1.5;" x1="297" x2="354" y1="263" y2="263"/><!--MD5=[3670a9b67b8a752f6e42da25dea7e2da]
class Leaf--><rect codeLine="4" fill="#EEEEEE" filter="url(#fe2wxw5js5myh)" height="48" id="Leaf" style="stroke:#A80036;stroke-width:1.5;" width="56" x="250.5" y="344"/><ellipse cx="265.5" cy="360" fill="#B4A7E5" rx="11" ry="11" style="stroke:#A80036;stroke-width:1.0;"/><path d="M261.9277,356.2651 L261.9277,354.1069 L269.3071,354.1069 L269.3071,356.2651 L266.8418,356.2651 L266.8418,364.3418 L269.3071,364.3418 L269.3071,366.5 L261.9277,366.5 L261.9277,364.3418 L264.3931,364.3418 L264.3931,356.2651 Z " fill="#000000"/><text fill="#000000" font-family="sans-serif" font-size="12" font-style="italic" lengthAdjust="spacingAndGlyphs" textLength="24" x="279.5" y="364.5352">Leaf</text><line style="stroke:#A80036;stroke-width:1.5;" x1="251.5" x2="305.5" y1="376" y2="376"/><line style="stroke:#A80036;stroke-width:1.5;" x1="251.5" x2="305.5" y1="384" y2="384"/><!--MD5=[3fee75583bb7a64f68d843a3c9534ab3]
class Node--><rect codeLine="6" fill="#EEEEEE" filter="url(#fe2wxw5js5myh)" height="48" id="Node" style="stroke:#A80036;stroke-width:1.5;" width="63" x="342" y="344"/><ellipse cx="357" cy="360" fill="#B4A7E5" rx="11" ry="11" style="stroke:#A80036;stroke-width:1.0;"/><path d="M353.4277,356.2651 L353.4277,354.1069 L360.8071,354.1069 L360.8071,356.2651 L358.3418,356.2651 L358.3418,364.3418 L360.8071,364.3418 L360.8071,366.5 L353.4277,366.5 L353.4277,364.3418 L355.8931,364.3418 L355.8931,356.2651 Z " fill="#000000"/><text fill="#000000" font-family="sans-serif" font-size="12" font-style="italic" lengthAdjust="spacingAndGlyphs" textLength="31" x="371" y="364.5352">Node</text><line style="stroke:#A80036;stroke-width:1.5;" x1="343" x2="404" y1="376" y2="376"/><line style="stroke:#A80036;stroke-width:1.5;" x1="343" x2="404" y1="384" y2="384"/><!--MD5=[4296a1ab0576a383a1a509d52c22ebf0]
class Type--><rect codeLine="8" fill="#FEFECE" filter="url(#fe2wxw5js5myh)" height="60.9551" id="Type" style="stroke:#A80036;stroke-width:1.5;" width="61" x="343" y="465"/><ellipse cx="358" cy="481" fill="#B4A7E5" rx="11" ry="11" style="stroke:#A80036;stroke-width:1.0;"/><path d="M354.4277,477.2651 L354.4277,475.1069 L361.8071,475.1069 L361.8071,477.2651 L359.3418,477.2651 L359.3418,485.3418 L361.8071,485.3418 L361.8071,487.5 L354.4277,487.5 L354.4277,485.3418 L356.8931,485.3418 L356.8931,477.2651 Z " fill="#000000"/><text fill="#000000" font-family="sans-serif" font-size="12" font-style="italic" lengthAdjust="spacingAndGlyphs" textLength="29" x="372" y="485.5352">Type</text><line style="stroke:#A80036;stroke-width:1.5;" x1="344" x2="403" y1="497" y2="497"/><text fill="#000000" font-family="sans-serif" font-size="11" lengthAdjust="spacingAndGlyphs" textLength="38" x="349" y="511.6348">getters</text><line style="stroke:#A80036;stroke-width:1.5;" x1="344" x2="403" y1="517.9551" y2="517.9551"/><!--MD5=[668ff7b541374d4c6903be1f3826bdd1]
class TypeNode--><rect codeLine="21" fill="#FEFECE" filter="url(#fe2wxw5js5myh)" height="60.9551" id="TypeNode" style="stroke:#A80036;stroke-width:1.5;" width="92" x="219.5" y="586"/><ellipse cx="234.5" cy="602" fill="#ADD1B2" rx="11" ry="11" style="stroke:#A80036;stroke-width:1.0;"/><path d="M236.9731,608.1431 Q236.3921,608.4419 235.7529,608.5913 Q235.1138,608.7407 234.4082,608.7407 Q231.9014,608.7407 230.5815,607.0889 Q229.2617,605.437 229.2617,602.3159 Q229.2617,599.1865 230.5815,597.5347 Q231.9014,595.8828 234.4082,595.8828 Q235.1138,595.8828 235.7612,596.0322 Q236.4087,596.1816 236.9731,596.4805 L236.9731,599.2031 Q236.3423,598.6221 235.7488,598.3523 Q235.1553,598.0825 234.5244,598.0825 Q233.1797,598.0825 232.4949,599.1492 Q231.8101,600.2158 231.8101,602.3159 Q231.8101,604.4077 232.4949,605.4744 Q233.1797,606.541 234.5244,606.541 Q235.1553,606.541 235.7488,606.2712 Q236.3423,606.0015 236.9731,605.4204 Z " fill="#000000"/><text fill="#000000" font-family="sans-serif" font-size="12" lengthAdjust="spacingAndGlyphs" textLength="60" x="248.5" y="606.5352">TypeNode</text><line style="stroke:#A80036;stroke-width:1.5;" x1="220.5" x2="310.5" y1="618" y2="618"/><text fill="#000000" font-family="sans-serif" font-size="11" lengthAdjust="spacingAndGlyphs" textLength="38" x="225.5" y="632.6348">getters</text><line style="stroke:#A80036;stroke-width:1.5;" x1="220.5" x2="310.5" y1="638.9551" y2="638.9551"/><!--MD5=[7e6b05cc4040617505df4b62b6e30319]
class AbstractBaseNode--><rect codeLine="17" fill="#EEEEEE" filter="url(#fe2wxw5js5myh)" height="48" id="AbstractBaseNode" style="stroke:#A80036;stroke-width:1.5;" width="138" x="134.5" y="923"/><ellipse cx="149.5" cy="939" fill="#A9DCDF" rx="11" ry="11" style="stroke:#A80036;stroke-width:1.0;"/><path d="M149.3633,934.3481 L148.2095,939.4199 L150.5254,939.4199 Z M147.8691,932.1069 L150.8657,932.1069 L154.2109,944.5 L151.7622,944.5 L150.9985,941.437 L147.7197,941.437 L146.9727,944.5 L144.5239,944.5 Z " fill="#000000"/><text fill="#000000" font-family="sans-serif" font-size="12" font-style="italic" lengthAdjust="spacingAndGlyphs" textLength="106" x="163.5" y="943.5352">AbstractBaseNode</text><line style="stroke:#A80036;stroke-width:1.5;" x1="135.5" x2="271.5" y1="955" y2="955"/><line style="stroke:#A80036;stroke-width:1.5;" x1="135.5" x2="271.5" y1="963" y2="963"/><!--MD5=[979af3a280013c5c1f4d2372a3f28c06]
class FlowNode--><rect codeLine="18" fill="#EEEEEE" filter="url(#fe2wxw5js5myh)" height="48" id="FlowNode" style="stroke:#A80036;stroke-width:1.5;" width="88" x="221.5" y="815"/><ellipse cx="236.5" cy="831" fill="#A9DCDF" rx="11" ry="11" style="stroke:#A80036;stroke-width:1.0;"/><path d="M236.3633,826.3481 L235.2095,831.4199 L237.5254,831.4199 Z M234.8691,824.1069 L237.8657,824.1069 L241.2109,836.5 L238.7622,836.5 L237.9985,833.437 L234.7197,833.437 L233.9727,836.5 L231.5239,836.5 Z " fill="#000000"/><text fill="#000000" font-family="sans-serif" font-size="12" font-style="italic" lengthAdjust="spacingAndGlyphs" textLength="56" x="250.5" y="835.5352">FlowNode</text><line style="stroke:#A80036;stroke-width:1.5;" x1="222.5" x2="308.5" y1="847" y2="847"/><line style="stroke:#A80036;stroke-width:1.5;" x1="222.5" x2="308.5" y1="855" y2="855"/><!--MD5=[66148af4ccdef8153c55d160aebad70b]
class LeafNode--><rect codeLine="19" fill="#EEEEEE" filter="url(#fe2wxw5js5myh)" height="48" id="LeafNode" style="stroke:#A80036;stroke-width:1.5;" width="87" x="99" y="815"/><ellipse cx="114" cy="831" fill="#A9DCDF" rx="11" ry="11" style="stroke:#A80036;stroke-width:1.0;"/><path d="M113.8633,826.3481 L112.7095,831.4199 L115.0254,831.4199 Z M112.3691,824.1069 L115.3657,824.1069 L118.7109,836.5 L116.2622,836.5 L115.4985,833.437 L112.2197,833.437 L111.4727,836.5 L109.0239,836.5 Z " fill="#000000"/><text fill="#000000" font-family="sans-serif" font-size="12" font-style="italic" lengthAdjust="spacingAndGlyphs" textLength="55" x="128" y="835.5352">LeafNode</text><line style="stroke:#A80036;stroke-width:1.5;" x1="100" x2="185" y1="847" y2="847"/><line style="stroke:#A80036;stroke-width:1.5;" x1="100" x2="185" y1="855" y2="855"/><!--MD5=[af3e6fd19390042ea5ac651ad4dbd16c]
class FlowNodeWithId--><rect codeLine="20" fill="#EEEEEE" filter="url(#fe2wxw5js5myh)" height="48" id="FlowNodeWithId" style="stroke:#A80036;stroke-width:1.5;" width="123" x="204" y="707"/><ellipse cx="219" cy="723" fill="#A9DCDF" rx="11" ry="11" style="stroke:#A80036;stroke-width:1.0;"/><path d="M218.8633,718.3481 L217.7095,723.4199 L220.0254,723.4199 Z M217.3691,716.1069 L220.3657,716.1069 L223.7109,728.5 L221.2622,728.5 L220.4985,725.437 L217.2197,725.437 L216.4727,728.5 L214.0239,728.5 Z " fill="#000000"/><text fill="#000000" font-family="sans-serif" font-size="12" font-style="italic" lengthAdjust="spacingAndGlyphs" textLength="91" x="233" y="727.5352">FlowNodeWithId</text><line style="stroke:#A80036;stroke-width:1.5;" x1="205" x2="326" y1="739" y2="739"/><line style="stroke:#A80036;stroke-width:1.5;" x1="205" x2="326" y1="747" y2="747"/><!--MD5=[5012034014c1ff8a3f3643dc415972cf]
class AbstractBuilder--><rect codeLine="32" fill="#EEEEEE" filter="url(#fe2wxw5js5myh)" height="48" id="AbstractBuilder" style="stroke:#A80036;stroke-width:1.5;" width="120" x="674.5" y="7"/><ellipse cx="689.5" cy="23" fill="#A9DCDF" rx="11" ry="11" style="stroke:#A80036;stroke-width:1.0;"/><path d="M689.3633,18.3481 L688.2095,23.4199 L690.5254,23.4199 Z M687.8691,16.1069 L690.8657,16.1069 L694.2109,28.5 L691.7622,28.5 L690.9985,25.437 L687.7197,25.437 L686.9727,28.5 L684.5239,28.5 Z " fill="#000000"/><text fill="#000000" font-family="sans-serif" font-size="12" font-style="italic" lengthAdjust="spacingAndGlyphs" textLength="88" x="703.5" y="27.5352">AbstractBuilder</text><line style="stroke:#A80036;stroke-width:1.5;" x1="675.5" x2="793.5" y1="39" y2="39"/><line style="stroke:#A80036;stroke-width:1.5;" x1="675.5" x2="793.5" y1="47" y2="47"/><!--MD5=[c7e597831bc7402c5c99572e8e0a573b]
class NodeBuilder--><rect codeLine="33" fill="#EEEEEE" filter="url(#fe2wxw5js5myh)" height="48" id="NodeBuilder" style="stroke:#A80036;stroke-width:1.5;" width="103" x="608" y="115"/><ellipse cx="623" cy="131" fill="#A9DCDF" rx="11" ry="11" style="stroke:#A80036;stroke-width:1.0;"/><path d="M622.8633,126.3481 L621.7095,131.4199 L624.0254,131.4199 Z M621.3691,124.1069 L624.3657,124.1069 L627.7109,136.5 L625.2622,136.5 L624.4985,133.437 L621.2197,133.437 L620.4727,136.5 L618.0239,136.5 Z " fill="#000000"/><text fill="#000000" font-family="sans-serif" font-size="12" font-style="italic" lengthAdjust="spacingAndGlyphs" textLength="71" x="637" y="135.5352">NodeBuilder</text><line style="stroke:#A80036;stroke-width:1.5;" x1="609" x2="710" y1="147" y2="147"/><line style="stroke:#A80036;stroke-width:1.5;" x1="609" x2="710" y1="155" y2="155"/><!--MD5=[618f212f2607b68075603f25ed5aaf67]
class LeafNodeBuilder--><rect codeLine="34" fill="#EEEEEE" filter="url(#fe2wxw5js5myh)" height="48" id="LeafNodeBuilder" style="stroke:#A80036;stroke-width:1.5;" width="127" x="746" y="115"/><ellipse cx="761" cy="131" fill="#A9DCDF" rx="11" ry="11" style="stroke:#A80036;stroke-width:1.0;"/><path d="M760.8633,126.3481 L759.7095,131.4199 L762.0254,131.4199 Z M759.3691,124.1069 L762.3657,124.1069 L765.7109,136.5 L763.2622,136.5 L762.4985,133.437 L759.2197,133.437 L758.4727,136.5 L756.0239,136.5 Z " fill="#000000"/><text fill="#000000" font-family="sans-serif" font-size="12" font-style="italic" lengthAdjust="spacingAndGlyphs" textLength="95" x="775" y="135.5352">LeafNodeBuilder</text><line style="stroke:#A80036;stroke-width:1.5;" x1="747" x2="872" y1="147" y2="147"/><line style="stroke:#A80036;stroke-width:1.5;" x1="747" x2="872" y1="155" y2="155"/><!--MD5=[296de3889a05118a3f3c8dc893cff4b7]
class NodeWithIdBuilder--><rect codeLine="35" fill="#EEEEEE" filter="url(#fe2wxw5js5myh)" height="48" id="NodeWithIdBuilder" style="stroke:#A80036;stroke-width:1.5;" width="138" x="590.5" y="223"/><ellipse cx="605.5" cy="239" fill="#A9DCDF" rx="11" ry="11" style="stroke:#A80036;stroke-width:1.0;"/><path d="M605.3633,234.3481 L604.2095,239.4199 L606.5254,239.4199 Z M603.8691,232.1069 L606.8657,232.1069 L610.2109,244.5 L607.7622,244.5 L606.9985,241.437 L603.7197,241.437 L602.9727,244.5 L600.5239,244.5 Z " fill="#000000"/><text fill="#000000" font-family="sans-serif" font-size="12" font-style="italic" lengthAdjust="spacingAndGlyphs" textLength="106" x="619.5" y="243.5352">NodeWithIdBuilder</text><line style="stroke:#A80036;stroke-width:1.5;" x1="591.5" x2="727.5" y1="255" y2="255"/><line style="stroke:#A80036;stroke-width:1.5;" x1="591.5" x2="727.5" y1="263" y2="263"/><!--MD5=[4b2c5d02a972ece1eedaae441f62647c]
class TypeBuilder--><rect codeLine="36" fill="#FEFECE" filter="url(#fe2wxw5js5myh)" height="73.9102" id="TypeBuilder" style="stroke:#A80036;stroke-width:1.5;" width="439" x="440" y="331"/><ellipse cx="455" cy="347" fill="#ADD1B2" rx="11" ry="11" style="stroke:#A80036;stroke-width:1.0;"/><path d="M457.4731,353.1431 Q456.8921,353.4419 456.2529,353.5913 Q455.6138,353.7407 454.9082,353.7407 Q452.4014,353.7407 451.0815,352.0889 Q449.7617,350.437 449.7617,347.3159 Q449.7617,344.1865 451.0815,342.5347 Q452.4014,340.8828 454.9082,340.8828 Q455.6138,340.8828 456.2612,341.0322 Q456.9087,341.1816 457.4731,341.4805 L457.4731,344.2031 Q456.8423,343.6221 456.2488,343.3523 Q455.6553,343.0825 455.0244,343.0825 Q453.6797,343.0825 452.9949,344.1492 Q452.3101,345.2158 452.3101,347.3159 Q452.3101,349.4077 452.9949,350.4744 Q453.6797,351.541 455.0244,351.541 Q455.6553,351.541 456.2488,351.2712 Q456.8423,351.0015 457.4731,350.4204 Z " fill="#000000"/><text fill="#000000" font-family="sans-serif" font-size="12" lengthAdjust="spacingAndGlyphs" textLength="69" x="469" y="351.5352">TypeBuilder</text><rect fill="#FFFFFF" height="16.1328" style="stroke:#000000;stroke-width:1.0;stroke-dasharray:2.0,2.0;" width="336" x="546" y="328"/><text fill="#000000" font-family="sans-serif" font-size="12" font-style="italic" lengthAdjust="spacingAndGlyphs" textLength="326" x="551" y="340.6016">@JsonDeserialize(using = NodeBuilderDeserializer.class)</text><line style="stroke:#A80036;stroke-width:1.5;" x1="441" x2="878" y1="363" y2="363"/><text fill="#000000" font-family="sans-serif" font-size="11" lengthAdjust="spacingAndGlyphs" textLength="37" x="446" y="377.6348">setters</text><line style="stroke:#A80036;stroke-width:1.5;" x1="441" x2="878" y1="383.9551" y2="383.9551"/><text fill="#000000" font-family="sans-serif" font-size="11" lengthAdjust="spacingAndGlyphs" textLength="64" x="446" y="398.5898">Type build()</text><!--MD5=[01b95d182fe8d23fc8b232b64dd5b18e]
class AbstractHandler--><rect codeLine="48" fill="#EEEEEE" filter="url(#fe2wxw5js5myh)" height="48" id="AbstractHandler" style="stroke:#A80036;stroke-width:1.5;" width="126" x="73.5" y="223"/><ellipse cx="88.5" cy="239" fill="#A9DCDF" rx="11" ry="11" style="stroke:#A80036;stroke-width:1.0;"/><path d="M88.3633,234.3481 L87.2095,239.4199 L89.5254,239.4199 Z M86.8691,232.1069 L89.8657,232.1069 L93.2109,244.5 L90.7622,244.5 L89.9985,241.437 L86.7197,241.437 L85.9727,244.5 L83.5239,244.5 Z " fill="#000000"/><text fill="#000000" font-family="sans-serif" font-size="12" font-style="italic" lengthAdjust="spacingAndGlyphs" textLength="94" x="102.5" y="243.5352">AbstractHandler</text><line style="stroke:#A80036;stroke-width:1.5;" x1="74.5" x2="198.5" y1="255" y2="255"/><line style="stroke:#A80036;stroke-width:1.5;" x1="74.5" x2="198.5" y1="263" y2="263"/><!--MD5=[f2f72a8a22143fdabb500f8432b91e61]
class AbstractNodeHandler--><rect codeLine="49" fill="#EEEEEE" filter="url(#fe2wxw5js5myh)" height="48" id="AbstractNodeHandler" style="stroke:#A80036;stroke-width:1.5;" width="157" x="58" y="344"/><ellipse cx="73" cy="360" fill="#A9DCDF" rx="11" ry="11" style="stroke:#A80036;stroke-width:1.0;"/><path d="M72.8633,355.3481 L71.7095,360.4199 L74.0254,360.4199 Z M71.3691,353.1069 L74.3657,353.1069 L77.7109,365.5 L75.2622,365.5 L74.4985,362.437 L71.2197,362.437 L70.4727,365.5 L68.0239,365.5 Z " fill="#000000"/><text fill="#000000" font-family="sans-serif" font-size="12" font-style="italic" lengthAdjust="spacingAndGlyphs" textLength="125" x="87" y="364.5352">AbstractNodeHandler</text><line style="stroke:#A80036;stroke-width:1.5;" x1="59" x2="214" y1="376" y2="376"/><line style="stroke:#A80036;stroke-width:1.5;" x1="59" x2="214" y1="384" y2="384"/><!--MD5=[ac17598657dd8818c4c051f0134ed66c]
class TypeHandler--><rect codeLine="51" fill="#FEFECE" filter="url(#fe2wxw5js5myh)" height="60.9551" id="TypeHandler" style="stroke:#A80036;stroke-width:1.5;" width="301" x="7" y="465"/><ellipse cx="99.25" cy="481" fill="#ADD1B2" rx="11" ry="11" style="stroke:#A80036;stroke-width:1.0;"/><path d="M101.7231,487.1431 Q101.1421,487.4419 100.5029,487.5913 Q99.8638,487.7407 99.1582,487.7407 Q96.6514,487.7407 95.3315,486.0889 Q94.0117,484.437 94.0117,481.3159 Q94.0117,478.1865 95.3315,476.5347 Q96.6514,474.8828 99.1582,474.8828 Q99.8638,474.8828 100.5112,475.0322 Q101.1587,475.1816 101.7231,475.4805 L101.7231,478.2031 Q101.0923,477.6221 100.4988,477.3523 Q99.9053,477.0825 99.2744,477.0825 Q97.9297,477.0825 97.2449,478.1492 Q96.5601,479.2158 96.5601,481.3159 Q96.5601,483.4077 97.2449,484.4744 Q97.9297,485.541 99.2744,485.541 Q99.9053,485.541 100.4988,485.2712 Q101.0923,485.0015 101.7231,484.4204 Z " fill="#000000"/><text fill="#000000" font-family="sans-serif" font-size="12" lengthAdjust="spacingAndGlyphs" textLength="75" x="119.75" y="485.5352">TypeHandler</text><rect fill="#FFFFFF" height="16.1328" style="stroke:#000000;stroke-width:1.0;stroke-dasharray:2.0,2.0;" width="31" x="280" y="462"/><text fill="#000000" font-family="sans-serif" font-size="12" font-style="italic" lengthAdjust="spacingAndGlyphs" textLength="29" x="281" y="474.6016">Type</text><line style="stroke:#A80036;stroke-width:1.5;" x1="8" x2="307" y1="497" y2="497"/><line style="stroke:#A80036;stroke-width:1.5;" x1="8" x2="307" y1="505" y2="505"/><text fill="#000000" font-family="sans-serif" font-size="11" lengthAdjust="spacingAndGlyphs" textLength="289" x="13" y="519.6348">ExecutionContext execute(ExecutionContext context)</text><!--MD5=[e0bbb54261ad1c49170404994e53b829]
reverse link Base to Leaf--><path codeLine="12" d="M308.94,289.92 C301.79,308.03 293.69,328.53 287.65,343.83 " fill="none" id="Base-backto-Leaf" style="stroke:#A80036;stroke-width:1.0;"/><polygon fill="none" points="302.47,287.26,316.33,271.23,315.49,292.4,302.47,287.26" style="stroke:#A80036;stroke-width:1.0;"/><!--MD5=[58129114eaea77d54b3442254f462ca4]
reverse link Base to Node--><path codeLine="13" d="M342.41,289.92 C349.71,308.03 357.98,328.53 364.15,343.83 " fill="none" id="Base-backto-Node" style="stroke:#A80036;stroke-width:1.0;"/><polygon fill="none" points="335.86,292.39,334.87,271.23,348.84,287.16,335.86,292.39" style="stroke:#A80036;stroke-width:1.0;"/><!--MD5=[1e83d7418da6c76bd908026387076917]
reverse link Node to Type--><path codeLine="14" d="M373.5,412.09 C373.5,429.53 373.5,449.22 373.5,464.98 " fill="none" id="Node-backto-Type" style="stroke:#A80036;stroke-width:1.0;"/><polygon fill="none" points="366.5,412.02,373.5,392.02,380.5,412.02,366.5,412.02" style="stroke:#A80036;stroke-width:1.0;"/><!--MD5=[05ab5a9501322f25133ae796aab6c7b9]
reverse link Type to TypeNode--><path codeLine="15" d="M333.02,541.1 C319.49,556.01 304.75,572.25 292.5,585.74 " fill="none" id="Type-backto-TypeNode" style="stroke:#A80036;stroke-width:1.0;"/><polygon fill="none" points="327.9,536.33,346.53,526.22,338.27,545.74,327.9,536.33" style="stroke:#A80036;stroke-width:1.0;"/><!--MD5=[ff10641b31662aff62f8c646e7cb6f50]
link FlowNode to AbstractBaseNode--><path codeLine="25" d="M252.05,863 C244.87,875.28 235.81,890.76 227.47,905.01 " fill="none" id="FlowNode-to-AbstractBaseNode" style="stroke:#A80036;stroke-width:1.0;"/><polygon fill="none" points="233.28,908.95,217.14,922.68,221.2,901.88,233.28,908.95" style="stroke:#A80036;stroke-width:1.0;"/><!--MD5=[a25f2356b65516f11dafef15662e223b]
link LeafNode to AbstractBaseNode--><path codeLine="26" d="M155.74,863 C162.8,875.28 171.71,890.76 179.91,905.01 " fill="none" id="LeafNode-to-AbstractBaseNode" style="stroke:#A80036;stroke-width:1.0;"/><polygon fill="none" points="186.17,901.85,190.08,922.68,174.04,908.84,186.17,901.85" style="stroke:#A80036;stroke-width:1.0;"/><!--MD5=[75dd6d30bf80a5cdb79dea567d378ffb]
link FlowNodeWithId to FlowNode--><path codeLine="27" d="M265.5,755 C265.5,766.59 265.5,781.03 265.5,794.6 " fill="none" id="FlowNodeWithId-to-FlowNode" style="stroke:#A80036;stroke-width:1.0;"/><polygon fill="none" points="272.5,794.68,265.5,814.68,258.5,794.68,272.5,794.68" style="stroke:#A80036;stroke-width:1.0;"/><!--MD5=[ce06f88c302966aa73ccefaef2f715ee]
link TypeNode to FlowNodeWithId--><path codeLine="28" d="M265.5,647.06 C265.5,659.13 265.5,673.34 265.5,686.55 " fill="none" id="TypeNode-to-FlowNodeWithId" style="stroke:#A80036;stroke-width:1.0;"/><polygon fill="none" points="272.5,686.67,265.5,706.67,258.5,686.67,272.5,686.67" style="stroke:#A80036;stroke-width:1.0;"/><!--MD5=[2dc459523952392a928e9483f227cb09]
reverse link TypeBuilder to Type--><path codeLine="41" d="M565.07,410.44 C509.25,434.93 442.22,464.35 404.07,481.09 " fill="none" id="TypeBuilder-backto-Type" style="stroke:#A80036;stroke-width:1.0;"/><polygon fill="#A80036" points="577.16,405.13,570.0591,403.8743,566.1688,409.9461,573.2698,411.2017,577.16,405.13" style="stroke:#A80036;stroke-width:1.0;"/><!--MD5=[cd8b1538a2238c992afb6a7520054513]
reverse link AbstractBuilder to LeafNodeBuilder--><path codeLine="42" d="M762.56,71.66 C772.81,86.15 784.08,102.07 793,114.68 " fill="none" id="AbstractBuilder-backto-LeafNodeBuilder" style="stroke:#A80036;stroke-width:1.0;"/><polygon fill="none" points="756.61,75.37,750.77,55,768.04,67.28,756.61,75.37" style="stroke:#A80036;stroke-width:1.0;"/><!--MD5=[3b0b0e1d0ad3b3fd5b604037712c2499]
reverse link AbstractBuilder to NodeBuilder--><path codeLine="43" d="M706.44,71.66 C696.19,86.15 684.92,102.07 676,114.68 " fill="none" id="AbstractBuilder-backto-NodeBuilder" style="stroke:#A80036;stroke-width:1.0;"/><polygon fill="none" points="700.96,67.28,718.23,55,712.39,75.37,700.96,67.28" style="stroke:#A80036;stroke-width:1.0;"/><!--MD5=[207ec1e70bce98faa627fb2c4a77cf3e]
reverse link NodeBuilder to NodeWithIdBuilder--><path codeLine="44" d="M659.5,183.02 C659.5,196.58 659.5,211.04 659.5,222.68 " fill="none" id="NodeBuilder-backto-NodeWithIdBuilder" style="stroke:#A80036;stroke-width:1.0;"/><polygon fill="none" points="652.5,183,659.5,163,666.5,183,652.5,183" style="stroke:#A80036;stroke-width:1.0;"/><!--MD5=[0b792f6c5144b9680e9604515713be7a]
reverse link NodeWithIdBuilder to TypeBuilder--><path codeLine="45" d="M659.5,291.43 C659.5,304.33 659.5,318.32 659.5,330.71 " fill="none" id="NodeWithIdBuilder-backto-TypeBuilder" style="stroke:#A80036;stroke-width:1.0;"/><polygon fill="none" points="652.5,291.23,659.5,271.23,666.5,291.23,652.5,291.23" style="stroke:#A80036;stroke-width:1.0;"/><!--MD5=[2551c99dc05230a95e7a969f69833701]
reverse link AbstractHandler to AbstractNodeHandler--><path d="M136.5,291.38 C136.5,309.12 136.5,328.94 136.5,343.83 " fill="none" id="AbstractHandler-backto-AbstractNodeHandler" style="stroke:#A80036;stroke-width:1.0;"/><polygon fill="none" points="129.5,291.23,136.5,271.23,143.5,291.23,129.5,291.23" style="stroke:#A80036;stroke-width:1.0;"/><!--MD5=[7e3d031ec23be4835a1c260cff4620a1]
reverse link AbstractNodeHandler to TypeHandler--><path d="M143.66,411.81 C146.59,429.31 149.91,449.14 152.56,464.98 " fill="none" id="AbstractNodeHandler-backto-TypeHandler" style="stroke:#A80036;stroke-width:1.0;"/><polygon fill="none" points="136.75,412.9,140.35,392.02,150.56,410.59,136.75,412.9" style="stroke:#A80036;stroke-width:1.0;"/><!--MD5=[80920ea2bf6d30be05ba22700bcf9e2d]
reverse link TypeHandler to Type--><path codeLine="55" d="M321.14,495.5 C328.37,495.5 335.61,495.5 342.85,495.5 " fill="none" id="TypeHandler-backto-Type" style="stroke:#A80036;stroke-width:1.0;"/><polygon fill="#A80036" points="308.11,495.5,314.11,499.5,320.11,495.5,314.11,491.5,308.11,495.5" style="stroke:#A80036;stroke-width:1.0;"/><!--MD5=[fe15e9dc6810350ca58219f01366bccf]
reverse link TypeHandler to TypeNode--><path codeLine="56" d="M197.98,541.1 C211.51,556.01 226.25,572.25 238.5,585.74 " fill="none" id="TypeHandler-backto-TypeNode" style="stroke:#A80036;stroke-width:1.0;stroke-dasharray:7.0,7.0;"/><polygon fill="none" points="192.73,545.74,184.47,526.22,203.1,536.33,192.73,545.74" style="stroke:#A80036;stroke-width:1.0;"/><!--MD5=[3348c4f0ca75b3cd42758d7f52941ec6]
@startuml

interface Base #EEE {
}
interface Leaf #EEE {
}
interface Node #EEE {
}
interface Type {
    getters
}

Base <|-down- Leaf
Base <|-down- Node
Node <|-down- Type
Type <|- - TypeNode

abstract class AbstractBaseNode #EEE
abstract class FlowNode #EEE
abstract class LeafNode #EEE
abstract class FlowNodeWithId #EEE
class TypeNode {
    getters
}

AbstractBaseNode <|-up- FlowNode
AbstractBaseNode <|-up- LeafNode
FlowNode <|-up- FlowNodeWithId
FlowNodeWithId <|-up- TypeNode



abstract class AbstractBuilder #EEE
abstract class NodeBuilder #EEE
abstract class LeafNodeBuilder #EEE
abstract class NodeWithIdBuilder #EEE
class TypeBuilder < @JsonDeserialize(using = NodeBuilderDeserializer.class) > {
    setters
    Type build()
}

TypeBuilder *- - Type
AbstractBuilder <|- - LeafNodeBuilder
AbstractBuilder <|- - NodeBuilder
NodeBuilder <|- - NodeWithIdBuilder
NodeWithIdBuilder <|-down- TypeBuilder


abstract class AbstractHandler #EEE
abstract class AbstractNodeHandler #EEE extends AbstractHandler

class TypeHandler<Type> extends AbstractNodeHandler {
    ExecutionContext execute(ExecutionContext context)
}

TypeHandler *- Type
TypeHandler <|.. TypeNode

@enduml

PlantUML version 1.2020.26(Mon Dec 21 18:45:07 CET 2020)
(GPL source distribution)
Java Runtime: OpenJDK Runtime Environment
JVM: OpenJDK 64-Bit Server VM
Default Encoding: UTF-8
Language: en
Country: NO
--></g></svg>