<?xml version="1.0" encoding="UTF-8" standalone="no"?><svg xmlns="http://www.w3.org/2000/svg" xmlns:xlink="http://www.w3.org/1999/xlink" contentScriptType="application/ecmascript" contentStyleType="text/css" height="607px" preserveAspectRatio="none" style="width:892px;height:607px;" version="1.1" viewBox="0 0 892 607" width="892px" zoomAndPan="magnify"><defs><filter height="300%" id="f1b6iwllfdm82y" width="300%" x="-1" y="-1"><feGaussianBlur result="blurOut" stdDeviation="2.0"/><feColorMatrix in="blurOut" result="blurOut2" type="matrix" values="0 0 0 0 0 0 0 0 0 0 0 0 0 0 0 0 0 0 .4 0"/><feOffset dx="4.0" dy="4.0" in="blurOut2" result="blurOut3"/><feBlend in="SourceGraphic" in2="blurOut3" mode="normal"/></filter></defs><g><!--MD5=[94f2700a283fefb6df19aa68d2add4df]
cluster api.base--><polygon fill="#FFFFFF" filter="url(#f1b6iwllfdm82y)" points="429,14,493,14,500,36.4883,616,36.4883,616,329,429,329,429,14" style="stroke:#000000;stroke-width:1.5;"/><line style="stroke:#000000;stroke-width:1.5;" x1="429" x2="500" y1="36.4883" y2="36.4883"/><text fill="#000000" font-family="sans-serif" font-size="14" font-weight="bold" lengthAdjust="spacingAndGlyphs" textLength="58" x="433" y="29.5352">api.base</text><!--MD5=[9a53b195b9e6dcc8c7a5cc20ca36bc92]
cluster functions--><polygon fill="#FFFFFF" filter="url(#f1b6iwllfdm82y)" points="486,377,684,377,691,399.4883,875,399.4883,875,600,486,600,486,377" style="stroke:#000000;stroke-width:1.5;"/><line style="stroke:#000000;stroke-width:1.5;" x1="486" x2="691" y1="399.4883" y2="399.4883"/><text fill="#000000" font-family="sans-serif" font-size="14" font-weight="bold" lengthAdjust="spacingAndGlyphs" textLength="192" x="490" y="392.5352">api.functions (NodeWithId)</text><!--MD5=[fb85909725bfc381b6534f867114db32]
cluster steps--><polygon fill="#FFFFFF" filter="url(#f1b6iwllfdm82y)" points="16,6,138,6,145,28.4883,397,28.4883,397,337,16,337,16,6" style="stroke:#000000;stroke-width:1.5;"/><line style="stroke:#000000;stroke-width:1.5;" x1="16" x2="145" y1="28.4883" y2="28.4883"/><text fill="#000000" font-family="sans-serif" font-size="14" font-weight="bold" lengthAdjust="spacingAndGlyphs" textLength="116" x="20" y="21.5352">api.steps (Node)</text><!--MD5=[ae336da5efe52b168083e063e86251c2]
class Base--><rect codeLine="3" fill="#FEFECE" filter="url(#f1b6iwllfdm82y)" height="48" id="Base" style="stroke:#A80036;stroke-width:1.5;" width="59" x="493.5" y="49"/><ellipse cx="508.5" cy="65" fill="#B4A7E5" rx="11" ry="11" style="stroke:#A80036;stroke-width:1.0;"/><path d="M504.9277,61.2651 L504.9277,59.1069 L512.3071,59.1069 L512.3071,61.2651 L509.8418,61.2651 L509.8418,69.3418 L512.3071,69.3418 L512.3071,71.5 L504.9277,71.5 L504.9277,69.3418 L507.3931,69.3418 L507.3931,61.2651 Z " fill="#000000"/><text fill="#000000" font-family="sans-serif" font-size="12" font-style="italic" lengthAdjust="spacingAndGlyphs" textLength="27" x="522.5" y="69.5352">Base</text><line style="stroke:#A80036;stroke-width:1.5;" x1="494.5" x2="551.5" y1="81" y2="81"/><line style="stroke:#A80036;stroke-width:1.5;" x1="494.5" x2="551.5" y1="89" y2="89"/><!--MD5=[3670a9b67b8a752f6e42da25dea7e2da]
class Leaf--><rect codeLine="4" fill="#FEFECE" filter="url(#f1b6iwllfdm82y)" height="48" id="Leaf" style="stroke:#A80036;stroke-width:1.5;" width="56" x="544" y="157"/><ellipse cx="559" cy="173" fill="#B4A7E5" rx="11" ry="11" style="stroke:#A80036;stroke-width:1.0;"/><path d="M555.4277,169.2651 L555.4277,167.1069 L562.8071,167.1069 L562.8071,169.2651 L560.3418,169.2651 L560.3418,177.3418 L562.8071,177.3418 L562.8071,179.5 L555.4277,179.5 L555.4277,177.3418 L557.8931,177.3418 L557.8931,169.2651 Z " fill="#000000"/><text fill="#000000" font-family="sans-serif" font-size="12" font-style="italic" lengthAdjust="spacingAndGlyphs" textLength="24" x="573" y="177.5352">Leaf</text><line style="stroke:#A80036;stroke-width:1.5;" x1="545" x2="599" y1="189" y2="189"/><line style="stroke:#A80036;stroke-width:1.5;" x1="545" x2="599" y1="197" y2="197"/><!--MD5=[3fee75583bb7a64f68d843a3c9534ab3]
class Node--><rect codeLine="5" fill="#FEFECE" filter="url(#f1b6iwllfdm82y)" height="48" id="Node" style="stroke:#A80036;stroke-width:1.5;" width="63" x="445.5" y="157"/><ellipse cx="460.5" cy="173" fill="#B4A7E5" rx="11" ry="11" style="stroke:#A80036;stroke-width:1.0;"/><path d="M456.9277,169.2651 L456.9277,167.1069 L464.3071,167.1069 L464.3071,169.2651 L461.8418,169.2651 L461.8418,177.3418 L464.3071,177.3418 L464.3071,179.5 L456.9277,179.5 L456.9277,177.3418 L459.3931,177.3418 L459.3931,169.2651 Z " fill="#000000"/><text fill="#000000" font-family="sans-serif" font-size="12" font-style="italic" lengthAdjust="spacingAndGlyphs" textLength="31" x="474.5" y="177.5352">Node</text><line style="stroke:#A80036;stroke-width:1.5;" x1="446.5" x2="507.5" y1="189" y2="189"/><line style="stroke:#A80036;stroke-width:1.5;" x1="446.5" x2="507.5" y1="197" y2="197"/><!--MD5=[c10d8cd4c7eec05b7116bf1e77b16279]
class NodeWithId--><rect codeLine="6" fill="#FEFECE" filter="url(#f1b6iwllfdm82y)" height="48" id="NodeWithId" style="stroke:#A80036;stroke-width:1.5;" width="98" x="445" y="265"/><ellipse cx="460" cy="281" fill="#B4A7E5" rx="11" ry="11" style="stroke:#A80036;stroke-width:1.0;"/><path d="M456.4277,277.2651 L456.4277,275.1069 L463.8071,275.1069 L463.8071,277.2651 L461.3418,277.2651 L461.3418,285.3418 L463.8071,285.3418 L463.8071,287.5 L456.4277,287.5 L456.4277,285.3418 L458.8931,285.3418 L458.8931,277.2651 Z " fill="#000000"/><text fill="#000000" font-family="sans-serif" font-size="12" font-style="italic" lengthAdjust="spacingAndGlyphs" textLength="66" x="474" y="285.5352">NodeWithId</text><line style="stroke:#A80036;stroke-width:1.5;" x1="446" x2="542" y1="297" y2="297"/><line style="stroke:#A80036;stroke-width:1.5;" x1="446" x2="542" y1="305" y2="305"/><!--MD5=[cca5d97aaf46870920fae66c9bd85cdd]
class Operation--><rect codeLine="14" fill="#FEFECE" filter="url(#f1b6iwllfdm82y)" height="48" id="Operation" style="stroke:#A80036;stroke-width:1.5;" width="89" x="666.5" y="420"/><ellipse cx="681.5" cy="436" fill="#B4A7E5" rx="11" ry="11" style="stroke:#A80036;stroke-width:1.0;"/><path d="M677.9277,432.2651 L677.9277,430.1069 L685.3071,430.1069 L685.3071,432.2651 L682.8418,432.2651 L682.8418,440.3418 L685.3071,440.3418 L685.3071,442.5 L677.9277,442.5 L677.9277,440.3418 L680.3931,440.3418 L680.3931,432.2651 Z " fill="#000000"/><text fill="#000000" font-family="sans-serif" font-size="12" font-style="italic" lengthAdjust="spacingAndGlyphs" textLength="57" x="695.5" y="440.5352">Operation</text><line style="stroke:#A80036;stroke-width:1.5;" x1="667.5" x2="754.5" y1="452" y2="452"/><line style="stroke:#A80036;stroke-width:1.5;" x1="667.5" x2="754.5" y1="460" y2="460"/><!--MD5=[8dad76bf7ab6589a2a16aed7e391ed29]
class Get--><rect codeLine="15" fill="#FEFECE" filter="url(#f1b6iwllfdm82y)" height="48" id="Get" style="stroke:#A80036;stroke-width:1.5;" width="52" x="518" y="528"/><ellipse cx="533" cy="544" fill="#B4A7E5" rx="11" ry="11" style="stroke:#A80036;stroke-width:1.0;"/><path d="M529.4277,540.2651 L529.4277,538.1069 L536.8071,538.1069 L536.8071,540.2651 L534.3418,540.2651 L534.3418,548.3418 L536.8071,548.3418 L536.8071,550.5 L529.4277,550.5 L529.4277,548.3418 L531.8931,548.3418 L531.8931,540.2651 Z " fill="#000000"/><text fill="#000000" font-family="sans-serif" font-size="12" font-style="italic" lengthAdjust="spacingAndGlyphs" textLength="20" x="547" y="548.5352">Get</text><line style="stroke:#A80036;stroke-width:1.5;" x1="519" x2="569" y1="560" y2="560"/><line style="stroke:#A80036;stroke-width:1.5;" x1="519" x2="569" y1="568" y2="568"/><!--MD5=[80913b1cc667c5997af01db625a44293]
class Put--><rect codeLine="16" fill="#FEFECE" filter="url(#f1b6iwllfdm82y)" height="48" id="Put" style="stroke:#A80036;stroke-width:1.5;" width="50" x="605" y="528"/><ellipse cx="620" cy="544" fill="#B4A7E5" rx="11" ry="11" style="stroke:#A80036;stroke-width:1.0;"/><path d="M616.4277,540.2651 L616.4277,538.1069 L623.8071,538.1069 L623.8071,540.2651 L621.3418,540.2651 L621.3418,548.3418 L623.8071,548.3418 L623.8071,550.5 L616.4277,550.5 L616.4277,548.3418 L618.8931,548.3418 L618.8931,540.2651 Z " fill="#000000"/><text fill="#000000" font-family="sans-serif" font-size="12" font-style="italic" lengthAdjust="spacingAndGlyphs" textLength="18" x="634" y="548.5352">Put</text><line style="stroke:#A80036;stroke-width:1.5;" x1="606" x2="654" y1="560" y2="560"/><line style="stroke:#A80036;stroke-width:1.5;" x1="606" x2="654" y1="568" y2="568"/><!--MD5=[9bb0bdd047fba1a3c8d48282c35b4537]
class Post--><rect codeLine="17" fill="#FEFECE" filter="url(#f1b6iwllfdm82y)" height="48" id="Post" style="stroke:#A80036;stroke-width:1.5;" width="56" x="690" y="528"/><ellipse cx="705" cy="544" fill="#B4A7E5" rx="11" ry="11" style="stroke:#A80036;stroke-width:1.0;"/><path d="M701.4277,540.2651 L701.4277,538.1069 L708.8071,538.1069 L708.8071,540.2651 L706.3418,540.2651 L706.3418,548.3418 L708.8071,548.3418 L708.8071,550.5 L701.4277,550.5 L701.4277,548.3418 L703.8931,548.3418 L703.8931,540.2651 Z " fill="#000000"/><text fill="#000000" font-family="sans-serif" font-size="12" font-style="italic" lengthAdjust="spacingAndGlyphs" textLength="24" x="719" y="548.5352">Post</text><line style="stroke:#A80036;stroke-width:1.5;" x1="691" x2="745" y1="560" y2="560"/><line style="stroke:#A80036;stroke-width:1.5;" x1="691" x2="745" y1="568" y2="568"/><!--MD5=[9d82e49cffacc5184d1149ac06d87e9b]
class Delete--><rect codeLine="18" fill="#FEFECE" filter="url(#f1b6iwllfdm82y)" height="48" id="Delete" style="stroke:#A80036;stroke-width:1.5;" width="69" x="781.5" y="528"/><ellipse cx="796.5" cy="544" fill="#B4A7E5" rx="11" ry="11" style="stroke:#A80036;stroke-width:1.0;"/><path d="M792.9277,540.2651 L792.9277,538.1069 L800.3071,538.1069 L800.3071,540.2651 L797.8418,540.2651 L797.8418,548.3418 L800.3071,548.3418 L800.3071,550.5 L792.9277,550.5 L792.9277,548.3418 L795.3931,548.3418 L795.3931,540.2651 Z " fill="#000000"/><text fill="#000000" font-family="sans-serif" font-size="12" font-style="italic" lengthAdjust="spacingAndGlyphs" textLength="37" x="810.5" y="548.5352">Delete</text><line style="stroke:#A80036;stroke-width:1.5;" x1="782.5" x2="849.5" y1="560" y2="560"/><line style="stroke:#A80036;stroke-width:1.5;" x1="782.5" x2="849.5" y1="568" y2="568"/><!--MD5=[a1931fe34233fab0fd3ba1f58fe71967]
class Paginate--><rect codeLine="19" fill="#FEFECE" filter="url(#f1b6iwllfdm82y)" height="48" id="Paginate" style="stroke:#A80036;stroke-width:1.5;" width="81" x="543.5" y="420"/><ellipse cx="558.5" cy="436" fill="#B4A7E5" rx="11" ry="11" style="stroke:#A80036;stroke-width:1.0;"/><path d="M554.9277,432.2651 L554.9277,430.1069 L562.3071,430.1069 L562.3071,432.2651 L559.8418,432.2651 L559.8418,440.3418 L562.3071,440.3418 L562.3071,442.5 L554.9277,442.5 L554.9277,440.3418 L557.3931,440.3418 L557.3931,432.2651 Z " fill="#000000"/><text fill="#000000" font-family="sans-serif" font-size="12" font-style="italic" lengthAdjust="spacingAndGlyphs" textLength="49" x="572.5" y="440.5352">Paginate</text><line style="stroke:#A80036;stroke-width:1.5;" x1="544.5" x2="623.5" y1="452" y2="452"/><line style="stroke:#A80036;stroke-width:1.5;" x1="544.5" x2="623.5" y1="460" y2="460"/><!--MD5=[5043d0bd3c1ccfbfedd1ab465427d7b2]
class Execute--><rect codeLine="23" fill="#FEFECE" filter="url(#f1b6iwllfdm82y)" height="48" id="Execute" style="stroke:#A80036;stroke-width:1.5;" width="77" x="42.5" y="49"/><ellipse cx="57.5" cy="65" fill="#B4A7E5" rx="11" ry="11" style="stroke:#A80036;stroke-width:1.0;"/><path d="M53.9277,61.2651 L53.9277,59.1069 L61.3071,59.1069 L61.3071,61.2651 L58.8418,61.2651 L58.8418,69.3418 L61.3071,69.3418 L61.3071,71.5 L53.9277,71.5 L53.9277,69.3418 L56.3931,69.3418 L56.3931,61.2651 Z " fill="#000000"/><text fill="#000000" font-family="sans-serif" font-size="12" font-style="italic" lengthAdjust="spacingAndGlyphs" textLength="45" x="71.5" y="69.5352">Execute</text><line style="stroke:#A80036;stroke-width:1.5;" x1="43.5" x2="118.5" y1="81" y2="81"/><line style="stroke:#A80036;stroke-width:1.5;" x1="43.5" x2="118.5" y1="89" y2="89"/><!--MD5=[bb370c11d182b7ebaea7e6fa83404e81]
class Process--><rect codeLine="24" fill="#FEFECE" filter="url(#f1b6iwllfdm82y)" height="48" id="Process" style="stroke:#A80036;stroke-width:1.5;" width="76" x="155" y="49"/><ellipse cx="170" cy="65" fill="#B4A7E5" rx="11" ry="11" style="stroke:#A80036;stroke-width:1.0;"/><path d="M166.4277,61.2651 L166.4277,59.1069 L173.8071,59.1069 L173.8071,61.2651 L171.3418,61.2651 L171.3418,69.3418 L173.8071,69.3418 L173.8071,71.5 L166.4277,71.5 L166.4277,69.3418 L168.8931,69.3418 L168.8931,61.2651 Z " fill="#000000"/><text fill="#000000" font-family="sans-serif" font-size="12" font-style="italic" lengthAdjust="spacingAndGlyphs" textLength="44" x="184" y="69.5352">Process</text><line style="stroke:#A80036;stroke-width:1.5;" x1="156" x2="230" y1="81" y2="81"/><line style="stroke:#A80036;stroke-width:1.5;" x1="156" x2="230" y1="89" y2="89"/><!--MD5=[896702bfce61b73dfbf765415205a76e]
class Sequence--><rect codeLine="25" fill="#FEFECE" filter="url(#f1b6iwllfdm82y)" height="48" id="Sequence" style="stroke:#A80036;stroke-width:1.5;" width="87" x="266.5" y="49"/><ellipse cx="281.5" cy="65" fill="#B4A7E5" rx="11" ry="11" style="stroke:#A80036;stroke-width:1.0;"/><path d="M277.9277,61.2651 L277.9277,59.1069 L285.3071,59.1069 L285.3071,61.2651 L282.8418,61.2651 L282.8418,69.3418 L285.3071,69.3418 L285.3071,71.5 L277.9277,71.5 L277.9277,69.3418 L280.3931,69.3418 L280.3931,61.2651 Z " fill="#000000"/><text fill="#000000" font-family="sans-serif" font-size="12" font-style="italic" lengthAdjust="spacingAndGlyphs" textLength="55" x="295.5" y="69.5352">Sequence</text><line style="stroke:#A80036;stroke-width:1.5;" x1="267.5" x2="352.5" y1="81" y2="81"/><line style="stroke:#A80036;stroke-width:1.5;" x1="267.5" x2="352.5" y1="89" y2="89"/><!--MD5=[f47a4a97de3b64d1c4b06bc834b8bd13]
class NextPage--><rect codeLine="26" fill="#FEFECE" filter="url(#f1b6iwllfdm82y)" height="48" id="NextPage" style="stroke:#A80036;stroke-width:1.5;" width="87" x="43.5" y="157"/><ellipse cx="58.5" cy="173" fill="#B4A7E5" rx="11" ry="11" style="stroke:#A80036;stroke-width:1.0;"/><path d="M54.9277,169.2651 L54.9277,167.1069 L62.3071,167.1069 L62.3071,169.2651 L59.8418,169.2651 L59.8418,177.3418 L62.3071,177.3418 L62.3071,179.5 L54.9277,179.5 L54.9277,177.3418 L57.3931,177.3418 L57.3931,169.2651 Z " fill="#000000"/><text fill="#000000" font-family="sans-serif" font-size="12" font-style="italic" lengthAdjust="spacingAndGlyphs" textLength="55" x="72.5" y="177.5352">NextPage</text><line style="stroke:#A80036;stroke-width:1.5;" x1="44.5" x2="129.5" y1="189" y2="189"/><line style="stroke:#A80036;stroke-width:1.5;" x1="44.5" x2="129.5" y1="197" y2="197"/><!--MD5=[23020363ba6c0ae4d1d935611a1cf245]
class Parallel--><rect codeLine="27" fill="#FEFECE" filter="url(#f1b6iwllfdm82y)" height="48" id="Parallel" style="stroke:#A80036;stroke-width:1.5;" width="74" x="166" y="157"/><ellipse cx="181" cy="173" fill="#B4A7E5" rx="11" ry="11" style="stroke:#A80036;stroke-width:1.0;"/><path d="M177.4277,169.2651 L177.4277,167.1069 L184.8071,167.1069 L184.8071,169.2651 L182.3418,169.2651 L182.3418,177.3418 L184.8071,177.3418 L184.8071,179.5 L177.4277,179.5 L177.4277,177.3418 L179.8931,177.3418 L179.8931,169.2651 Z " fill="#000000"/><text fill="#000000" font-family="sans-serif" font-size="12" font-style="italic" lengthAdjust="spacingAndGlyphs" textLength="42" x="195" y="177.5352">Parallel</text><line style="stroke:#A80036;stroke-width:1.5;" x1="167" x2="239" y1="189" y2="189"/><line style="stroke:#A80036;stroke-width:1.5;" x1="167" x2="239" y1="197" y2="197"/><!--MD5=[208ecb712b61cb1e6810e6a2c271fa06]
class Publish--><rect codeLine="28" fill="#FEFECE" filter="url(#f1b6iwllfdm82y)" height="48" id="Publish" style="stroke:#A80036;stroke-width:1.5;" width="73" x="275.5" y="157"/><ellipse cx="290.5" cy="173" fill="#B4A7E5" rx="11" ry="11" style="stroke:#A80036;stroke-width:1.0;"/><path d="M286.9277,169.2651 L286.9277,167.1069 L294.3071,167.1069 L294.3071,169.2651 L291.8418,169.2651 L291.8418,177.3418 L294.3071,177.3418 L294.3071,179.5 L286.9277,179.5 L286.9277,177.3418 L289.3931,177.3418 L289.3931,169.2651 Z " fill="#000000"/><text fill="#000000" font-family="sans-serif" font-size="12" font-style="italic" lengthAdjust="spacingAndGlyphs" textLength="41" x="304.5" y="177.5352">Publish</text><line style="stroke:#A80036;stroke-width:1.5;" x1="276.5" x2="347.5" y1="189" y2="189"/><line style="stroke:#A80036;stroke-width:1.5;" x1="276.5" x2="347.5" y1="197" y2="197"/><!--MD5=[7c55b33fcd9c4a3ac7a4ff11b9d8418c]
class AddContent--><rect codeLine="29" fill="#FEFECE" filter="url(#f1b6iwllfdm82y)" height="48" id="AddContent" style="stroke:#A80036;stroke-width:1.5;" width="100" x="40" y="265"/><ellipse cx="55" cy="281" fill="#B4A7E5" rx="11" ry="11" style="stroke:#A80036;stroke-width:1.0;"/><path d="M51.4277,277.2651 L51.4277,275.1069 L58.8071,275.1069 L58.8071,277.2651 L56.3418,277.2651 L56.3418,285.3418 L58.8071,285.3418 L58.8071,287.5 L51.4277,287.5 L51.4277,285.3418 L53.8931,285.3418 L53.8931,277.2651 Z " fill="#000000"/><text fill="#000000" font-family="sans-serif" font-size="12" font-style="italic" lengthAdjust="spacingAndGlyphs" textLength="68" x="69" y="285.5352">AddContent</text><line style="stroke:#A80036;stroke-width:1.5;" x1="41" x2="139" y1="297" y2="297"/><line style="stroke:#A80036;stroke-width:1.5;" x1="41" x2="139" y1="305" y2="305"/><!--MD5=[7c8f6d2edba008d6428d4221fea30efb]
class ForEach--><rect codeLine="30" fill="#FEFECE" filter="url(#f1b6iwllfdm82y)" height="48" id="ForEach" style="stroke:#A80036;stroke-width:1.5;" width="77" x="175.5" y="265"/><ellipse cx="190.5" cy="281" fill="#B4A7E5" rx="11" ry="11" style="stroke:#A80036;stroke-width:1.0;"/><path d="M186.9277,277.2651 L186.9277,275.1069 L194.3071,275.1069 L194.3071,277.2651 L191.8418,277.2651 L191.8418,285.3418 L194.3071,285.3418 L194.3071,287.5 L186.9277,287.5 L186.9277,285.3418 L189.3931,285.3418 L189.3931,277.2651 Z " fill="#000000"/><text fill="#000000" font-family="sans-serif" font-size="12" font-style="italic" lengthAdjust="spacingAndGlyphs" textLength="45" x="204.5" y="285.5352">ForEach</text><line style="stroke:#A80036;stroke-width:1.5;" x1="176.5" x2="251.5" y1="297" y2="297"/><line style="stroke:#A80036;stroke-width:1.5;" x1="176.5" x2="251.5" y1="305" y2="305"/><!--MD5=[315b61b427ec618d6861d47eee00cca3]
class Console--><rect codeLine="31" fill="#FEFECE" filter="url(#f1b6iwllfdm82y)" height="48" id="Console" style="stroke:#A80036;stroke-width:1.5;" width="77" x="287.5" y="265"/><ellipse cx="302.5" cy="281" fill="#B4A7E5" rx="11" ry="11" style="stroke:#A80036;stroke-width:1.0;"/><path d="M298.9277,277.2651 L298.9277,275.1069 L306.3071,275.1069 L306.3071,277.2651 L303.8418,277.2651 L303.8418,285.3418 L306.3071,285.3418 L306.3071,287.5 L298.9277,287.5 L298.9277,285.3418 L301.3931,285.3418 L301.3931,277.2651 Z " fill="#000000"/><text fill="#000000" font-family="sans-serif" font-size="12" font-style="italic" lengthAdjust="spacingAndGlyphs" textLength="45" x="316.5" y="285.5352">Console</text><line style="stroke:#A80036;stroke-width:1.5;" x1="288.5" x2="363.5" y1="297" y2="297"/><line style="stroke:#A80036;stroke-width:1.5;" x1="288.5" x2="363.5" y1="305" y2="305"/><!--MD5=[e0bbb54261ad1c49170404994e53b829]
reverse link Base to Leaf--><path codeLine="8" d="M542.22,115.57 C548.68,129.54 555.65,144.62 561.22,156.68 " fill="none" id="Base-backto-Leaf" style="stroke:#A80036;stroke-width:1.0;"/><polygon fill="none" points="535.67,118.09,533.63,97,548.38,112.22,535.67,118.09" style="stroke:#A80036;stroke-width:1.0;"/><!--MD5=[58129114eaea77d54b3442254f462ca4]
reverse link Base to Node--><path codeLine="9" d="M504.96,115.57 C498.9,129.54 492.35,144.62 487.12,156.68 " fill="none" id="Base-backto-Node" style="stroke:#A80036;stroke-width:1.0;"/><polygon fill="none" points="498.64,112.56,513.02,97,511.48,118.13,498.64,112.56" style="stroke:#A80036;stroke-width:1.0;"/><!--MD5=[25867d879ddbd565169a0e8efb762d9a]
reverse link Node to NodeWithId--><path codeLine="10" d="M483.9,225.02 C486.07,238.58 488.39,253.04 490.26,264.68 " fill="none" id="Node-backto-NodeWithId" style="stroke:#A80036;stroke-width:1.0;"/><polygon fill="none" points="476.94,225.86,480.69,205,490.77,223.64,476.94,225.86" style="stroke:#A80036;stroke-width:1.0;"/><!--MD5=[fc0e49ee8ae7627d960283aebb25cc52]
reverse link Operation to Get--><path d="M657.87,478.73 C628.56,497.33 593.48,519.59 570.08,534.45 " fill="none" id="Operation-backto-Get" style="stroke:#A80036;stroke-width:1.0;"/><polygon fill="none" points="654.13,472.81,674.76,468,661.63,484.63,654.13,472.81" style="stroke:#A80036;stroke-width:1.0;"/><!--MD5=[6bc4e6dd12281605d20eb8dcce58a287]
reverse link Operation to Put--><path d="M681.06,484.18 C669.89,498.8 657.56,514.93 647.82,527.68 " fill="none" id="Operation-backto-Put" style="stroke:#A80036;stroke-width:1.0;"/><polygon fill="none" points="675.72,479.64,693.42,468,686.84,488.14,675.72,479.64" style="stroke:#A80036;stroke-width:1.0;"/><!--MD5=[3ac47ddbbd970c7b9eafbcfc13e3cef5]
reverse link Operation to Post--><path d="M713.84,488.02 C714.74,501.58 715.69,516.04 716.46,527.68 " fill="none" id="Operation-backto-Post" style="stroke:#A80036;stroke-width:1.0;"/><polygon fill="none" points="706.85,488.42,712.52,468,720.82,487.5,706.85,488.42" style="stroke:#A80036;stroke-width:1.0;"/><!--MD5=[4cf0f741f798b0e22d7684356de7b772]
reverse link Operation to Delete--><path d="M747.93,482.28 C762.9,497.39 779.72,514.38 792.9,527.68 " fill="none" id="Operation-backto-Delete" style="stroke:#A80036;stroke-width:1.0;"/><polygon fill="none" points="742.89,487.14,733.78,468,752.83,477.28,742.89,487.14" style="stroke:#A80036;stroke-width:1.0;"/><!--MD5=[e32ef1621d665ab837a1ea31f7ba7e3f]
link steps to Node--><path codeLine="34" d="M397.0447,83.6938 C397.285,83.9833 397.5299,84.2782 397.779,84.5783 C398.7757,85.7788 399.8417,87.0629 400.969,88.4208 C403.2235,91.1365 405.7228,94.1472 408.4013,97.3738 C419.115,110.28 432.695,126.64 444.94,141.39 " fill="none" id="steps-to-Node" style="stroke:#A80036;stroke-width:1.0;"/><polygon fill="none" points="450.4,137,457.79,156.86,439.63,145.94,450.4,137" style="stroke:#A80036;stroke-width:1.0;"/><!--MD5=[99ba29706c1b32ac3e55bf61185501d6]
reverse link NodeWithId to functions--><path codeLine="35" d="M494,333.51 C494,344.61 494,356.8575 494,369.0205 C494,370.5408 494,372.0599 494,373.5752 C494,374.3329 494,375.0896 494,375.8451 C494,376.2229 494,376.6003 494,376.9774 " fill="none" id="NodeWithId-backto-functions" style="stroke:#A80036;stroke-width:1.0;"/><polygon fill="none" points="487,333.24,494,313.24,501,333.24,487,333.24" style="stroke:#A80036;stroke-width:1.0;"/><!--MD5=[959af3e9403979cc44c3039258d659b8]
link Execute to Process--><!--MD5=[2a38a5501a1f208665ffef6a9f7144d7]
link Process to Sequence--><!--MD5=[2d38f96b9ff54ea4c63b4b1956e12d6a]
link Execute to NextPage--><!--MD5=[4d7c4fe1fe6c834aec258cfa0ccf4d0b]
link NextPage to Parallel--><!--MD5=[ae406d0dff3108bd7bb216827ab600e3]
link Parallel to Publish--><!--MD5=[03c962fc7d965980134cba553f23585a]
link NextPage to AddContent--><!--MD5=[6c77bae380ce903fa5e406f4a55f41d9]
link AddContent to ForEach--><!--MD5=[2f34797a44f9523a8cd5cd1cb5385db0]
link ForEach to Console--><!--MD5=[c81f128563b8f92a488e4b76419ce814]
@startuml

package api.base {
    interface Base
    interface Leaf
    interface Node
    interface NodeWithId

    Base <|- - Leaf
    Base <|- - Node
    Node <|- - NodeWithId
}

package "api.functions (NodeWithId)" as functions {
    interface Operation
    interface Get extends Operation
    interface Put extends Operation
    interface Post extends Operation
    interface Delete extends Operation
    interface Paginate
}

package "api.steps (Node)" as steps {
    interface Execute
    interface Process
    interface Sequence
    interface NextPage
    interface Parallel
    interface Publish
    interface AddContent
    interface ForEach
    interface Console
}

Node <|-up- steps
NodeWithId <|- - functions

@enduml

PlantUML version 1.2020.26(Mon Dec 21 18:45:07 CET 2020)
(GPL source distribution)
Java Runtime: OpenJDK Runtime Environment
JVM: OpenJDK 64-Bit Server VM
Default Encoding: UTF-8
Language: en
Country: NO
--></g></svg>