<?xml version="1.0" encoding="UTF-8" standalone="no"?><svg xmlns="http://www.w3.org/2000/svg" xmlns:xlink="http://www.w3.org/1999/xlink" contentScriptType="application/ecmascript" contentStyleType="text/css" height="1184px" preserveAspectRatio="none" style="width:1301px;height:1184px;" version="1.1" viewBox="0 0 1301 1184" width="1301px" zoomAndPan="magnify"><defs><filter height="300%" id="frx6b4ac8xu0k" width="300%" x="-1" y="-1"><feGaussianBlur result="blurOut" stdDeviation="2.0"/><feColorMatrix in="blurOut" result="blurOut2" type="matrix" values="0 0 0 0 0 0 0 0 0 0 0 0 0 0 0 0 0 0 .4 0"/><feOffset dx="4.0" dy="4.0" in="blurOut2" result="blurOut3"/><feBlend in="SourceGraphic" in2="blurOut3" mode="normal"/></filter></defs><g><!--MD5=[c10d8cd4c7eec05b7116bf1e77b16279]
class NodeWithId--><rect codeLine="2" fill="#DDDDDD" filter="url(#frx6b4ac8xu0k)" height="48" id="NodeWithId" style="stroke:#A80036;stroke-width:1.5;" width="98" x="348" y="376.5"/><ellipse cx="363" cy="392.5" fill="#B4A7E5" rx="11" ry="11" style="stroke:#A80036;stroke-width:1.0;"/><path d="M359.4277,388.7651 L359.4277,386.6069 L366.8071,386.6069 L366.8071,388.7651 L364.3418,388.7651 L364.3418,396.8418 L366.8071,396.8418 L366.8071,399 L359.4277,399 L359.4277,396.8418 L361.8931,396.8418 L361.8931,388.7651 Z " fill="#000000"/><text fill="#000000" font-family="sans-serif" font-size="12" font-style="italic" lengthAdjust="spacingAndGlyphs" textLength="66" x="377" y="397.0352">NodeWithId</text><line style="stroke:#A80036;stroke-width:1.5;" x1="349" x2="445" y1="408.5" y2="408.5"/><line style="stroke:#A80036;stroke-width:1.5;" x1="349" x2="445" y1="416.5" y2="416.5"/><!--MD5=[cca5d97aaf46870920fae66c9bd85cdd]
class Operation--><rect codeLine="3" fill="#FEFECE" filter="url(#frx6b4ac8xu0k)" height="112.7754" id="Operation" style="stroke:#A80036;stroke-width:1.5;" width="212" x="321" y="491"/><ellipse cx="394.25" cy="507" fill="#B4A7E5" rx="11" ry="11" style="stroke:#A80036;stroke-width:1.0;"/><path d="M390.6777,503.2651 L390.6777,501.1069 L398.0571,501.1069 L398.0571,503.2651 L395.5918,503.2651 L395.5918,511.3418 L398.0571,511.3418 L398.0571,513.5 L390.6777,513.5 L390.6777,511.3418 L393.1431,511.3418 L393.1431,503.2651 Z " fill="#000000"/><text fill="#000000" font-family="sans-serif" font-size="12" font-style="italic" lengthAdjust="spacingAndGlyphs" textLength="57" x="414.75" y="511.5352">Operation</text><line style="stroke:#A80036;stroke-width:1.5;" x1="322" x2="532" y1="523" y2="523"/><text fill="#000000" font-family="sans-serif" font-size="11" lengthAdjust="spacingAndGlyphs" textLength="58" x="327" y="537.6348">String url()</text><text fill="#000000" font-family="sans-serif" font-size="11" lengthAdjust="spacingAndGlyphs" textLength="98" x="327" y="550.5898">Headers headers()</text><text fill="#000000" font-family="sans-serif" font-size="11" lengthAdjust="spacingAndGlyphs" textLength="200" x="327" y="563.5449">List&lt;Validator&gt; responseValidators()</text><text fill="#000000" font-family="sans-serif" font-size="11" lengthAdjust="spacingAndGlyphs" textLength="159" x="327" y="576.5">List&lt;? extends Node&gt; steps()</text><text fill="#000000" font-family="sans-serif" font-size="11" lengthAdjust="spacingAndGlyphs" textLength="163" x="327" y="589.4551">List&lt;String&gt; returnVariables()</text><line style="stroke:#A80036;stroke-width:1.0;" x1="322" x2="532" y1="595.7754" y2="595.7754"/><!--MD5=[8dad76bf7ab6589a2a16aed7e391ed29]
class Get--><rect codeLine="11" fill="#FEFECE" filter="url(#frx6b4ac8xu0k)" height="60.9551" id="Get" style="stroke:#A80036;stroke-width:1.5;" width="226" x="7" y="664"/><ellipse cx="105.75" cy="680" fill="#B4A7E5" rx="11" ry="11" style="stroke:#A80036;stroke-width:1.0;"/><path d="M102.1777,676.2651 L102.1777,674.1069 L109.5571,674.1069 L109.5571,676.2651 L107.0918,676.2651 L107.0918,684.3418 L109.5571,684.3418 L109.5571,686.5 L102.1777,686.5 L102.1777,684.3418 L104.6431,684.3418 L104.6431,676.2651 Z " fill="#000000"/><text fill="#000000" font-family="sans-serif" font-size="12" font-style="italic" lengthAdjust="spacingAndGlyphs" textLength="20" x="126.25" y="684.5352">Get</text><line style="stroke:#A80036;stroke-width:1.5;" x1="8" x2="232" y1="696" y2="696"/><line style="stroke:#A80036;stroke-width:1.5;" x1="8" x2="232" y1="704" y2="704"/><text fill="#000000" font-family="sans-serif" font-size="11" lengthAdjust="spacingAndGlyphs" textLength="214" x="13" y="718.6348">List&lt;HttpStatusRetryWhile&gt; retryWhile()</text><!--MD5=[80913b1cc667c5997af01db625a44293]
class Put--><rect codeLine="14" fill="#FEFECE" filter="url(#frx6b4ac8xu0k)" height="60.9551" id="Put" style="stroke:#A80036;stroke-width:1.5;" width="176" x="145" y="785"/><ellipse cx="219.75" cy="801" fill="#B4A7E5" rx="11" ry="11" style="stroke:#A80036;stroke-width:1.0;"/><path d="M216.1777,797.2651 L216.1777,795.1069 L223.5571,795.1069 L223.5571,797.2651 L221.0918,797.2651 L221.0918,805.3418 L223.5571,805.3418 L223.5571,807.5 L216.1777,807.5 L216.1777,805.3418 L218.6431,805.3418 L218.6431,797.2651 Z " fill="#000000"/><text fill="#000000" font-family="sans-serif" font-size="12" font-style="italic" lengthAdjust="spacingAndGlyphs" textLength="18" x="240.25" y="805.5352">Put</text><line style="stroke:#A80036;stroke-width:1.5;" x1="146" x2="320" y1="817" y2="817"/><line style="stroke:#A80036;stroke-width:1.5;" x1="146" x2="320" y1="825" y2="825"/><text fill="#000000" font-family="sans-serif" font-size="11" lengthAdjust="spacingAndGlyphs" textLength="164" x="151" y="839.6348">BodyPublisher bodyPublisher()</text><!--MD5=[9bb0bdd047fba1a3c8d48282c35b4537]
class Post--><rect codeLine="17" fill="#FEFECE" filter="url(#frx6b4ac8xu0k)" height="60.9551" id="Post" style="stroke:#A80036;stroke-width:1.5;" width="176" x="356" y="785"/><ellipse cx="427.75" cy="801" fill="#B4A7E5" rx="11" ry="11" style="stroke:#A80036;stroke-width:1.0;"/><path d="M424.1777,797.2651 L424.1777,795.1069 L431.5571,795.1069 L431.5571,797.2651 L429.0918,797.2651 L429.0918,805.3418 L431.5571,805.3418 L431.5571,807.5 L424.1777,807.5 L424.1777,805.3418 L426.6431,805.3418 L426.6431,797.2651 Z " fill="#000000"/><text fill="#000000" font-family="sans-serif" font-size="12" font-style="italic" lengthAdjust="spacingAndGlyphs" textLength="24" x="448.25" y="805.5352">Post</text><line style="stroke:#A80036;stroke-width:1.5;" x1="357" x2="531" y1="817" y2="817"/><line style="stroke:#A80036;stroke-width:1.5;" x1="357" x2="531" y1="825" y2="825"/><text fill="#000000" font-family="sans-serif" font-size="11" lengthAdjust="spacingAndGlyphs" textLength="164" x="362" y="839.6348">BodyPublisher bodyPublisher()</text><!--MD5=[9d82e49cffacc5184d1149ac06d87e9b]
class Delete--><rect codeLine="20" fill="#FEFECE" filter="url(#frx6b4ac8xu0k)" height="48" id="Delete" style="stroke:#A80036;stroke-width:1.5;" width="69" x="480.5" y="670.5"/><ellipse cx="495.5" cy="686.5" fill="#B4A7E5" rx="11" ry="11" style="stroke:#A80036;stroke-width:1.0;"/><path d="M491.9277,682.7651 L491.9277,680.6069 L499.3071,680.6069 L499.3071,682.7651 L496.8418,682.7651 L496.8418,690.8418 L499.3071,690.8418 L499.3071,693 L491.9277,693 L491.9277,690.8418 L494.3931,690.8418 L494.3931,682.7651 Z " fill="#000000"/><text fill="#000000" font-family="sans-serif" font-size="12" font-style="italic" lengthAdjust="spacingAndGlyphs" textLength="37" x="509.5" y="691.0352">Delete</text><line style="stroke:#A80036;stroke-width:1.5;" x1="481.5" x2="548.5" y1="702.5" y2="702.5"/><line style="stroke:#A80036;stroke-width:1.5;" x1="481.5" x2="548.5" y1="710.5" y2="710.5"/><!--MD5=[af3e6fd19390042ea5ac651ad4dbd16c]
class FlowNodeWithId--><rect codeLine="28" fill="#DDDDDD" filter="url(#frx6b4ac8xu0k)" height="48" id="FlowNodeWithId" style="stroke:#A80036;stroke-width:1.5;" width="123" x="426.5" y="906"/><ellipse cx="441.5" cy="922" fill="#A9DCDF" rx="11" ry="11" style="stroke:#A80036;stroke-width:1.0;"/><path d="M441.3633,917.3481 L440.2095,922.4199 L442.5254,922.4199 Z M439.8691,915.1069 L442.8657,915.1069 L446.2109,927.5 L443.7622,927.5 L442.9985,924.437 L439.7197,924.437 L438.9727,927.5 L436.5239,927.5 Z " fill="#000000"/><text fill="#000000" font-family="sans-serif" font-size="12" font-style="italic" lengthAdjust="spacingAndGlyphs" textLength="91" x="455.5" y="926.5352">FlowNodeWithId</text><line style="stroke:#A80036;stroke-width:1.5;" x1="427.5" x2="548.5" y1="938" y2="938"/><line style="stroke:#A80036;stroke-width:1.5;" x1="427.5" x2="548.5" y1="946" y2="946"/><!--MD5=[94594dc88c07f8db7e16d0b2dacc6ec9]
class OperationNode--><rect codeLine="29" fill="#FEFECE" filter="url(#frx6b4ac8xu0k)" height="48" id="OperationNode" style="stroke:#A80036;stroke-width:1.5;" width="181" x="454.5" y="1014"/><ellipse cx="469.5" cy="1030" fill="#A9DCDF" rx="11" ry="11" style="stroke:#A80036;stroke-width:1.0;"/><path d="M469.3633,1025.3481 L468.2095,1030.4199 L470.5254,1030.4199 Z M467.8691,1023.1069 L470.8657,1023.1069 L474.2109,1035.5 L471.7622,1035.5 L470.9985,1032.437 L467.7197,1032.437 L466.9727,1035.5 L464.5239,1035.5 Z " fill="#000000"/><text fill="#000000" font-family="sans-serif" font-size="12" font-style="italic" lengthAdjust="spacingAndGlyphs" textLength="88" x="483.5" y="1034.5352">OperationNode</text><rect fill="#FFFFFF" height="16.1328" style="stroke:#000000;stroke-width:1.0;stroke-dasharray:2.0,2.0;" width="59" x="579.5" y="1011"/><text fill="#000000" font-family="sans-serif" font-size="12" font-style="italic" lengthAdjust="spacingAndGlyphs" textLength="57" x="580.5" y="1023.6016">Operation</text><line style="stroke:#A80036;stroke-width:1.5;" x1="455.5" x2="634.5" y1="1046" y2="1046"/><line style="stroke:#A80036;stroke-width:1.5;" x1="455.5" x2="634.5" y1="1054" y2="1054"/><!--MD5=[d388fb292d313757316699954363a711]
class GetNode--><rect codeLine="30" fill="#FEFECE" filter="url(#frx6b4ac8xu0k)" height="48" id="GetNode" style="stroke:#A80036;stroke-width:1.5;" width="107" x="279.5" y="1122"/><ellipse cx="294.5" cy="1138" fill="#ADD1B2" rx="11" ry="11" style="stroke:#A80036;stroke-width:1.0;"/><path d="M296.9731,1144.1431 Q296.3921,1144.4419 295.7529,1144.5913 Q295.1138,1144.7407 294.4082,1144.7407 Q291.9014,1144.7407 290.5815,1143.0889 Q289.2617,1141.437 289.2617,1138.3159 Q289.2617,1135.1865 290.5815,1133.5347 Q291.9014,1131.8828 294.4082,1131.8828 Q295.1138,1131.8828 295.7612,1132.0322 Q296.4087,1132.1816 296.9731,1132.4805 L296.9731,1135.2031 Q296.3423,1134.6221 295.7488,1134.3523 Q295.1553,1134.0825 294.5244,1134.0825 Q293.1797,1134.0825 292.4949,1135.1492 Q291.8101,1136.2158 291.8101,1138.3159 Q291.8101,1140.4077 292.4949,1141.4744 Q293.1797,1142.541 294.5244,1142.541 Q295.1553,1142.541 295.7488,1142.2712 Q296.3423,1142.0015 296.9731,1141.4204 Z " fill="#000000"/><text fill="#000000" font-family="sans-serif" font-size="12" lengthAdjust="spacingAndGlyphs" textLength="51" x="308.5" y="1142.5352">GetNode</text><rect fill="#FFFFFF" height="16.1328" style="stroke:#000000;stroke-width:1.0;stroke-dasharray:2.0,2.0;" width="22" x="367.5" y="1119"/><text fill="#000000" font-family="sans-serif" font-size="12" font-style="italic" lengthAdjust="spacingAndGlyphs" textLength="20" x="368.5" y="1131.6016">Get</text><line style="stroke:#A80036;stroke-width:1.5;" x1="280.5" x2="385.5" y1="1154" y2="1154"/><line style="stroke:#A80036;stroke-width:1.5;" x1="280.5" x2="385.5" y1="1162" y2="1162"/><!--MD5=[bab8a29270e2e21ddf0a843dad9509c3]
class PutNode--><rect codeLine="31" fill="#FEFECE" filter="url(#frx6b4ac8xu0k)" height="48" id="PutNode" style="stroke:#A80036;stroke-width:1.5;" width="103" x="421.5" y="1122"/><ellipse cx="436.5" cy="1138" fill="#ADD1B2" rx="11" ry="11" style="stroke:#A80036;stroke-width:1.0;"/><path d="M438.9731,1144.1431 Q438.3921,1144.4419 437.7529,1144.5913 Q437.1138,1144.7407 436.4082,1144.7407 Q433.9014,1144.7407 432.5815,1143.0889 Q431.2617,1141.437 431.2617,1138.3159 Q431.2617,1135.1865 432.5815,1133.5347 Q433.9014,1131.8828 436.4082,1131.8828 Q437.1138,1131.8828 437.7612,1132.0322 Q438.4087,1132.1816 438.9731,1132.4805 L438.9731,1135.2031 Q438.3423,1134.6221 437.7488,1134.3523 Q437.1553,1134.0825 436.5244,1134.0825 Q435.1797,1134.0825 434.4949,1135.1492 Q433.8101,1136.2158 433.8101,1138.3159 Q433.8101,1140.4077 434.4949,1141.4744 Q435.1797,1142.541 436.5244,1142.541 Q437.1553,1142.541 437.7488,1142.2712 Q438.3423,1142.0015 438.9731,1141.4204 Z " fill="#000000"/><text fill="#000000" font-family="sans-serif" font-size="12" lengthAdjust="spacingAndGlyphs" textLength="49" x="450.5" y="1142.5352">PutNode</text><rect fill="#FFFFFF" height="16.1328" style="stroke:#000000;stroke-width:1.0;stroke-dasharray:2.0,2.0;" width="20" x="507.5" y="1119"/><text fill="#000000" font-family="sans-serif" font-size="12" font-style="italic" lengthAdjust="spacingAndGlyphs" textLength="18" x="508.5" y="1131.6016">Put</text><line style="stroke:#A80036;stroke-width:1.5;" x1="422.5" x2="523.5" y1="1154" y2="1154"/><line style="stroke:#A80036;stroke-width:1.5;" x1="422.5" x2="523.5" y1="1162" y2="1162"/><!--MD5=[dcc98ac6b3bb825b3eb66363923a36b0]
class PostNode--><rect codeLine="32" fill="#FEFECE" filter="url(#frx6b4ac8xu0k)" height="48" id="PostNode" style="stroke:#A80036;stroke-width:1.5;" width="115" x="559.5" y="1122"/><ellipse cx="574.5" cy="1138" fill="#ADD1B2" rx="11" ry="11" style="stroke:#A80036;stroke-width:1.0;"/><path d="M576.9731,1144.1431 Q576.3921,1144.4419 575.7529,1144.5913 Q575.1138,1144.7407 574.4082,1144.7407 Q571.9014,1144.7407 570.5815,1143.0889 Q569.2617,1141.437 569.2617,1138.3159 Q569.2617,1135.1865 570.5815,1133.5347 Q571.9014,1131.8828 574.4082,1131.8828 Q575.1138,1131.8828 575.7612,1132.0322 Q576.4087,1132.1816 576.9731,1132.4805 L576.9731,1135.2031 Q576.3423,1134.6221 575.7488,1134.3523 Q575.1553,1134.0825 574.5244,1134.0825 Q573.1797,1134.0825 572.4949,1135.1492 Q571.8101,1136.2158 571.8101,1138.3159 Q571.8101,1140.4077 572.4949,1141.4744 Q573.1797,1142.541 574.5244,1142.541 Q575.1553,1142.541 575.7488,1142.2712 Q576.3423,1142.0015 576.9731,1141.4204 Z " fill="#000000"/><text fill="#000000" font-family="sans-serif" font-size="12" lengthAdjust="spacingAndGlyphs" textLength="55" x="588.5" y="1142.5352">PostNode</text><rect fill="#FFFFFF" height="16.1328" style="stroke:#000000;stroke-width:1.0;stroke-dasharray:2.0,2.0;" width="26" x="651.5" y="1119"/><text fill="#000000" font-family="sans-serif" font-size="12" font-style="italic" lengthAdjust="spacingAndGlyphs" textLength="24" x="652.5" y="1131.6016">Post</text><line style="stroke:#A80036;stroke-width:1.5;" x1="560.5" x2="673.5" y1="1154" y2="1154"/><line style="stroke:#A80036;stroke-width:1.5;" x1="560.5" x2="673.5" y1="1162" y2="1162"/><!--MD5=[edd7c408da47327d74102522be4b569d]
class DeleteNode--><rect codeLine="33" fill="#FEFECE" filter="url(#frx6b4ac8xu0k)" height="48" id="DeleteNode" style="stroke:#A80036;stroke-width:1.5;" width="141" x="709.5" y="1122"/><ellipse cx="724.5" cy="1138" fill="#ADD1B2" rx="11" ry="11" style="stroke:#A80036;stroke-width:1.0;"/><path d="M726.9731,1144.1431 Q726.3921,1144.4419 725.7529,1144.5913 Q725.1138,1144.7407 724.4082,1144.7407 Q721.9014,1144.7407 720.5815,1143.0889 Q719.2617,1141.437 719.2617,1138.3159 Q719.2617,1135.1865 720.5815,1133.5347 Q721.9014,1131.8828 724.4082,1131.8828 Q725.1138,1131.8828 725.7612,1132.0322 Q726.4087,1132.1816 726.9731,1132.4805 L726.9731,1135.2031 Q726.3423,1134.6221 725.7488,1134.3523 Q725.1553,1134.0825 724.5244,1134.0825 Q723.1797,1134.0825 722.4949,1135.1492 Q721.8101,1136.2158 721.8101,1138.3159 Q721.8101,1140.4077 722.4949,1141.4744 Q723.1797,1142.541 724.5244,1142.541 Q725.1553,1142.541 725.7488,1142.2712 Q726.3423,1142.0015 726.9731,1141.4204 Z " fill="#000000"/><text fill="#000000" font-family="sans-serif" font-size="12" lengthAdjust="spacingAndGlyphs" textLength="68" x="738.5" y="1142.5352">DeleteNode</text><rect fill="#FFFFFF" height="16.1328" style="stroke:#000000;stroke-width:1.0;stroke-dasharray:2.0,2.0;" width="39" x="814.5" y="1119"/><text fill="#000000" font-family="sans-serif" font-size="12" font-style="italic" lengthAdjust="spacingAndGlyphs" textLength="37" x="815.5" y="1131.6016">Delete</text><line style="stroke:#A80036;stroke-width:1.5;" x1="710.5" x2="849.5" y1="1154" y2="1154"/><line style="stroke:#A80036;stroke-width:1.5;" x1="710.5" x2="849.5" y1="1162" y2="1162"/><!--MD5=[296de3889a05118a3f3c8dc893cff4b7]
class NodeWithIdBuilder--><rect codeLine="37" fill="#DDDDDD" filter="url(#frx6b4ac8xu0k)" height="48" id="NodeWithIdBuilder" style="stroke:#A80036;stroke-width:1.5;" width="138" x="721" y="7"/><ellipse cx="736" cy="23" fill="#A9DCDF" rx="11" ry="11" style="stroke:#A80036;stroke-width:1.0;"/><path d="M735.8633,18.3481 L734.7095,23.4199 L737.0254,23.4199 Z M734.3691,16.1069 L737.3657,16.1069 L740.7109,28.5 L738.2622,28.5 L737.4985,25.437 L734.2197,25.437 L733.4727,28.5 L731.0239,28.5 Z " fill="#000000"/><text fill="#000000" font-family="sans-serif" font-size="12" font-style="italic" lengthAdjust="spacingAndGlyphs" textLength="106" x="750" y="27.5352">NodeWithIdBuilder</text><line style="stroke:#A80036;stroke-width:1.5;" x1="722" x2="858" y1="39" y2="39"/><line style="stroke:#A80036;stroke-width:1.5;" x1="722" x2="858" y1="47" y2="47"/><!--MD5=[f8e51844424802ffc2cb63c5ede17012]
class OperationBuilder--><rect codeLine="38" fill="#FEFECE" filter="url(#frx6b4ac8xu0k)" height="73.9102" id="OperationBuilder" style="stroke:#A80036;stroke-width:1.5;" width="304" x="638" y="115"/><ellipse cx="653" cy="131" fill="#A9DCDF" rx="11" ry="11" style="stroke:#A80036;stroke-width:1.0;"/><path d="M652.8633,126.3481 L651.7095,131.4199 L654.0254,131.4199 Z M651.3691,124.1069 L654.3657,124.1069 L657.7109,136.5 L655.2622,136.5 L654.4985,133.437 L651.2197,133.437 L650.4727,136.5 L648.0239,136.5 Z " fill="#000000"/><text fill="#000000" font-family="sans-serif" font-size="12" font-style="italic" lengthAdjust="spacingAndGlyphs" textLength="97" x="667" y="135.5352">OperationBuilder</text><rect fill="#FFFFFF" height="16.1328" style="stroke:#000000;stroke-width:1.0;stroke-dasharray:2.0,2.0;" width="173" x="772" y="112"/><text fill="#000000" font-family="sans-serif" font-size="12" font-style="italic" lengthAdjust="spacingAndGlyphs" textLength="171" x="773" y="124.6016">TYPE extends OperationNode</text><line style="stroke:#A80036;stroke-width:1.5;" x1="639" x2="941" y1="147" y2="147"/><text fill="#000000" font-family="sans-serif" font-size="11" lengthAdjust="spacingAndGlyphs" textLength="91" x="644" y="161.6348">this(BuilderType)</text><line style="stroke:#A80036;stroke-width:1.0;" x1="639" x2="941" y1="167.9551" y2="167.9551"/><text fill="#000000" font-family="sans-serif" font-size="11" lengthAdjust="spacingAndGlyphs" textLength="64" x="644" y="182.5898">TYPE build()</text><!--MD5=[4da9805461112fecd032df5dc92a4cd7]
class GetBuilder--><rect codeLine="43" fill="#FEFECE" filter="url(#frx6b4ac8xu0k)" height="60.9551" id="GetBuilder" style="stroke:#A80036;stroke-width:1.5;" width="135" x="552.5" y="249"/><ellipse cx="586.85" cy="265" fill="#ADD1B2" rx="11" ry="11" style="stroke:#A80036;stroke-width:1.0;"/><path d="M589.3231,271.1431 Q588.7421,271.4419 588.1029,271.5913 Q587.4638,271.7407 586.7582,271.7407 Q584.2514,271.7407 582.9315,270.0889 Q581.6117,268.437 581.6117,265.3159 Q581.6117,262.1865 582.9315,260.5347 Q584.2514,258.8828 586.7582,258.8828 Q587.4638,258.8828 588.1112,259.0322 Q588.7587,259.1816 589.3231,259.4805 L589.3231,262.2031 Q588.6923,261.6221 588.0988,261.3523 Q587.5053,261.0825 586.8744,261.0825 Q585.5297,261.0825 584.8449,262.1492 Q584.1601,263.2158 584.1601,265.3159 Q584.1601,267.4077 584.8449,268.4744 Q585.5297,269.541 586.8744,269.541 Q587.5053,269.541 588.0988,269.2712 Q588.6923,269.0015 589.3231,268.4204 Z " fill="#000000"/><text fill="#000000" font-family="sans-serif" font-size="12" lengthAdjust="spacingAndGlyphs" textLength="60" x="605.15" y="269.5352">GetBuilder</text><line style="stroke:#A80036;stroke-width:1.5;" x1="553.5" x2="686.5" y1="281" y2="281"/><line style="stroke:#A80036;stroke-width:1.5;" x1="553.5" x2="686.5" y1="289" y2="289"/><text fill="#000000" font-family="sans-serif" font-size="11" lengthAdjust="spacingAndGlyphs" textLength="123" x="558.5" y="303.6348">super(BuilderType.Get)</text><!--MD5=[ec252929bb907565a7260e61fb473cac]
class PutBuilder--><rect codeLine="46" fill="#FEFECE" filter="url(#frx6b4ac8xu0k)" height="60.9551" id="PutBuilder" style="stroke:#A80036;stroke-width:1.5;" width="134" x="723" y="249"/><ellipse cx="757.8" cy="265" fill="#ADD1B2" rx="11" ry="11" style="stroke:#A80036;stroke-width:1.0;"/><path d="M760.2731,271.1431 Q759.6921,271.4419 759.0529,271.5913 Q758.4138,271.7407 757.7082,271.7407 Q755.2014,271.7407 753.8815,270.0889 Q752.5617,268.437 752.5617,265.3159 Q752.5617,262.1865 753.8815,260.5347 Q755.2014,258.8828 757.7082,258.8828 Q758.4138,258.8828 759.0612,259.0322 Q759.7087,259.1816 760.2731,259.4805 L760.2731,262.2031 Q759.6423,261.6221 759.0488,261.3523 Q758.4553,261.0825 757.8244,261.0825 Q756.4797,261.0825 755.7949,262.1492 Q755.1101,263.2158 755.1101,265.3159 Q755.1101,267.4077 755.7949,268.4744 Q756.4797,269.541 757.8244,269.541 Q758.4553,269.541 759.0488,269.2712 Q759.6423,269.0015 760.2731,268.4204 Z " fill="#000000"/><text fill="#000000" font-family="sans-serif" font-size="12" lengthAdjust="spacingAndGlyphs" textLength="58" x="776.2" y="269.5352">PutBuilder</text><line style="stroke:#A80036;stroke-width:1.5;" x1="724" x2="856" y1="281" y2="281"/><line style="stroke:#A80036;stroke-width:1.5;" x1="724" x2="856" y1="289" y2="289"/><text fill="#000000" font-family="sans-serif" font-size="11" lengthAdjust="spacingAndGlyphs" textLength="122" x="729" y="303.6348">super(BuilderType.Put)</text><!--MD5=[4e7a6db77e73f51d79377ec92e0d6764]
class PostBuilder--><rect codeLine="49" fill="#FEFECE" filter="url(#frx6b4ac8xu0k)" height="60.9551" id="PostBuilder" style="stroke:#A80036;stroke-width:1.5;" width="140" x="892" y="249"/><ellipse cx="926.8" cy="265" fill="#ADD1B2" rx="11" ry="11" style="stroke:#A80036;stroke-width:1.0;"/><path d="M929.2731,271.1431 Q928.6921,271.4419 928.0529,271.5913 Q927.4138,271.7407 926.7082,271.7407 Q924.2014,271.7407 922.8815,270.0889 Q921.5617,268.437 921.5617,265.3159 Q921.5617,262.1865 922.8815,260.5347 Q924.2014,258.8828 926.7082,258.8828 Q927.4138,258.8828 928.0612,259.0322 Q928.7087,259.1816 929.2731,259.4805 L929.2731,262.2031 Q928.6423,261.6221 928.0488,261.3523 Q927.4553,261.0825 926.8244,261.0825 Q925.4797,261.0825 924.7949,262.1492 Q924.1101,263.2158 924.1101,265.3159 Q924.1101,267.4077 924.7949,268.4744 Q925.4797,269.541 926.8244,269.541 Q927.4553,269.541 928.0488,269.2712 Q928.6423,269.0015 929.2731,268.4204 Z " fill="#000000"/><text fill="#000000" font-family="sans-serif" font-size="12" lengthAdjust="spacingAndGlyphs" textLength="64" x="945.2" y="269.5352">PostBuilder</text><line style="stroke:#A80036;stroke-width:1.5;" x1="893" x2="1031" y1="281" y2="281"/><line style="stroke:#A80036;stroke-width:1.5;" x1="893" x2="1031" y1="289" y2="289"/><text fill="#000000" font-family="sans-serif" font-size="11" lengthAdjust="spacingAndGlyphs" textLength="128" x="898" y="303.6348">super(BuilderType.Post)</text><!--MD5=[9a865a4d4320b83bcb593deda68566a1]
class DeleteBuilder--><rect codeLine="52" fill="#FEFECE" filter="url(#frx6b4ac8xu0k)" height="60.9551" id="DeleteBuilder" style="stroke:#A80036;stroke-width:1.5;" width="150" x="1067" y="249"/><ellipse cx="1100.45" cy="265" fill="#ADD1B2" rx="11" ry="11" style="stroke:#A80036;stroke-width:1.0;"/><path d="M1102.9231,271.1431 Q1102.3421,271.4419 1101.7029,271.5913 Q1101.0638,271.7407 1100.3582,271.7407 Q1097.8514,271.7407 1096.5315,270.0889 Q1095.2117,268.437 1095.2117,265.3159 Q1095.2117,262.1865 1096.5315,260.5347 Q1097.8514,258.8828 1100.3582,258.8828 Q1101.0638,258.8828 1101.7112,259.0322 Q1102.3587,259.1816 1102.9231,259.4805 L1102.9231,262.2031 Q1102.2923,261.6221 1101.6988,261.3523 Q1101.1053,261.0825 1100.4744,261.0825 Q1099.1297,261.0825 1098.4449,262.1492 Q1097.7601,263.2158 1097.7601,265.3159 Q1097.7601,267.4077 1098.4449,268.4744 Q1099.1297,269.541 1100.4744,269.541 Q1101.1053,269.541 1101.6988,269.2712 Q1102.2923,269.0015 1102.9231,268.4204 Z " fill="#000000"/><text fill="#000000" font-family="sans-serif" font-size="12" lengthAdjust="spacingAndGlyphs" textLength="77" x="1118.55" y="269.5352">DeleteBuilder</text><line style="stroke:#A80036;stroke-width:1.5;" x1="1068" x2="1216" y1="281" y2="281"/><line style="stroke:#A80036;stroke-width:1.5;" x1="1068" x2="1216" y1="289" y2="289"/><text fill="#000000" font-family="sans-serif" font-size="11" lengthAdjust="spacingAndGlyphs" textLength="138" x="1073" y="303.6348">super(BuilderType.Delete)</text><!--MD5=[f2f72a8a22143fdabb500f8432b91e61]
class AbstractNodeHandler--><rect codeLine="63" fill="#DDDDDD" filter="url(#frx6b4ac8xu0k)" height="60.9551" id="AbstractNodeHandler" style="stroke:#A80036;stroke-width:1.5;" width="301" x="595.5" y="370"/><ellipse cx="679.25" cy="386" fill="#A9DCDF" rx="11" ry="11" style="stroke:#A80036;stroke-width:1.0;"/><path d="M679.1133,381.3481 L677.9595,386.4199 L680.2754,386.4199 Z M677.6191,379.1069 L680.6157,379.1069 L683.9609,391.5 L681.5122,391.5 L680.7485,388.437 L677.4697,388.437 L676.7227,391.5 L674.2739,391.5 Z " fill="#000000"/><text fill="#000000" font-family="sans-serif" font-size="12" font-style="italic" lengthAdjust="spacingAndGlyphs" textLength="125" x="699.75" y="390.5352">AbstractNodeHandler</text><line style="stroke:#A80036;stroke-width:1.5;" x1="596.5" x2="895.5" y1="402" y2="402"/><line style="stroke:#A80036;stroke-width:1.5;" x1="596.5" x2="895.5" y1="410" y2="410"/><text fill="#000000" font-family="sans-serif" font-size="11" lengthAdjust="spacingAndGlyphs" textLength="289" x="601.5" y="424.6348">ExecutionContext execute(ExecutionContext context)</text><!--MD5=[ae82d90ea9f28f9a75f5a462d4509c47]
class OperationHandler--><rect codeLine="66" fill="#FEFECE" filter="url(#frx6b4ac8xu0k)" height="60.9551" id="OperationHandler" style="stroke:#A80036;stroke-width:1.5;" width="279" x="606.5" y="517"/><ellipse cx="621.5" cy="533" fill="#A9DCDF" rx="11" ry="11" style="stroke:#A80036;stroke-width:1.0;"/><path d="M621.3633,528.3481 L620.2095,533.4199 L622.5254,533.4199 Z M619.8691,526.1069 L622.8657,526.1069 L626.2109,538.5 L623.7622,538.5 L622.9985,535.437 L619.7197,535.437 L618.9727,538.5 L616.5239,538.5 Z " fill="#000000"/><text fill="#000000" font-family="sans-serif" font-size="12" font-style="italic" lengthAdjust="spacingAndGlyphs" textLength="103" x="635.5" y="537.5352">OperationHandler</text><rect fill="#FFFFFF" height="16.1328" style="stroke:#000000;stroke-width:1.0;stroke-dasharray:2.0,2.0;" width="142" x="746.5" y="514"/><text fill="#000000" font-family="sans-serif" font-size="12" font-style="italic" lengthAdjust="spacingAndGlyphs" textLength="140" x="747.5" y="526.6016">TYPE extends Operation</text><line style="stroke:#A80036;stroke-width:1.5;" x1="607.5" x2="884.5" y1="549" y2="549"/><line style="stroke:#A80036;stroke-width:1.5;" x1="607.5" x2="884.5" y1="557" y2="557"/><text fill="#000000" font-family="sans-serif" font-size="11" lengthAdjust="spacingAndGlyphs" textLength="54" x="612.5" y="571.6348">this(TYPE)</text><!--MD5=[b9b8c6612922766dbf3276cb0fc8b2c2]
class GetHandler--><rect codeLine="69" fill="#FEFECE" filter="url(#frx6b4ac8xu0k)" height="60.9551" id="GetHandler" style="stroke:#A80036;stroke-width:1.5;" width="122" x="656" y="664"/><ellipse cx="671" cy="680" fill="#ADD1B2" rx="11" ry="11" style="stroke:#A80036;stroke-width:1.0;"/><path d="M673.4731,686.1431 Q672.8921,686.4419 672.2529,686.5913 Q671.6138,686.7407 670.9082,686.7407 Q668.4014,686.7407 667.0815,685.0889 Q665.7617,683.437 665.7617,680.3159 Q665.7617,677.1865 667.0815,675.5347 Q668.4014,673.8828 670.9082,673.8828 Q671.6138,673.8828 672.2612,674.0322 Q672.9087,674.1816 673.4731,674.4805 L673.4731,677.2031 Q672.8423,676.6221 672.2488,676.3523 Q671.6553,676.0825 671.0244,676.0825 Q669.6797,676.0825 668.9949,677.1492 Q668.3101,678.2158 668.3101,680.3159 Q668.3101,682.4077 668.9949,683.4744 Q669.6797,684.541 671.0244,684.541 Q671.6553,684.541 672.2488,684.2712 Q672.8423,684.0015 673.4731,683.4204 Z " fill="#000000"/><text fill="#000000" font-family="sans-serif" font-size="12" lengthAdjust="spacingAndGlyphs" textLength="66" x="685" y="684.5352">GetHandler</text><rect fill="#FFFFFF" height="16.1328" style="stroke:#000000;stroke-width:1.0;stroke-dasharray:2.0,2.0;" width="22" x="759" y="661"/><text fill="#000000" font-family="sans-serif" font-size="12" font-style="italic" lengthAdjust="spacingAndGlyphs" textLength="20" x="760" y="673.6016">Get</text><line style="stroke:#A80036;stroke-width:1.5;" x1="657" x2="777" y1="696" y2="696"/><line style="stroke:#A80036;stroke-width:1.5;" x1="657" x2="777" y1="704" y2="704"/><text fill="#000000" font-family="sans-serif" font-size="11" lengthAdjust="spacingAndGlyphs" textLength="57" x="662" y="718.6348">super(Get)</text><!--MD5=[2aa51627f450c97f6956bb869805adbb]
class PutHandler--><rect codeLine="72" fill="#FEFECE" filter="url(#frx6b4ac8xu0k)" height="60.9551" id="PutHandler" style="stroke:#A80036;stroke-width:1.5;" width="118" x="813" y="664"/><ellipse cx="828" cy="680" fill="#ADD1B2" rx="11" ry="11" style="stroke:#A80036;stroke-width:1.0;"/><path d="M830.4731,686.1431 Q829.8921,686.4419 829.2529,686.5913 Q828.6138,686.7407 827.9082,686.7407 Q825.4014,686.7407 824.0815,685.0889 Q822.7617,683.437 822.7617,680.3159 Q822.7617,677.1865 824.0815,675.5347 Q825.4014,673.8828 827.9082,673.8828 Q828.6138,673.8828 829.2612,674.0322 Q829.9087,674.1816 830.4731,674.4805 L830.4731,677.2031 Q829.8423,676.6221 829.2488,676.3523 Q828.6553,676.0825 828.0244,676.0825 Q826.6797,676.0825 825.9949,677.1492 Q825.3101,678.2158 825.3101,680.3159 Q825.3101,682.4077 825.9949,683.4744 Q826.6797,684.541 828.0244,684.541 Q828.6553,684.541 829.2488,684.2712 Q829.8423,684.0015 830.4731,683.4204 Z " fill="#000000"/><text fill="#000000" font-family="sans-serif" font-size="12" lengthAdjust="spacingAndGlyphs" textLength="64" x="842" y="684.5352">PutHandler</text><rect fill="#FFFFFF" height="16.1328" style="stroke:#000000;stroke-width:1.0;stroke-dasharray:2.0,2.0;" width="20" x="914" y="661"/><text fill="#000000" font-family="sans-serif" font-size="12" font-style="italic" lengthAdjust="spacingAndGlyphs" textLength="18" x="915" y="673.6016">Put</text><line style="stroke:#A80036;stroke-width:1.5;" x1="814" x2="930" y1="696" y2="696"/><line style="stroke:#A80036;stroke-width:1.5;" x1="814" x2="930" y1="704" y2="704"/><text fill="#000000" font-family="sans-serif" font-size="11" lengthAdjust="spacingAndGlyphs" textLength="56" x="819" y="718.6348">super(Put)</text><!--MD5=[941f685fbd5779312ddc37155155c671]
class PostHandler--><rect codeLine="75" fill="#FEFECE" filter="url(#frx6b4ac8xu0k)" height="60.9551" id="PostHandler" style="stroke:#A80036;stroke-width:1.5;" width="130" x="966" y="664"/><ellipse cx="981" cy="680" fill="#ADD1B2" rx="11" ry="11" style="stroke:#A80036;stroke-width:1.0;"/><path d="M983.4731,686.1431 Q982.8921,686.4419 982.2529,686.5913 Q981.6138,686.7407 980.9082,686.7407 Q978.4014,686.7407 977.0815,685.0889 Q975.7617,683.437 975.7617,680.3159 Q975.7617,677.1865 977.0815,675.5347 Q978.4014,673.8828 980.9082,673.8828 Q981.6138,673.8828 982.2612,674.0322 Q982.9087,674.1816 983.4731,674.4805 L983.4731,677.2031 Q982.8423,676.6221 982.2488,676.3523 Q981.6553,676.0825 981.0244,676.0825 Q979.6797,676.0825 978.9949,677.1492 Q978.3101,678.2158 978.3101,680.3159 Q978.3101,682.4077 978.9949,683.4744 Q979.6797,684.541 981.0244,684.541 Q981.6553,684.541 982.2488,684.2712 Q982.8423,684.0015 983.4731,683.4204 Z " fill="#000000"/><text fill="#000000" font-family="sans-serif" font-size="12" lengthAdjust="spacingAndGlyphs" textLength="70" x="995" y="684.5352">PostHandler</text><rect fill="#FFFFFF" height="16.1328" style="stroke:#000000;stroke-width:1.0;stroke-dasharray:2.0,2.0;" width="26" x="1073" y="661"/><text fill="#000000" font-family="sans-serif" font-size="12" font-style="italic" lengthAdjust="spacingAndGlyphs" textLength="24" x="1074" y="673.6016">Post</text><line style="stroke:#A80036;stroke-width:1.5;" x1="967" x2="1095" y1="696" y2="696"/><line style="stroke:#A80036;stroke-width:1.5;" x1="967" x2="1095" y1="704" y2="704"/><text fill="#000000" font-family="sans-serif" font-size="11" lengthAdjust="spacingAndGlyphs" textLength="62" x="972" y="718.6348">super(Post)</text><!--MD5=[c0f772dd02568181615dc125a62b0b36]
class DeleteHandler--><rect codeLine="78" fill="#FEFECE" filter="url(#frx6b4ac8xu0k)" height="60.9551" id="DeleteHandler" style="stroke:#A80036;stroke-width:1.5;" width="156" x="1131" y="664"/><ellipse cx="1146" cy="680" fill="#ADD1B2" rx="11" ry="11" style="stroke:#A80036;stroke-width:1.0;"/><path d="M1148.4731,686.1431 Q1147.8921,686.4419 1147.2529,686.5913 Q1146.6138,686.7407 1145.9082,686.7407 Q1143.4014,686.7407 1142.0815,685.0889 Q1140.7617,683.437 1140.7617,680.3159 Q1140.7617,677.1865 1142.0815,675.5347 Q1143.4014,673.8828 1145.9082,673.8828 Q1146.6138,673.8828 1147.2612,674.0322 Q1147.9087,674.1816 1148.4731,674.4805 L1148.4731,677.2031 Q1147.8423,676.6221 1147.2488,676.3523 Q1146.6553,676.0825 1146.0244,676.0825 Q1144.6797,676.0825 1143.9949,677.1492 Q1143.3101,678.2158 1143.3101,680.3159 Q1143.3101,682.4077 1143.9949,683.4744 Q1144.6797,684.541 1146.0244,684.541 Q1146.6553,684.541 1147.2488,684.2712 Q1147.8423,684.0015 1148.4731,683.4204 Z " fill="#000000"/><text fill="#000000" font-family="sans-serif" font-size="12" lengthAdjust="spacingAndGlyphs" textLength="83" x="1160" y="684.5352">DeleteHandler</text><rect fill="#FFFFFF" height="16.1328" style="stroke:#000000;stroke-width:1.0;stroke-dasharray:2.0,2.0;" width="39" x="1251" y="661"/><text fill="#000000" font-family="sans-serif" font-size="12" font-style="italic" lengthAdjust="spacingAndGlyphs" textLength="37" x="1252" y="673.6016">Delete</text><line style="stroke:#A80036;stroke-width:1.5;" x1="1132" x2="1286" y1="696" y2="696"/><line style="stroke:#A80036;stroke-width:1.5;" x1="1132" x2="1286" y1="704" y2="704"/><text fill="#000000" font-family="sans-serif" font-size="11" lengthAdjust="spacingAndGlyphs" textLength="72" x="1137" y="718.6348">super(Delete)</text><!--MD5=[b7efeaec69cc778148b800ad78db5535]
reverse link NodeWithId to Operation--><path d="M405.92,444.61 C408.91,459.07 412.29,475.41 415.46,490.7 " fill="none" id="NodeWithId-backto-Operation" style="stroke:#A80036;stroke-width:1.0;"/><polygon fill="none" points="399.02,445.8,401.82,424.8,412.73,442.96,399.02,445.8" style="stroke:#A80036;stroke-width:1.0;"/><!--MD5=[fc0e49ee8ae7627d960283aebb25cc52]
reverse link Operation to Get--><path codeLine="23" d="M302.82,607.15 C261.51,626.66 217.26,647.56 182.65,663.91 " fill="none" id="Operation-backto-Get" style="stroke:#A80036;stroke-width:1.0;"/><polygon fill="none" points="299.84,600.82,320.92,598.6,305.82,613.47,299.84,600.82" style="stroke:#A80036;stroke-width:1.0;"/><!--MD5=[6bc4e6dd12281605d20eb8dcce58a287]
reverse link Operation to Put--><path codeLine="24" d="M374.32,620.74 C335.04,674.59 283.41,745.39 254.68,784.78 " fill="none" id="Operation-backto-Put" style="stroke:#A80036;stroke-width:1.0;"/><polygon fill="none" points="368.89,616.3,386.33,604.26,380.2,624.55,368.89,616.3" style="stroke:#A80036;stroke-width:1.0;"/><!--MD5=[3ac47ddbbd970c7b9eafbcfc13e3cef5]
reverse link Operation to Post--><path codeLine="25" d="M431.84,624.25 C435.25,677.64 439.64,746.24 442.1,784.78 " fill="none" id="Operation-backto-Post" style="stroke:#A80036;stroke-width:1.0;"/><polygon fill="none" points="424.85,624.67,430.56,604.26,438.83,623.78,424.85,624.67" style="stroke:#A80036;stroke-width:1.0;"/><!--MD5=[4cf0f741f798b0e22d7684356de7b772]
reverse link Operation to Delete--><path codeLine="26" d="M471.25,621.41 C482.04,639.19 492.81,656.93 500.96,670.36 " fill="none" id="Operation-backto-Delete" style="stroke:#A80036;stroke-width:1.0;"/><polygon fill="none" points="465.16,624.88,460.77,604.15,477.13,617.61,465.16,624.88" style="stroke:#A80036;stroke-width:1.0;"/><!--MD5=[55663d8b5d2b1b52c62df3f15e4e740a]
reverse link OperationNode to GetNode--><path d="M481.06,1070.97 C448.28,1087.36 409.1,1106.95 379.28,1121.86 " fill="none" id="OperationNode-backto-GetNode" style="stroke:#A80036;stroke-width:1.0;"/><polygon fill="none" points="477.98,1064.68,499,1062,484.24,1077.21,477.98,1064.68" style="stroke:#A80036;stroke-width:1.0;"/><!--MD5=[2cea4d96c24b2633fc692716c73aa214]
reverse link OperationNode to PutNode--><path d="M518.06,1078.66 C508.22,1093.15 497.41,1109.07 488.84,1121.68 " fill="none" id="OperationNode-backto-PutNode" style="stroke:#A80036;stroke-width:1.0;"/><polygon fill="none" points="512.35,1074.61,529.38,1062,523.93,1082.48,512.35,1074.61" style="stroke:#A80036;stroke-width:1.0;"/><!--MD5=[1bc4a5ad7daa89f1710abfaa5fd2601b]
reverse link OperationNode to PostNode--><path d="M571.94,1078.66 C581.78,1093.15 592.59,1109.07 601.16,1121.68 " fill="none" id="OperationNode-backto-PostNode" style="stroke:#A80036;stroke-width:1.0;"/><polygon fill="none" points="566.07,1082.48,560.62,1062,577.65,1074.61,566.07,1082.48" style="stroke:#A80036;stroke-width:1.0;"/><!--MD5=[5f1af52514755b1de269141f660cdda9]
reverse link OperationNode to DeleteNode--><path d="M614.37,1070.29 C651,1086.81 695.19,1106.74 728.7,1121.86 " fill="none" id="OperationNode-backto-DeleteNode" style="stroke:#A80036;stroke-width:1.0;"/><polygon fill="none" points="611.34,1076.6,595.99,1062,617.1,1063.84,611.34,1076.6" style="stroke:#A80036;stroke-width:1.0;"/><!--MD5=[4b5556a86587956b1425927471eb06be]
reverse link FlowNodeWithId to OperationNode--><path codeLine="35" d="M510.1,972.09 C517.68,986.2 525.9,1001.48 532.46,1013.68 " fill="none" id="FlowNodeWithId-backto-OperationNode" style="stroke:#A80036;stroke-width:1.0;"/><polygon fill="none" points="503.68,974.93,500.37,954,516.01,968.3,503.68,974.93" style="stroke:#A80036;stroke-width:1.0;"/><!--MD5=[34e213d39a5977b5253087070a1cd3c1]
reverse link NodeWithIdBuilder to OperationBuilder--><path codeLine="56" d="M790,75.43 C790,88.33 790,102.32 790,114.71 " fill="none" id="NodeWithIdBuilder-backto-OperationBuilder" style="stroke:#A80036;stroke-width:1.0;"/><polygon fill="none" points="783,75.23,790,55.23,797,75.23,783,75.23" style="stroke:#A80036;stroke-width:1.0;"/><!--MD5=[82ab42a3796c4b6f667a5571e2af73d8]
reverse link OperationBuilder to GetBuilder--><path codeLine="57" d="M724.68,201.22 C702.96,217.26 679.43,234.63 660.19,248.83 " fill="none" id="OperationBuilder-backto-GetBuilder" style="stroke:#A80036;stroke-width:1.0;"/><polygon fill="none" points="720.58,195.55,740.83,189.3,728.9,206.81,720.58,195.55" style="stroke:#A80036;stroke-width:1.0;"/><!--MD5=[cc4379e588d91c96d255fc9922a2a3af]
reverse link OperationBuilder to PutBuilder--><path codeLine="58" d="M790,209.73 C790,223.15 790,236.95 790,248.62 " fill="none" id="OperationBuilder-backto-PutBuilder" style="stroke:#A80036;stroke-width:1.0;"/><polygon fill="none" points="783,209.3,790,189.3,797,209.3,783,209.3" style="stroke:#A80036;stroke-width:1.0;"/><!--MD5=[41de941207a30fc56fec507875a6e313]
reverse link OperationBuilder to PostBuilder--><path codeLine="59" d="M856.09,201.22 C878.06,217.26 901.87,234.63 921.34,248.83 " fill="none" id="OperationBuilder-backto-PostBuilder" style="stroke:#A80036;stroke-width:1.0;"/><polygon fill="none" points="851.78,206.74,839.75,189.3,860.03,195.43,851.78,206.74" style="stroke:#A80036;stroke-width:1.0;"/><!--MD5=[ed8dce8bf895dc63fc2471283aae440d]
reverse link OperationBuilder to DeleteBuilder--><path codeLine="60" d="M910.45,195.94 C962.29,214.43 1021.3,235.47 1066.78,251.68 " fill="none" id="OperationBuilder-backto-DeleteBuilder" style="stroke:#A80036;stroke-width:1.0;"/><polygon fill="none" points="907.83,202.44,891.34,189.13,912.53,189.25,907.83,202.44" style="stroke:#A80036;stroke-width:1.0;"/><!--MD5=[d5bfa55a1b30530b4ef88ab29c2aac9c]
reverse link AbstractNodeHandler to OperationHandler--><path d="M746,451.28 C746,473.1 746,497.99 746,516.85 " fill="none" id="AbstractNodeHandler-backto-OperationHandler" style="stroke:#A80036;stroke-width:1.0;"/><polygon fill="none" points="739,451.19,746,431.19,753,451.19,739,451.19" style="stroke:#A80036;stroke-width:1.0;"/><!--MD5=[7750d886bb0e7a03892349d41225d540]
reverse link OperationHandler to GetHandler--><path d="M736.11,597.94 C731.73,619.85 726.72,644.89 722.93,663.85 " fill="none" id="OperationHandler-backto-GetHandler" style="stroke:#A80036;stroke-width:1.0;"/><polygon fill="none" points="729.27,596.43,740.06,578.19,743,599.18,729.27,596.43" style="stroke:#A80036;stroke-width:1.0;"/><!--MD5=[fd5d94a276069ad69c3c00e30f71f62b]
reverse link OperationHandler to PutHandler--><path d="M785.17,593.58 C805.06,616.46 828.66,643.62 846.23,663.85 " fill="none" id="OperationHandler-backto-PutHandler" style="stroke:#A80036;stroke-width:1.0;"/><polygon fill="none" points="779.64,597.88,771.8,578.19,790.2,588.7,779.64,597.88" style="stroke:#A80036;stroke-width:1.0;"/><!--MD5=[1255961e95b267d454335b708debe080]
reverse link OperationHandler to PostHandler--><path d="M822.09,587.21 C869.32,611.24 929.08,641.65 972.58,663.78 " fill="none" id="OperationHandler-backto-PostHandler" style="stroke:#A80036;stroke-width:1.0;"/><polygon fill="none" points="818.67,593.33,804.02,578.02,825.02,580.85,818.67,593.33" style="stroke:#A80036;stroke-width:1.0;"/><!--MD5=[4c7b6888cef1271c8d313074ea3db5e2]
reverse link OperationHandler to DeleteHandler--><path d="M859.38,584.01 C943.57,610.37 1056.24,645.66 1130.64,668.96 " fill="none" id="OperationHandler-backto-DeleteHandler" style="stroke:#A80036;stroke-width:1.0;"/><polygon fill="none" points="857.25,590.68,840.25,578.02,861.43,577.31,857.25,590.68" style="stroke:#A80036;stroke-width:1.0;"/><!--MD5=[11c7367518f919f45752e041a2167199]
reverse link OperationBuilder to Operation--><path codeLine="82" d="M625.58,191.12 C592.37,204.95 560.02,223.68 535,249 C517.43,266.78 470.25,409.65 444.45,490.75 " fill="none" id="OperationBuilder-backto-Operation" style="stroke:#A80036;stroke-width:1.0;"/><polygon fill="#A80036" points="637.84,186.25,630.7857,184.7544,626.6919,190.6908,633.7462,192.1864,637.84,186.25" style="stroke:#A80036;stroke-width:1.0;"/><!--MD5=[a595f0ba6d03ebe90dd3f54b6940097c]
link Operation to OperationHandler--><path codeLine="84" d="M533.23,547.5 C553.23,547.5 573.23,547.5 593.23,547.5 " fill="none" id="Operation-to-OperationHandler" style="stroke:#A80036;stroke-width:1.0;"/><polygon fill="#A80036" points="606.37,547.5,600.37,543.5,594.37,547.5,600.37,551.5,606.37,547.5" style="stroke:#A80036;stroke-width:1.0;"/><!--MD5=[6ada85a1b298be97d99220aa74bac496]
reverse link OperationHandler to OperationNode--><path codeLine="85" d="M695.21,591.94 C674.7,611.97 652.49,637.22 638,664 C574.85,780.71 599.78,825.42 567,954 C561.84,974.22 555.75,997.15 551.28,1013.78 " fill="none" id="OperationHandler-backto-OperationNode" style="stroke:#A80036;stroke-width:1.0;stroke-dasharray:7.0,7.0;"/><polygon fill="none" points="690.68,586.59,710.07,578.03,700.26,596.81,690.68,586.59" style="stroke:#A80036;stroke-width:1.0;"/><!--MD5=[2635eee7b1c9fd7e1fb88ceb53a26847]
@startuml

interface NodeWithId #DDD
interface Operation extends NodeWithId {
    String url()
    Headers headers()
    List<Validator> responseValidators()
    List<? extends Node> steps()
    List<String> returnVariables()
    - -
}
interface Get {
    List<HttpStatusRetryWhile> retryWhile()
}
interface Put {
    BodyPublisher bodyPublisher()
}
interface Post {
    BodyPublisher bodyPublisher()
}
interface Delete {
}

Operation <|- - Get
Operation <|- - - Put
Operation <|- - - Post
Operation <|- - Delete

abstract class FlowNodeWithId #DDD
abstract class OperationNode <Operation>
class GetNode <Get> extends OperationNode
class PutNode <Put> extends OperationNode
class PostNode <Post> extends OperationNode
class DeleteNode <Delete> extends OperationNode

FlowNodeWithId <|- - OperationNode

abstract class NodeWithIdBuilder #DDD
abstract class OperationBuilder<TYPE extends OperationNode> {
    this(BuilderType)
    - -
    TYPE build()
}
class GetBuilder {
    super(BuilderType.Get)
}
class PutBuilder {
    super(BuilderType.Put)
}
class PostBuilder {
    super(BuilderType.Post)
}
class DeleteBuilder {
    super(BuilderType.Delete)
}

NodeWithIdBuilder <|- - OperationBuilder
OperationBuilder <|- - GetBuilder
OperationBuilder <|- - PutBuilder
OperationBuilder <|- - PostBuilder
OperationBuilder <|- - DeleteBuilder


abstract AbstractNodeHandler #DDD {
    ExecutionContext execute(ExecutionContext context)
}
abstract OperationHandler<TYPE extends Operation> extends AbstractNodeHandler {
    this(TYPE)
}
class GetHandler<Get> extends OperationHandler {
    super(Get)
}
class PutHandler<Put> extends OperationHandler {
    super(Put)
}
class PostHandler<Post> extends OperationHandler {
    super(Post)
}
class DeleteHandler<Delete> extends OperationHandler {
    super(Delete)
}

OperationBuilder *- - - - Operation

OperationHandler *-left- - Operation
OperationHandler <|..... OperationNode

@enduml

PlantUML version 1.2020.26(Mon Dec 21 18:45:07 CET 2020)
(GPL source distribution)
Java Runtime: OpenJDK Runtime Environment
JVM: OpenJDK 64-Bit Server VM
Default Encoding: UTF-8
Language: en
Country: NO
--></g></svg>