<?xml version="1.0" encoding="UTF-8" standalone="no"?><svg xmlns="http://www.w3.org/2000/svg" xmlns:xlink="http://www.w3.org/1999/xlink" contentScriptType="application/ecmascript" contentStyleType="text/css" height="1171px" preserveAspectRatio="none" style="width:1301px;height:1171px;" version="1.1" viewBox="0 0 1301 1171" width="1301px" zoomAndPan="magnify"><defs><filter height="300%" id="fjkscu4yvbxhp" width="300%" x="-1" y="-1"><feGaussianBlur result="blurOut" stdDeviation="2.0"/><feColorMatrix in="blurOut" result="blurOut2" type="matrix" values="0 0 0 0 0 0 0 0 0 0 0 0 0 0 0 0 0 0 .4 0"/><feOffset dx="4.0" dy="4.0" in="blurOut2" result="blurOut3"/><feBlend in="SourceGraphic" in2="blurOut3" mode="normal"/></filter></defs><g><!--MD5=[c10d8cd4c7eec05b7116bf1e77b16279]
class NodeWithId--><rect codeLine="2" fill="#DDDDDD" filter="url(#fjkscu4yvbxhp)" height="48" id="NodeWithId" style="stroke:#A80036;stroke-width:1.5;" width="98" x="327" y="370"/><ellipse cx="342" cy="386" fill="#B4A7E5" rx="11" ry="11" style="stroke:#A80036;stroke-width:1.0;"/><path d="M338.4277,382.2651 L338.4277,380.1069 L345.8071,380.1069 L345.8071,382.2651 L343.3418,382.2651 L343.3418,390.3418 L345.8071,390.3418 L345.8071,392.5 L338.4277,392.5 L338.4277,390.3418 L340.8931,390.3418 L340.8931,382.2651 Z " fill="#000000"/><text fill="#000000" font-family="sans-serif" font-size="12" font-style="italic" lengthAdjust="spacingAndGlyphs" textLength="66" x="356" y="390.5352">NodeWithId</text><line style="stroke:#A80036;stroke-width:1.5;" x1="328" x2="424" y1="402" y2="402"/><line style="stroke:#A80036;stroke-width:1.5;" x1="328" x2="424" y1="410" y2="410"/><!--MD5=[cca5d97aaf46870920fae66c9bd85cdd]
class Operation--><rect codeLine="3" fill="#FEFECE" filter="url(#fjkscu4yvbxhp)" height="112.7754" id="Operation" style="stroke:#A80036;stroke-width:1.5;" width="212" x="321" y="478"/><ellipse cx="394.25" cy="494" fill="#B4A7E5" rx="11" ry="11" style="stroke:#A80036;stroke-width:1.0;"/><path d="M390.6777,490.2651 L390.6777,488.1069 L398.0571,488.1069 L398.0571,490.2651 L395.5918,490.2651 L395.5918,498.3418 L398.0571,498.3418 L398.0571,500.5 L390.6777,500.5 L390.6777,498.3418 L393.1431,498.3418 L393.1431,490.2651 Z " fill="#000000"/><text fill="#000000" font-family="sans-serif" font-size="12" font-style="italic" lengthAdjust="spacingAndGlyphs" textLength="57" x="414.75" y="498.5352">Operation</text><line style="stroke:#A80036;stroke-width:1.5;" x1="322" x2="532" y1="510" y2="510"/><text fill="#000000" font-family="sans-serif" font-size="11" lengthAdjust="spacingAndGlyphs" textLength="58" x="327" y="524.6348">String url()</text><text fill="#000000" font-family="sans-serif" font-size="11" lengthAdjust="spacingAndGlyphs" textLength="98" x="327" y="537.5898">Headers headers()</text><text fill="#000000" font-family="sans-serif" font-size="11" lengthAdjust="spacingAndGlyphs" textLength="200" x="327" y="550.5449">List&lt;Validator&gt; responseValidators()</text><text fill="#000000" font-family="sans-serif" font-size="11" lengthAdjust="spacingAndGlyphs" textLength="159" x="327" y="563.5">List&lt;? extends Node&gt; steps()</text><text fill="#000000" font-family="sans-serif" font-size="11" lengthAdjust="spacingAndGlyphs" textLength="163" x="327" y="576.4551">List&lt;String&gt; returnVariables()</text><line style="stroke:#A80036;stroke-width:1.0;" x1="322" x2="532" y1="582.7754" y2="582.7754"/><!--MD5=[8dad76bf7ab6589a2a16aed7e391ed29]
class Get--><rect codeLine="11" fill="#FEFECE" filter="url(#fjkscu4yvbxhp)" height="60.9551" id="Get" style="stroke:#A80036;stroke-width:1.5;" width="226" x="7" y="651"/><ellipse cx="105.75" cy="667" fill="#B4A7E5" rx="11" ry="11" style="stroke:#A80036;stroke-width:1.0;"/><path d="M102.1777,663.2651 L102.1777,661.1069 L109.5571,661.1069 L109.5571,663.2651 L107.0918,663.2651 L107.0918,671.3418 L109.5571,671.3418 L109.5571,673.5 L102.1777,673.5 L102.1777,671.3418 L104.6431,671.3418 L104.6431,663.2651 Z " fill="#000000"/><text fill="#000000" font-family="sans-serif" font-size="12" font-style="italic" lengthAdjust="spacingAndGlyphs" textLength="20" x="126.25" y="671.5352">Get</text><line style="stroke:#A80036;stroke-width:1.5;" x1="8" x2="232" y1="683" y2="683"/><line style="stroke:#A80036;stroke-width:1.5;" x1="8" x2="232" y1="691" y2="691"/><text fill="#000000" font-family="sans-serif" font-size="11" lengthAdjust="spacingAndGlyphs" textLength="214" x="13" y="705.6348">List&lt;HttpStatusRetryWhile&gt; retryWhile()</text><!--MD5=[80913b1cc667c5997af01db625a44293]
class Put--><rect codeLine="14" fill="#FEFECE" filter="url(#fjkscu4yvbxhp)" height="60.9551" id="Put" style="stroke:#A80036;stroke-width:1.5;" width="176" x="145" y="772"/><ellipse cx="219.75" cy="788" fill="#B4A7E5" rx="11" ry="11" style="stroke:#A80036;stroke-width:1.0;"/><path d="M216.1777,784.2651 L216.1777,782.1069 L223.5571,782.1069 L223.5571,784.2651 L221.0918,784.2651 L221.0918,792.3418 L223.5571,792.3418 L223.5571,794.5 L216.1777,794.5 L216.1777,792.3418 L218.6431,792.3418 L218.6431,784.2651 Z " fill="#000000"/><text fill="#000000" font-family="sans-serif" font-size="12" font-style="italic" lengthAdjust="spacingAndGlyphs" textLength="18" x="240.25" y="792.5352">Put</text><line style="stroke:#A80036;stroke-width:1.5;" x1="146" x2="320" y1="804" y2="804"/><line style="stroke:#A80036;stroke-width:1.5;" x1="146" x2="320" y1="812" y2="812"/><text fill="#000000" font-family="sans-serif" font-size="11" lengthAdjust="spacingAndGlyphs" textLength="164" x="151" y="826.6348">BodyPublisher bodyPublisher()</text><!--MD5=[9bb0bdd047fba1a3c8d48282c35b4537]
class Post--><rect codeLine="17" fill="#FEFECE" filter="url(#fjkscu4yvbxhp)" height="60.9551" id="Post" style="stroke:#A80036;stroke-width:1.5;" width="176" x="356" y="772"/><ellipse cx="427.75" cy="788" fill="#B4A7E5" rx="11" ry="11" style="stroke:#A80036;stroke-width:1.0;"/><path d="M424.1777,784.2651 L424.1777,782.1069 L431.5571,782.1069 L431.5571,784.2651 L429.0918,784.2651 L429.0918,792.3418 L431.5571,792.3418 L431.5571,794.5 L424.1777,794.5 L424.1777,792.3418 L426.6431,792.3418 L426.6431,784.2651 Z " fill="#000000"/><text fill="#000000" font-family="sans-serif" font-size="12" font-style="italic" lengthAdjust="spacingAndGlyphs" textLength="24" x="448.25" y="792.5352">Post</text><line style="stroke:#A80036;stroke-width:1.5;" x1="357" x2="531" y1="804" y2="804"/><line style="stroke:#A80036;stroke-width:1.5;" x1="357" x2="531" y1="812" y2="812"/><text fill="#000000" font-family="sans-serif" font-size="11" lengthAdjust="spacingAndGlyphs" textLength="164" x="362" y="826.6348">BodyPublisher bodyPublisher()</text><!--MD5=[9d82e49cffacc5184d1149ac06d87e9b]
class Delete--><rect codeLine="20" fill="#FEFECE" filter="url(#fjkscu4yvbxhp)" height="48" id="Delete" style="stroke:#A80036;stroke-width:1.5;" width="69" x="480.5" y="657.5"/><ellipse cx="495.5" cy="673.5" fill="#B4A7E5" rx="11" ry="11" style="stroke:#A80036;stroke-width:1.0;"/><path d="M491.9277,669.7651 L491.9277,667.6069 L499.3071,667.6069 L499.3071,669.7651 L496.8418,669.7651 L496.8418,677.8418 L499.3071,677.8418 L499.3071,680 L491.9277,680 L491.9277,677.8418 L494.3931,677.8418 L494.3931,669.7651 Z " fill="#000000"/><text fill="#000000" font-family="sans-serif" font-size="12" font-style="italic" lengthAdjust="spacingAndGlyphs" textLength="37" x="509.5" y="678.0352">Delete</text><line style="stroke:#A80036;stroke-width:1.5;" x1="481.5" x2="548.5" y1="689.5" y2="689.5"/><line style="stroke:#A80036;stroke-width:1.5;" x1="481.5" x2="548.5" y1="697.5" y2="697.5"/><!--MD5=[af3e6fd19390042ea5ac651ad4dbd16c]
class FlowNodeWithId--><rect codeLine="28" fill="#DDDDDD" filter="url(#fjkscu4yvbxhp)" height="48" id="FlowNodeWithId" style="stroke:#A80036;stroke-width:1.5;" width="123" x="426.5" y="893"/><ellipse cx="441.5" cy="909" fill="#A9DCDF" rx="11" ry="11" style="stroke:#A80036;stroke-width:1.0;"/><path d="M441.3633,904.3481 L440.2095,909.4199 L442.5254,909.4199 Z M439.8691,902.1069 L442.8657,902.1069 L446.2109,914.5 L443.7622,914.5 L442.9985,911.437 L439.7197,911.437 L438.9727,914.5 L436.5239,914.5 Z " fill="#000000"/><text fill="#000000" font-family="sans-serif" font-size="12" font-style="italic" lengthAdjust="spacingAndGlyphs" textLength="91" x="455.5" y="913.5352">FlowNodeWithId</text><line style="stroke:#A80036;stroke-width:1.5;" x1="427.5" x2="548.5" y1="925" y2="925"/><line style="stroke:#A80036;stroke-width:1.5;" x1="427.5" x2="548.5" y1="933" y2="933"/><!--MD5=[94594dc88c07f8db7e16d0b2dacc6ec9]
class OperationNode--><rect codeLine="29" fill="#FEFECE" filter="url(#fjkscu4yvbxhp)" height="48" id="OperationNode" style="stroke:#A80036;stroke-width:1.5;" width="181" x="454.5" y="1001"/><ellipse cx="469.5" cy="1017" fill="#A9DCDF" rx="11" ry="11" style="stroke:#A80036;stroke-width:1.0;"/><path d="M469.3633,1012.3481 L468.2095,1017.4199 L470.5254,1017.4199 Z M467.8691,1010.1069 L470.8657,1010.1069 L474.2109,1022.5 L471.7622,1022.5 L470.9985,1019.437 L467.7197,1019.437 L466.9727,1022.5 L464.5239,1022.5 Z " fill="#000000"/><text fill="#000000" font-family="sans-serif" font-size="12" font-style="italic" lengthAdjust="spacingAndGlyphs" textLength="88" x="483.5" y="1021.5352">OperationNode</text><rect fill="#FFFFFF" height="16.1328" style="stroke:#000000;stroke-width:1.0;stroke-dasharray:2.0,2.0;" width="59" x="579.5" y="998"/><text fill="#000000" font-family="sans-serif" font-size="12" font-style="italic" lengthAdjust="spacingAndGlyphs" textLength="57" x="580.5" y="1010.6016">Operation</text><line style="stroke:#A80036;stroke-width:1.5;" x1="455.5" x2="634.5" y1="1033" y2="1033"/><line style="stroke:#A80036;stroke-width:1.5;" x1="455.5" x2="634.5" y1="1041" y2="1041"/><!--MD5=[d388fb292d313757316699954363a711]
class GetNode--><rect codeLine="30" fill="#FEFECE" filter="url(#fjkscu4yvbxhp)" height="48" id="GetNode" style="stroke:#A80036;stroke-width:1.5;" width="107" x="279.5" y="1109"/><ellipse cx="294.5" cy="1125" fill="#ADD1B2" rx="11" ry="11" style="stroke:#A80036;stroke-width:1.0;"/><path d="M296.9731,1131.1431 Q296.3921,1131.4419 295.7529,1131.5913 Q295.1138,1131.7407 294.4082,1131.7407 Q291.9014,1131.7407 290.5815,1130.0889 Q289.2617,1128.437 289.2617,1125.3159 Q289.2617,1122.1865 290.5815,1120.5347 Q291.9014,1118.8828 294.4082,1118.8828 Q295.1138,1118.8828 295.7612,1119.0322 Q296.4087,1119.1816 296.9731,1119.4805 L296.9731,1122.2031 Q296.3423,1121.6221 295.7488,1121.3523 Q295.1553,1121.0825 294.5244,1121.0825 Q293.1797,1121.0825 292.4949,1122.1492 Q291.8101,1123.2158 291.8101,1125.3159 Q291.8101,1127.4077 292.4949,1128.4744 Q293.1797,1129.541 294.5244,1129.541 Q295.1553,1129.541 295.7488,1129.2712 Q296.3423,1129.0015 296.9731,1128.4204 Z " fill="#000000"/><text fill="#000000" font-family="sans-serif" font-size="12" lengthAdjust="spacingAndGlyphs" textLength="51" x="308.5" y="1129.5352">GetNode</text><rect fill="#FFFFFF" height="16.1328" style="stroke:#000000;stroke-width:1.0;stroke-dasharray:2.0,2.0;" width="22" x="367.5" y="1106"/><text fill="#000000" font-family="sans-serif" font-size="12" font-style="italic" lengthAdjust="spacingAndGlyphs" textLength="20" x="368.5" y="1118.6016">Get</text><line style="stroke:#A80036;stroke-width:1.5;" x1="280.5" x2="385.5" y1="1141" y2="1141"/><line style="stroke:#A80036;stroke-width:1.5;" x1="280.5" x2="385.5" y1="1149" y2="1149"/><!--MD5=[bab8a29270e2e21ddf0a843dad9509c3]
class PutNode--><rect codeLine="31" fill="#FEFECE" filter="url(#fjkscu4yvbxhp)" height="48" id="PutNode" style="stroke:#A80036;stroke-width:1.5;" width="103" x="421.5" y="1109"/><ellipse cx="436.5" cy="1125" fill="#ADD1B2" rx="11" ry="11" style="stroke:#A80036;stroke-width:1.0;"/><path d="M438.9731,1131.1431 Q438.3921,1131.4419 437.7529,1131.5913 Q437.1138,1131.7407 436.4082,1131.7407 Q433.9014,1131.7407 432.5815,1130.0889 Q431.2617,1128.437 431.2617,1125.3159 Q431.2617,1122.1865 432.5815,1120.5347 Q433.9014,1118.8828 436.4082,1118.8828 Q437.1138,1118.8828 437.7612,1119.0322 Q438.4087,1119.1816 438.9731,1119.4805 L438.9731,1122.2031 Q438.3423,1121.6221 437.7488,1121.3523 Q437.1553,1121.0825 436.5244,1121.0825 Q435.1797,1121.0825 434.4949,1122.1492 Q433.8101,1123.2158 433.8101,1125.3159 Q433.8101,1127.4077 434.4949,1128.4744 Q435.1797,1129.541 436.5244,1129.541 Q437.1553,1129.541 437.7488,1129.2712 Q438.3423,1129.0015 438.9731,1128.4204 Z " fill="#000000"/><text fill="#000000" font-family="sans-serif" font-size="12" lengthAdjust="spacingAndGlyphs" textLength="49" x="450.5" y="1129.5352">PutNode</text><rect fill="#FFFFFF" height="16.1328" style="stroke:#000000;stroke-width:1.0;stroke-dasharray:2.0,2.0;" width="20" x="507.5" y="1106"/><text fill="#000000" font-family="sans-serif" font-size="12" font-style="italic" lengthAdjust="spacingAndGlyphs" textLength="18" x="508.5" y="1118.6016">Put</text><line style="stroke:#A80036;stroke-width:1.5;" x1="422.5" x2="523.5" y1="1141" y2="1141"/><line style="stroke:#A80036;stroke-width:1.5;" x1="422.5" x2="523.5" y1="1149" y2="1149"/><!--MD5=[dcc98ac6b3bb825b3eb66363923a36b0]
class PostNode--><rect codeLine="32" fill="#FEFECE" filter="url(#fjkscu4yvbxhp)" height="48" id="PostNode" style="stroke:#A80036;stroke-width:1.5;" width="115" x="559.5" y="1109"/><ellipse cx="574.5" cy="1125" fill="#ADD1B2" rx="11" ry="11" style="stroke:#A80036;stroke-width:1.0;"/><path d="M576.9731,1131.1431 Q576.3921,1131.4419 575.7529,1131.5913 Q575.1138,1131.7407 574.4082,1131.7407 Q571.9014,1131.7407 570.5815,1130.0889 Q569.2617,1128.437 569.2617,1125.3159 Q569.2617,1122.1865 570.5815,1120.5347 Q571.9014,1118.8828 574.4082,1118.8828 Q575.1138,1118.8828 575.7612,1119.0322 Q576.4087,1119.1816 576.9731,1119.4805 L576.9731,1122.2031 Q576.3423,1121.6221 575.7488,1121.3523 Q575.1553,1121.0825 574.5244,1121.0825 Q573.1797,1121.0825 572.4949,1122.1492 Q571.8101,1123.2158 571.8101,1125.3159 Q571.8101,1127.4077 572.4949,1128.4744 Q573.1797,1129.541 574.5244,1129.541 Q575.1553,1129.541 575.7488,1129.2712 Q576.3423,1129.0015 576.9731,1128.4204 Z " fill="#000000"/><text fill="#000000" font-family="sans-serif" font-size="12" lengthAdjust="spacingAndGlyphs" textLength="55" x="588.5" y="1129.5352">PostNode</text><rect fill="#FFFFFF" height="16.1328" style="stroke:#000000;stroke-width:1.0;stroke-dasharray:2.0,2.0;" width="26" x="651.5" y="1106"/><text fill="#000000" font-family="sans-serif" font-size="12" font-style="italic" lengthAdjust="spacingAndGlyphs" textLength="24" x="652.5" y="1118.6016">Post</text><line style="stroke:#A80036;stroke-width:1.5;" x1="560.5" x2="673.5" y1="1141" y2="1141"/><line style="stroke:#A80036;stroke-width:1.5;" x1="560.5" x2="673.5" y1="1149" y2="1149"/><!--MD5=[edd7c408da47327d74102522be4b569d]
class DeleteNode--><rect codeLine="33" fill="#FEFECE" filter="url(#fjkscu4yvbxhp)" height="48" id="DeleteNode" style="stroke:#A80036;stroke-width:1.5;" width="141" x="709.5" y="1109"/><ellipse cx="724.5" cy="1125" fill="#ADD1B2" rx="11" ry="11" style="stroke:#A80036;stroke-width:1.0;"/><path d="M726.9731,1131.1431 Q726.3921,1131.4419 725.7529,1131.5913 Q725.1138,1131.7407 724.4082,1131.7407 Q721.9014,1131.7407 720.5815,1130.0889 Q719.2617,1128.437 719.2617,1125.3159 Q719.2617,1122.1865 720.5815,1120.5347 Q721.9014,1118.8828 724.4082,1118.8828 Q725.1138,1118.8828 725.7612,1119.0322 Q726.4087,1119.1816 726.9731,1119.4805 L726.9731,1122.2031 Q726.3423,1121.6221 725.7488,1121.3523 Q725.1553,1121.0825 724.5244,1121.0825 Q723.1797,1121.0825 722.4949,1122.1492 Q721.8101,1123.2158 721.8101,1125.3159 Q721.8101,1127.4077 722.4949,1128.4744 Q723.1797,1129.541 724.5244,1129.541 Q725.1553,1129.541 725.7488,1129.2712 Q726.3423,1129.0015 726.9731,1128.4204 Z " fill="#000000"/><text fill="#000000" font-family="sans-serif" font-size="12" lengthAdjust="spacingAndGlyphs" textLength="68" x="738.5" y="1129.5352">DeleteNode</text><rect fill="#FFFFFF" height="16.1328" style="stroke:#000000;stroke-width:1.0;stroke-dasharray:2.0,2.0;" width="39" x="814.5" y="1106"/><text fill="#000000" font-family="sans-serif" font-size="12" font-style="italic" lengthAdjust="spacingAndGlyphs" textLength="37" x="815.5" y="1118.6016">Delete</text><line style="stroke:#A80036;stroke-width:1.5;" x1="710.5" x2="849.5" y1="1141" y2="1141"/><line style="stroke:#A80036;stroke-width:1.5;" x1="710.5" x2="849.5" y1="1149" y2="1149"/><!--MD5=[296de3889a05118a3f3c8dc893cff4b7]
class NodeWithIdBuilder--><rect codeLine="37" fill="#DDDDDD" filter="url(#fjkscu4yvbxhp)" height="48" id="NodeWithIdBuilder" style="stroke:#A80036;stroke-width:1.5;" width="138" x="700" y="7"/><ellipse cx="715" cy="23" fill="#A9DCDF" rx="11" ry="11" style="stroke:#A80036;stroke-width:1.0;"/><path d="M714.8633,18.3481 L713.7095,23.4199 L716.0254,23.4199 Z M713.3691,16.1069 L716.3657,16.1069 L719.7109,28.5 L717.2622,28.5 L716.4985,25.437 L713.2197,25.437 L712.4727,28.5 L710.0239,28.5 Z " fill="#000000"/><text fill="#000000" font-family="sans-serif" font-size="12" font-style="italic" lengthAdjust="spacingAndGlyphs" textLength="106" x="729" y="27.5352">NodeWithIdBuilder</text><line style="stroke:#A80036;stroke-width:1.5;" x1="701" x2="837" y1="39" y2="39"/><line style="stroke:#A80036;stroke-width:1.5;" x1="701" x2="837" y1="47" y2="47"/><!--MD5=[f8e51844424802ffc2cb63c5ede17012]
class OperationBuilder--><rect codeLine="38" fill="#FEFECE" filter="url(#fjkscu4yvbxhp)" height="73.9102" id="OperationBuilder" style="stroke:#A80036;stroke-width:1.5;" width="304" x="617" y="115"/><ellipse cx="632" cy="131" fill="#A9DCDF" rx="11" ry="11" style="stroke:#A80036;stroke-width:1.0;"/><path d="M631.8633,126.3481 L630.7095,131.4199 L633.0254,131.4199 Z M630.3691,124.1069 L633.3657,124.1069 L636.7109,136.5 L634.2622,136.5 L633.4985,133.437 L630.2197,133.437 L629.4727,136.5 L627.0239,136.5 Z " fill="#000000"/><text fill="#000000" font-family="sans-serif" font-size="12" font-style="italic" lengthAdjust="spacingAndGlyphs" textLength="97" x="646" y="135.5352">OperationBuilder</text><rect fill="#FFFFFF" height="16.1328" style="stroke:#000000;stroke-width:1.0;stroke-dasharray:2.0,2.0;" width="173" x="751" y="112"/><text fill="#000000" font-family="sans-serif" font-size="12" font-style="italic" lengthAdjust="spacingAndGlyphs" textLength="171" x="752" y="124.6016">TYPE extends OperationNode</text><line style="stroke:#A80036;stroke-width:1.5;" x1="618" x2="920" y1="147" y2="147"/><text fill="#000000" font-family="sans-serif" font-size="11" lengthAdjust="spacingAndGlyphs" textLength="91" x="623" y="161.6348">this(BuilderType)</text><line style="stroke:#A80036;stroke-width:1.0;" x1="618" x2="920" y1="167.9551" y2="167.9551"/><text fill="#000000" font-family="sans-serif" font-size="11" lengthAdjust="spacingAndGlyphs" textLength="64" x="623" y="182.5898">TYPE build()</text><!--MD5=[4da9805461112fecd032df5dc92a4cd7]
class GetBuilder--><rect codeLine="43" fill="#FEFECE" filter="url(#fjkscu4yvbxhp)" height="60.9551" id="GetBuilder" style="stroke:#A80036;stroke-width:1.5;" width="135" x="531.5" y="249"/><ellipse cx="565.85" cy="265" fill="#ADD1B2" rx="11" ry="11" style="stroke:#A80036;stroke-width:1.0;"/><path d="M568.3231,271.1431 Q567.7421,271.4419 567.1029,271.5913 Q566.4638,271.7407 565.7582,271.7407 Q563.2514,271.7407 561.9315,270.0889 Q560.6117,268.437 560.6117,265.3159 Q560.6117,262.1865 561.9315,260.5347 Q563.2514,258.8828 565.7582,258.8828 Q566.4638,258.8828 567.1112,259.0322 Q567.7587,259.1816 568.3231,259.4805 L568.3231,262.2031 Q567.6923,261.6221 567.0988,261.3523 Q566.5053,261.0825 565.8744,261.0825 Q564.5297,261.0825 563.8449,262.1492 Q563.1601,263.2158 563.1601,265.3159 Q563.1601,267.4077 563.8449,268.4744 Q564.5297,269.541 565.8744,269.541 Q566.5053,269.541 567.0988,269.2712 Q567.6923,269.0015 568.3231,268.4204 Z " fill="#000000"/><text fill="#000000" font-family="sans-serif" font-size="12" lengthAdjust="spacingAndGlyphs" textLength="60" x="584.15" y="269.5352">GetBuilder</text><line style="stroke:#A80036;stroke-width:1.5;" x1="532.5" x2="665.5" y1="281" y2="281"/><line style="stroke:#A80036;stroke-width:1.5;" x1="532.5" x2="665.5" y1="289" y2="289"/><text fill="#000000" font-family="sans-serif" font-size="11" lengthAdjust="spacingAndGlyphs" textLength="123" x="537.5" y="303.6348">super(BuilderType.Get)</text><!--MD5=[ec252929bb907565a7260e61fb473cac]
class PutBuilder--><rect codeLine="46" fill="#FEFECE" filter="url(#fjkscu4yvbxhp)" height="60.9551" id="PutBuilder" style="stroke:#A80036;stroke-width:1.5;" width="134" x="702" y="249"/><ellipse cx="736.8" cy="265" fill="#ADD1B2" rx="11" ry="11" style="stroke:#A80036;stroke-width:1.0;"/><path d="M739.2731,271.1431 Q738.6921,271.4419 738.0529,271.5913 Q737.4138,271.7407 736.7082,271.7407 Q734.2014,271.7407 732.8815,270.0889 Q731.5617,268.437 731.5617,265.3159 Q731.5617,262.1865 732.8815,260.5347 Q734.2014,258.8828 736.7082,258.8828 Q737.4138,258.8828 738.0612,259.0322 Q738.7087,259.1816 739.2731,259.4805 L739.2731,262.2031 Q738.6423,261.6221 738.0488,261.3523 Q737.4553,261.0825 736.8244,261.0825 Q735.4797,261.0825 734.7949,262.1492 Q734.1101,263.2158 734.1101,265.3159 Q734.1101,267.4077 734.7949,268.4744 Q735.4797,269.541 736.8244,269.541 Q737.4553,269.541 738.0488,269.2712 Q738.6423,269.0015 739.2731,268.4204 Z " fill="#000000"/><text fill="#000000" font-family="sans-serif" font-size="12" lengthAdjust="spacingAndGlyphs" textLength="58" x="755.2" y="269.5352">PutBuilder</text><line style="stroke:#A80036;stroke-width:1.5;" x1="703" x2="835" y1="281" y2="281"/><line style="stroke:#A80036;stroke-width:1.5;" x1="703" x2="835" y1="289" y2="289"/><text fill="#000000" font-family="sans-serif" font-size="11" lengthAdjust="spacingAndGlyphs" textLength="122" x="708" y="303.6348">super(BuilderType.Put)</text><!--MD5=[4e7a6db77e73f51d79377ec92e0d6764]
class PostBuilder--><rect codeLine="49" fill="#FEFECE" filter="url(#fjkscu4yvbxhp)" height="60.9551" id="PostBuilder" style="stroke:#A80036;stroke-width:1.5;" width="140" x="871" y="249"/><ellipse cx="905.8" cy="265" fill="#ADD1B2" rx="11" ry="11" style="stroke:#A80036;stroke-width:1.0;"/><path d="M908.2731,271.1431 Q907.6921,271.4419 907.0529,271.5913 Q906.4138,271.7407 905.7082,271.7407 Q903.2014,271.7407 901.8815,270.0889 Q900.5617,268.437 900.5617,265.3159 Q900.5617,262.1865 901.8815,260.5347 Q903.2014,258.8828 905.7082,258.8828 Q906.4138,258.8828 907.0612,259.0322 Q907.7087,259.1816 908.2731,259.4805 L908.2731,262.2031 Q907.6423,261.6221 907.0488,261.3523 Q906.4553,261.0825 905.8244,261.0825 Q904.4797,261.0825 903.7949,262.1492 Q903.1101,263.2158 903.1101,265.3159 Q903.1101,267.4077 903.7949,268.4744 Q904.4797,269.541 905.8244,269.541 Q906.4553,269.541 907.0488,269.2712 Q907.6423,269.0015 908.2731,268.4204 Z " fill="#000000"/><text fill="#000000" font-family="sans-serif" font-size="12" lengthAdjust="spacingAndGlyphs" textLength="64" x="924.2" y="269.5352">PostBuilder</text><line style="stroke:#A80036;stroke-width:1.5;" x1="872" x2="1010" y1="281" y2="281"/><line style="stroke:#A80036;stroke-width:1.5;" x1="872" x2="1010" y1="289" y2="289"/><text fill="#000000" font-family="sans-serif" font-size="11" lengthAdjust="spacingAndGlyphs" textLength="128" x="877" y="303.6348">super(BuilderType.Post)</text><!--MD5=[9a865a4d4320b83bcb593deda68566a1]
class DeleteBuilder--><rect codeLine="52" fill="#FEFECE" filter="url(#fjkscu4yvbxhp)" height="60.9551" id="DeleteBuilder" style="stroke:#A80036;stroke-width:1.5;" width="150" x="1046" y="249"/><ellipse cx="1079.45" cy="265" fill="#ADD1B2" rx="11" ry="11" style="stroke:#A80036;stroke-width:1.0;"/><path d="M1081.9231,271.1431 Q1081.3421,271.4419 1080.7029,271.5913 Q1080.0638,271.7407 1079.3582,271.7407 Q1076.8514,271.7407 1075.5315,270.0889 Q1074.2117,268.437 1074.2117,265.3159 Q1074.2117,262.1865 1075.5315,260.5347 Q1076.8514,258.8828 1079.3582,258.8828 Q1080.0638,258.8828 1080.7112,259.0322 Q1081.3587,259.1816 1081.9231,259.4805 L1081.9231,262.2031 Q1081.2923,261.6221 1080.6988,261.3523 Q1080.1053,261.0825 1079.4744,261.0825 Q1078.1297,261.0825 1077.4449,262.1492 Q1076.7601,263.2158 1076.7601,265.3159 Q1076.7601,267.4077 1077.4449,268.4744 Q1078.1297,269.541 1079.4744,269.541 Q1080.1053,269.541 1080.6988,269.2712 Q1081.2923,269.0015 1081.9231,268.4204 Z " fill="#000000"/><text fill="#000000" font-family="sans-serif" font-size="12" lengthAdjust="spacingAndGlyphs" textLength="77" x="1097.55" y="269.5352">DeleteBuilder</text><line style="stroke:#A80036;stroke-width:1.5;" x1="1047" x2="1195" y1="281" y2="281"/><line style="stroke:#A80036;stroke-width:1.5;" x1="1047" x2="1195" y1="289" y2="289"/><text fill="#000000" font-family="sans-serif" font-size="11" lengthAdjust="spacingAndGlyphs" textLength="138" x="1052" y="303.6348">super(BuilderType.Delete)</text><!--MD5=[f2f72a8a22143fdabb500f8432b91e61]
class AbstractNodeHandler--><rect codeLine="63" fill="#DDDDDD" filter="url(#fjkscu4yvbxhp)" height="48" id="AbstractNodeHandler" style="stroke:#A80036;stroke-width:1.5;" width="157" x="715.5" y="370"/><ellipse cx="730.5" cy="386" fill="#A9DCDF" rx="11" ry="11" style="stroke:#A80036;stroke-width:1.0;"/><path d="M730.3633,381.3481 L729.2095,386.4199 L731.5254,386.4199 Z M728.8691,379.1069 L731.8657,379.1069 L735.2109,391.5 L732.7622,391.5 L731.9985,388.437 L728.7197,388.437 L727.9727,391.5 L725.5239,391.5 Z " fill="#000000"/><text fill="#000000" font-family="sans-serif" font-size="12" font-style="italic" lengthAdjust="spacingAndGlyphs" textLength="125" x="744.5" y="390.5352">AbstractNodeHandler</text><line style="stroke:#A80036;stroke-width:1.5;" x1="716.5" x2="871.5" y1="402" y2="402"/><line style="stroke:#A80036;stroke-width:1.5;" x1="716.5" x2="871.5" y1="410" y2="410"/><!--MD5=[ae82d90ea9f28f9a75f5a462d4509c47]
class OperationHandler--><rect codeLine="64" fill="#FEFECE" filter="url(#fjkscu4yvbxhp)" height="60.9551" id="OperationHandler" style="stroke:#A80036;stroke-width:1.5;" width="279" x="654.5" y="504"/><ellipse cx="669.5" cy="520" fill="#A9DCDF" rx="11" ry="11" style="stroke:#A80036;stroke-width:1.0;"/><path d="M669.3633,515.3481 L668.2095,520.4199 L670.5254,520.4199 Z M667.8691,513.1069 L670.8657,513.1069 L674.2109,525.5 L671.7622,525.5 L670.9985,522.437 L667.7197,522.437 L666.9727,525.5 L664.5239,525.5 Z " fill="#000000"/><text fill="#000000" font-family="sans-serif" font-size="12" font-style="italic" lengthAdjust="spacingAndGlyphs" textLength="103" x="683.5" y="524.5352">OperationHandler</text><rect fill="#FFFFFF" height="16.1328" style="stroke:#000000;stroke-width:1.0;stroke-dasharray:2.0,2.0;" width="142" x="794.5" y="501"/><text fill="#000000" font-family="sans-serif" font-size="12" font-style="italic" lengthAdjust="spacingAndGlyphs" textLength="140" x="795.5" y="513.6016">TYPE extends Operation</text><line style="stroke:#A80036;stroke-width:1.5;" x1="655.5" x2="932.5" y1="536" y2="536"/><line style="stroke:#A80036;stroke-width:1.5;" x1="655.5" x2="932.5" y1="544" y2="544"/><text fill="#000000" font-family="sans-serif" font-size="11" lengthAdjust="spacingAndGlyphs" textLength="54" x="660.5" y="558.6348">this(TYPE)</text><!--MD5=[b9b8c6612922766dbf3276cb0fc8b2c2]
class GetHandler--><rect codeLine="67" fill="#FEFECE" filter="url(#fjkscu4yvbxhp)" height="60.9551" id="GetHandler" style="stroke:#A80036;stroke-width:1.5;" width="122" x="656" y="651"/><ellipse cx="671" cy="667" fill="#ADD1B2" rx="11" ry="11" style="stroke:#A80036;stroke-width:1.0;"/><path d="M673.4731,673.1431 Q672.8921,673.4419 672.2529,673.5913 Q671.6138,673.7407 670.9082,673.7407 Q668.4014,673.7407 667.0815,672.0889 Q665.7617,670.437 665.7617,667.3159 Q665.7617,664.1865 667.0815,662.5347 Q668.4014,660.8828 670.9082,660.8828 Q671.6138,660.8828 672.2612,661.0322 Q672.9087,661.1816 673.4731,661.4805 L673.4731,664.2031 Q672.8423,663.6221 672.2488,663.3523 Q671.6553,663.0825 671.0244,663.0825 Q669.6797,663.0825 668.9949,664.1492 Q668.3101,665.2158 668.3101,667.3159 Q668.3101,669.4077 668.9949,670.4744 Q669.6797,671.541 671.0244,671.541 Q671.6553,671.541 672.2488,671.2712 Q672.8423,671.0015 673.4731,670.4204 Z " fill="#000000"/><text fill="#000000" font-family="sans-serif" font-size="12" lengthAdjust="spacingAndGlyphs" textLength="66" x="685" y="671.5352">GetHandler</text><rect fill="#FFFFFF" height="16.1328" style="stroke:#000000;stroke-width:1.0;stroke-dasharray:2.0,2.0;" width="22" x="759" y="648"/><text fill="#000000" font-family="sans-serif" font-size="12" font-style="italic" lengthAdjust="spacingAndGlyphs" textLength="20" x="760" y="660.6016">Get</text><line style="stroke:#A80036;stroke-width:1.5;" x1="657" x2="777" y1="683" y2="683"/><line style="stroke:#A80036;stroke-width:1.5;" x1="657" x2="777" y1="691" y2="691"/><text fill="#000000" font-family="sans-serif" font-size="11" lengthAdjust="spacingAndGlyphs" textLength="57" x="662" y="705.6348">super(Get)</text><!--MD5=[2aa51627f450c97f6956bb869805adbb]
class PutHandler--><rect codeLine="70" fill="#FEFECE" filter="url(#fjkscu4yvbxhp)" height="60.9551" id="PutHandler" style="stroke:#A80036;stroke-width:1.5;" width="118" x="813" y="651"/><ellipse cx="828" cy="667" fill="#ADD1B2" rx="11" ry="11" style="stroke:#A80036;stroke-width:1.0;"/><path d="M830.4731,673.1431 Q829.8921,673.4419 829.2529,673.5913 Q828.6138,673.7407 827.9082,673.7407 Q825.4014,673.7407 824.0815,672.0889 Q822.7617,670.437 822.7617,667.3159 Q822.7617,664.1865 824.0815,662.5347 Q825.4014,660.8828 827.9082,660.8828 Q828.6138,660.8828 829.2612,661.0322 Q829.9087,661.1816 830.4731,661.4805 L830.4731,664.2031 Q829.8423,663.6221 829.2488,663.3523 Q828.6553,663.0825 828.0244,663.0825 Q826.6797,663.0825 825.9949,664.1492 Q825.3101,665.2158 825.3101,667.3159 Q825.3101,669.4077 825.9949,670.4744 Q826.6797,671.541 828.0244,671.541 Q828.6553,671.541 829.2488,671.2712 Q829.8423,671.0015 830.4731,670.4204 Z " fill="#000000"/><text fill="#000000" font-family="sans-serif" font-size="12" lengthAdjust="spacingAndGlyphs" textLength="64" x="842" y="671.5352">PutHandler</text><rect fill="#FFFFFF" height="16.1328" style="stroke:#000000;stroke-width:1.0;stroke-dasharray:2.0,2.0;" width="20" x="914" y="648"/><text fill="#000000" font-family="sans-serif" font-size="12" font-style="italic" lengthAdjust="spacingAndGlyphs" textLength="18" x="915" y="660.6016">Put</text><line style="stroke:#A80036;stroke-width:1.5;" x1="814" x2="930" y1="683" y2="683"/><line style="stroke:#A80036;stroke-width:1.5;" x1="814" x2="930" y1="691" y2="691"/><text fill="#000000" font-family="sans-serif" font-size="11" lengthAdjust="spacingAndGlyphs" textLength="56" x="819" y="705.6348">super(Put)</text><!--MD5=[941f685fbd5779312ddc37155155c671]
class PostHandler--><rect codeLine="73" fill="#FEFECE" filter="url(#fjkscu4yvbxhp)" height="60.9551" id="PostHandler" style="stroke:#A80036;stroke-width:1.5;" width="130" x="966" y="651"/><ellipse cx="981" cy="667" fill="#ADD1B2" rx="11" ry="11" style="stroke:#A80036;stroke-width:1.0;"/><path d="M983.4731,673.1431 Q982.8921,673.4419 982.2529,673.5913 Q981.6138,673.7407 980.9082,673.7407 Q978.4014,673.7407 977.0815,672.0889 Q975.7617,670.437 975.7617,667.3159 Q975.7617,664.1865 977.0815,662.5347 Q978.4014,660.8828 980.9082,660.8828 Q981.6138,660.8828 982.2612,661.0322 Q982.9087,661.1816 983.4731,661.4805 L983.4731,664.2031 Q982.8423,663.6221 982.2488,663.3523 Q981.6553,663.0825 981.0244,663.0825 Q979.6797,663.0825 978.9949,664.1492 Q978.3101,665.2158 978.3101,667.3159 Q978.3101,669.4077 978.9949,670.4744 Q979.6797,671.541 981.0244,671.541 Q981.6553,671.541 982.2488,671.2712 Q982.8423,671.0015 983.4731,670.4204 Z " fill="#000000"/><text fill="#000000" font-family="sans-serif" font-size="12" lengthAdjust="spacingAndGlyphs" textLength="70" x="995" y="671.5352">PostHandler</text><rect fill="#FFFFFF" height="16.1328" style="stroke:#000000;stroke-width:1.0;stroke-dasharray:2.0,2.0;" width="26" x="1073" y="648"/><text fill="#000000" font-family="sans-serif" font-size="12" font-style="italic" lengthAdjust="spacingAndGlyphs" textLength="24" x="1074" y="660.6016">Post</text><line style="stroke:#A80036;stroke-width:1.5;" x1="967" x2="1095" y1="683" y2="683"/><line style="stroke:#A80036;stroke-width:1.5;" x1="967" x2="1095" y1="691" y2="691"/><text fill="#000000" font-family="sans-serif" font-size="11" lengthAdjust="spacingAndGlyphs" textLength="62" x="972" y="705.6348">super(Post)</text><!--MD5=[c0f772dd02568181615dc125a62b0b36]
class DeleteHandler--><rect codeLine="76" fill="#FEFECE" filter="url(#fjkscu4yvbxhp)" height="60.9551" id="DeleteHandler" style="stroke:#A80036;stroke-width:1.5;" width="156" x="1131" y="651"/><ellipse cx="1146" cy="667" fill="#ADD1B2" rx="11" ry="11" style="stroke:#A80036;stroke-width:1.0;"/><path d="M1148.4731,673.1431 Q1147.8921,673.4419 1147.2529,673.5913 Q1146.6138,673.7407 1145.9082,673.7407 Q1143.4014,673.7407 1142.0815,672.0889 Q1140.7617,670.437 1140.7617,667.3159 Q1140.7617,664.1865 1142.0815,662.5347 Q1143.4014,660.8828 1145.9082,660.8828 Q1146.6138,660.8828 1147.2612,661.0322 Q1147.9087,661.1816 1148.4731,661.4805 L1148.4731,664.2031 Q1147.8423,663.6221 1147.2488,663.3523 Q1146.6553,663.0825 1146.0244,663.0825 Q1144.6797,663.0825 1143.9949,664.1492 Q1143.3101,665.2158 1143.3101,667.3159 Q1143.3101,669.4077 1143.9949,670.4744 Q1144.6797,671.541 1146.0244,671.541 Q1146.6553,671.541 1147.2488,671.2712 Q1147.8423,671.0015 1148.4731,670.4204 Z " fill="#000000"/><text fill="#000000" font-family="sans-serif" font-size="12" lengthAdjust="spacingAndGlyphs" textLength="83" x="1160" y="671.5352">DeleteHandler</text><rect fill="#FFFFFF" height="16.1328" style="stroke:#000000;stroke-width:1.0;stroke-dasharray:2.0,2.0;" width="39" x="1251" y="648"/><text fill="#000000" font-family="sans-serif" font-size="12" font-style="italic" lengthAdjust="spacingAndGlyphs" textLength="37" x="1252" y="660.6016">Delete</text><line style="stroke:#A80036;stroke-width:1.5;" x1="1132" x2="1286" y1="683" y2="683"/><line style="stroke:#A80036;stroke-width:1.5;" x1="1132" x2="1286" y1="691" y2="691"/><text fill="#000000" font-family="sans-serif" font-size="11" lengthAdjust="spacingAndGlyphs" textLength="72" x="1137" y="705.6348">super(Delete)</text><!--MD5=[b7efeaec69cc778148b800ad78db5535]
reverse link NodeWithId to Operation--><path d="M391.6,437.37 C396.31,450.17 401.56,464.42 406.54,477.94 " fill="none" id="NodeWithId-backto-Operation" style="stroke:#A80036;stroke-width:1.0;"/><polygon fill="none" points="384.88,439.37,384.54,418.18,398.02,434.53,384.88,439.37" style="stroke:#A80036;stroke-width:1.0;"/><!--MD5=[fc0e49ee8ae7627d960283aebb25cc52]
reverse link Operation to Get--><path codeLine="23" d="M302.82,594.15 C261.51,613.66 217.26,634.56 182.65,650.91 " fill="none" id="Operation-backto-Get" style="stroke:#A80036;stroke-width:1.0;"/><polygon fill="none" points="299.84,587.82,320.92,585.6,305.82,600.47,299.84,587.82" style="stroke:#A80036;stroke-width:1.0;"/><!--MD5=[6bc4e6dd12281605d20eb8dcce58a287]
reverse link Operation to Put--><path codeLine="24" d="M374.32,607.74 C335.04,661.59 283.41,732.39 254.68,771.78 " fill="none" id="Operation-backto-Put" style="stroke:#A80036;stroke-width:1.0;"/><polygon fill="none" points="368.89,603.3,386.33,591.26,380.2,611.55,368.89,603.3" style="stroke:#A80036;stroke-width:1.0;"/><!--MD5=[3ac47ddbbd970c7b9eafbcfc13e3cef5]
reverse link Operation to Post--><path codeLine="25" d="M431.84,611.25 C435.25,664.64 439.64,733.24 442.1,771.78 " fill="none" id="Operation-backto-Post" style="stroke:#A80036;stroke-width:1.0;"/><polygon fill="none" points="424.85,611.67,430.56,591.26,438.83,610.78,424.85,611.67" style="stroke:#A80036;stroke-width:1.0;"/><!--MD5=[4cf0f741f798b0e22d7684356de7b772]
reverse link Operation to Delete--><path codeLine="26" d="M471.25,608.41 C482.04,626.19 492.81,643.93 500.96,657.36 " fill="none" id="Operation-backto-Delete" style="stroke:#A80036;stroke-width:1.0;"/><polygon fill="none" points="465.16,611.88,460.77,591.15,477.13,604.61,465.16,611.88" style="stroke:#A80036;stroke-width:1.0;"/><!--MD5=[55663d8b5d2b1b52c62df3f15e4e740a]
reverse link OperationNode to GetNode--><path d="M481.06,1057.97 C448.28,1074.36 409.1,1093.95 379.28,1108.86 " fill="none" id="OperationNode-backto-GetNode" style="stroke:#A80036;stroke-width:1.0;"/><polygon fill="none" points="477.98,1051.68,499,1049,484.24,1064.21,477.98,1051.68" style="stroke:#A80036;stroke-width:1.0;"/><!--MD5=[2cea4d96c24b2633fc692716c73aa214]
reverse link OperationNode to PutNode--><path d="M518.06,1065.66 C508.22,1080.15 497.41,1096.07 488.84,1108.68 " fill="none" id="OperationNode-backto-PutNode" style="stroke:#A80036;stroke-width:1.0;"/><polygon fill="none" points="512.35,1061.61,529.38,1049,523.93,1069.48,512.35,1061.61" style="stroke:#A80036;stroke-width:1.0;"/><!--MD5=[1bc4a5ad7daa89f1710abfaa5fd2601b]
reverse link OperationNode to PostNode--><path d="M571.94,1065.66 C581.78,1080.15 592.59,1096.07 601.16,1108.68 " fill="none" id="OperationNode-backto-PostNode" style="stroke:#A80036;stroke-width:1.0;"/><polygon fill="none" points="566.07,1069.48,560.62,1049,577.65,1061.61,566.07,1069.48" style="stroke:#A80036;stroke-width:1.0;"/><!--MD5=[5f1af52514755b1de269141f660cdda9]
reverse link OperationNode to DeleteNode--><path d="M614.37,1057.29 C651,1073.81 695.19,1093.74 728.7,1108.86 " fill="none" id="OperationNode-backto-DeleteNode" style="stroke:#A80036;stroke-width:1.0;"/><polygon fill="none" points="611.34,1063.6,595.99,1049,617.1,1050.84,611.34,1063.6" style="stroke:#A80036;stroke-width:1.0;"/><!--MD5=[4b5556a86587956b1425927471eb06be]
reverse link FlowNodeWithId to OperationNode--><path codeLine="35" d="M510.1,959.09 C517.68,973.2 525.9,988.48 532.46,1000.68 " fill="none" id="FlowNodeWithId-backto-OperationNode" style="stroke:#A80036;stroke-width:1.0;"/><polygon fill="none" points="503.68,961.93,500.37,941,516.01,955.3,503.68,961.93" style="stroke:#A80036;stroke-width:1.0;"/><!--MD5=[34e213d39a5977b5253087070a1cd3c1]
reverse link NodeWithIdBuilder to OperationBuilder--><path codeLine="56" d="M769,75.43 C769,88.33 769,102.32 769,114.71 " fill="none" id="NodeWithIdBuilder-backto-OperationBuilder" style="stroke:#A80036;stroke-width:1.0;"/><polygon fill="none" points="762,75.23,769,55.23,776,75.23,762,75.23" style="stroke:#A80036;stroke-width:1.0;"/><!--MD5=[82ab42a3796c4b6f667a5571e2af73d8]
reverse link OperationBuilder to GetBuilder--><path codeLine="57" d="M703.68,201.22 C681.96,217.26 658.43,234.63 639.19,248.83 " fill="none" id="OperationBuilder-backto-GetBuilder" style="stroke:#A80036;stroke-width:1.0;"/><polygon fill="none" points="699.58,195.55,719.83,189.3,707.9,206.81,699.58,195.55" style="stroke:#A80036;stroke-width:1.0;"/><!--MD5=[cc4379e588d91c96d255fc9922a2a3af]
reverse link OperationBuilder to PutBuilder--><path codeLine="58" d="M769,209.73 C769,223.15 769,236.95 769,248.62 " fill="none" id="OperationBuilder-backto-PutBuilder" style="stroke:#A80036;stroke-width:1.0;"/><polygon fill="none" points="762,209.3,769,189.3,776,209.3,762,209.3" style="stroke:#A80036;stroke-width:1.0;"/><!--MD5=[41de941207a30fc56fec507875a6e313]
reverse link OperationBuilder to PostBuilder--><path codeLine="59" d="M835.09,201.22 C857.06,217.26 880.87,234.63 900.34,248.83 " fill="none" id="OperationBuilder-backto-PostBuilder" style="stroke:#A80036;stroke-width:1.0;"/><polygon fill="none" points="830.78,206.74,818.75,189.3,839.03,195.43,830.78,206.74" style="stroke:#A80036;stroke-width:1.0;"/><!--MD5=[ed8dce8bf895dc63fc2471283aae440d]
reverse link OperationBuilder to DeleteBuilder--><path codeLine="60" d="M889.45,195.94 C941.29,214.43 1000.3,235.47 1045.78,251.68 " fill="none" id="OperationBuilder-backto-DeleteBuilder" style="stroke:#A80036;stroke-width:1.0;"/><polygon fill="none" points="886.83,202.44,870.34,189.13,891.53,189.25,886.83,202.44" style="stroke:#A80036;stroke-width:1.0;"/><!--MD5=[d5bfa55a1b30530b4ef88ab29c2aac9c]
reverse link AbstractNodeHandler to OperationHandler--><path d="M794,438.26 C794,459.62 794,484.84 794,503.96 " fill="none" id="AbstractNodeHandler-backto-OperationHandler" style="stroke:#A80036;stroke-width:1.0;"/><polygon fill="none" points="787,438.18,794,418.18,801,438.18,787,438.18" style="stroke:#A80036;stroke-width:1.0;"/><!--MD5=[7750d886bb0e7a03892349d41225d540]
reverse link OperationHandler to GetHandler--><path d="M768.82,582.91 C756.94,605.29 743.12,631.31 732.75,650.85 " fill="none" id="OperationHandler-backto-GetHandler" style="stroke:#A80036;stroke-width:1.0;"/><polygon fill="none" points="762.67,579.57,778.23,565.19,775.03,586.14,762.67,579.57" style="stroke:#A80036;stroke-width:1.0;"/><!--MD5=[fd5d94a276069ad69c3c00e30f71f62b]
reverse link OperationHandler to PutHandler--><path d="M819.5,582.91 C831.54,605.29 845.54,631.31 856.05,650.85 " fill="none" id="OperationHandler-backto-PutHandler" style="stroke:#A80036;stroke-width:1.0;"/><polygon fill="none" points="813.28,586.12,809.97,565.19,825.61,579.49,813.28,586.12" style="stroke:#A80036;stroke-width:1.0;"/><!--MD5=[1255961e95b267d454335b708debe080]
reverse link OperationHandler to PostHandler--><path d="M859.37,575.5 C898.31,599.32 946.89,629.04 982.42,650.78 " fill="none" id="OperationHandler-backto-PostHandler" style="stroke:#A80036;stroke-width:1.0;"/><polygon fill="none" points="855.65,581.43,842.25,565.02,862.96,569.48,855.65,581.43" style="stroke:#A80036;stroke-width:1.0;"/><!--MD5=[4c7b6888cef1271c8d313074ea3db5e2]
reverse link OperationHandler to DeleteHandler--><path d="M897.76,571.75 C970.08,597.02 1065.03,630.2 1130.95,653.23 " fill="none" id="OperationHandler-backto-DeleteHandler" style="stroke:#A80036;stroke-width:1.0;"/><polygon fill="none" points="895.05,578.22,878.48,565.02,899.67,565.01,895.05,578.22" style="stroke:#A80036;stroke-width:1.0;"/><!--MD5=[11c7367518f919f45752e041a2167199]
reverse link OperationBuilder to Operation--><path codeLine="80" d="M604.47,189.8 C571.01,203.71 538.58,222.81 514,249 C482.81,282.23 453.27,404.88 437.93,477.85 " fill="none" id="OperationBuilder-backto-Operation" style="stroke:#A80036;stroke-width:1.0;"/><polygon fill="#A80036" points="616.83,184.91,609.7794,183.3971,605.6711,189.3235,612.7217,190.8364,616.83,184.91" style="stroke:#A80036;stroke-width:1.0;"/><!--MD5=[a595f0ba6d03ebe90dd3f54b6940097c]
link Operation to OperationHandler--><path codeLine="82" d="M533.09,534.5 C569.09,534.5 605.1,534.5 641.1,534.5 " fill="none" id="Operation-to-OperationHandler" style="stroke:#A80036;stroke-width:1.0;"/><polygon fill="#A80036" points="654.37,534.5,648.37,530.5,642.37,534.5,648.37,538.5,654.37,534.5" style="stroke:#A80036;stroke-width:1.0;"/><!--MD5=[6ada85a1b298be97d99220aa74bac496]
reverse link OperationHandler to OperationNode--><path codeLine="83" d="M718.54,575.98 C689.4,595.13 658.26,620.53 638,651 C564.53,761.5 599.78,812.42 567,941 C561.84,961.22 555.75,984.15 551.28,1000.78 " fill="none" id="OperationHandler-backto-OperationNode" style="stroke:#A80036;stroke-width:1.0;stroke-dasharray:7.0,7.0;"/><polygon fill="none" points="715.17,569.83,735.84,565.16,722.6,581.7,715.17,569.83" style="stroke:#A80036;stroke-width:1.0;"/><!--MD5=[32dda02609ab95a086895dd6adf54004]
@startuml

interface NodeWithId #DDD
interface Operation extends NodeWithId {
    String url()
    Headers headers()
    List<Validator> responseValidators()
    List<? extends Node> steps()
    List<String> returnVariables()
    - -
}
interface Get {
    List<HttpStatusRetryWhile> retryWhile()
}
interface Put {
    BodyPublisher bodyPublisher()
}
interface Post {
    BodyPublisher bodyPublisher()
}
interface Delete {
}

Operation <|- - Get
Operation <|- - - Put
Operation <|- - - Post
Operation <|- - Delete

abstract class FlowNodeWithId #DDD
abstract class OperationNode <Operation>
class GetNode <Get> extends OperationNode
class PutNode <Put> extends OperationNode
class PostNode <Post> extends OperationNode
class DeleteNode <Delete> extends OperationNode

FlowNodeWithId <|- - OperationNode

abstract class NodeWithIdBuilder #DDD
abstract class OperationBuilder<TYPE extends OperationNode> {
    this(BuilderType)
    - -
    TYPE build()
}
class GetBuilder {
    super(BuilderType.Get)
}
class PutBuilder {
    super(BuilderType.Put)
}
class PostBuilder {
    super(BuilderType.Post)
}
class DeleteBuilder {
    super(BuilderType.Delete)
}

NodeWithIdBuilder <|- - OperationBuilder
OperationBuilder <|- - GetBuilder
OperationBuilder <|- - PutBuilder
OperationBuilder <|- - PostBuilder
OperationBuilder <|- - DeleteBuilder


abstract AbstractNodeHandler #DDD
abstract OperationHandler<TYPE extends Operation> extends AbstractNodeHandler {
    this(TYPE)
}
class GetHandler<Get> extends OperationHandler {
    super(Get)
}
class PutHandler<Put> extends OperationHandler {
    super(Put)
}
class PostHandler<Post> extends OperationHandler {
    super(Post)
}
class DeleteHandler<Delete> extends OperationHandler {
    super(Delete)
}

OperationBuilder *- - - - Operation

OperationHandler *-left- - Operation
OperationHandler <|..... OperationNode

@enduml

PlantUML version 1.2020.26(Mon Dec 21 18:45:07 CET 2020)
(GPL source distribution)
Java Runtime: OpenJDK Runtime Environment
JVM: OpenJDK 64-Bit Server VM
Default Encoding: UTF-8
Language: en
Country: NO
--></g></svg>