<?xml version="1.0" encoding="UTF-8" standalone="no"?><svg xmlns="http://www.w3.org/2000/svg" xmlns:xlink="http://www.w3.org/1999/xlink" contentScriptType="application/ecmascript" contentStyleType="text/css" height="1063px" preserveAspectRatio="none" style="width:1471px;height:1063px;" version="1.1" viewBox="0 0 1471 1063" width="1471px" zoomAndPan="magnify"><defs><filter height="300%" id="f1s234qydj6s40" width="300%" x="-1" y="-1"><feGaussianBlur result="blurOut" stdDeviation="2.0"/><feColorMatrix in="blurOut" result="blurOut2" type="matrix" values="0 0 0 0 0 0 0 0 0 0 0 0 0 0 0 0 0 0 .4 0"/><feOffset dx="4.0" dy="4.0" in="blurOut2" result="blurOut3"/><feBlend in="SourceGraphic" in2="blurOut3" mode="normal"/></filter></defs><g><!--MD5=[07b660542a5cf2b6fdf3a2b2a715284a]
cluster java.httpClient.native--><polygon fill="#EEEEEE" filter="url(#f1s234qydj6s40)" points="61.5,957,219.5,957,226.5,979.4883,1454.5,979.4883,1454.5,1056,61.5,1056,61.5,957" style="stroke:#000000;stroke-width:1.5;"/><line style="stroke:#000000;stroke-width:1.5;" x1="61.5" x2="226.5" y1="979.4883" y2="979.4883"/><text fill="#000000" font-family="sans-serif" font-size="14" font-weight="bold" lengthAdjust="spacingAndGlyphs" textLength="152" x="65.5" y="972.5352">java.httpClient.native</text><!--MD5=[c9ee0fd1fa300da58194d865401d5333]
cluster http.bodySubscriber--><polygon fill="#EEEEEE" filter="url(#f1s234qydj6s40)" points="1125.5,6,1274.5,6,1281.5,28.4883,1345.5,28.4883,1345.5,225,1125.5,225,1125.5,6" style="stroke:#000000;stroke-width:1.5;"/><line style="stroke:#000000;stroke-width:1.5;" x1="1125.5" x2="1281.5" y1="28.4883" y2="28.4883"/><text fill="#000000" font-family="sans-serif" font-size="14" font-weight="bold" lengthAdjust="spacingAndGlyphs" textLength="143" x="1129.5" y="21.5352">http.bodySubscriber</text><!--MD5=[18e87662fe9b5733f8895e917696f16f]
class HttpClientDelegate--><rect codeLine="87" fill="#FEFECE" filter="url(#f1s234qydj6s40)" height="48" id="HttpClientDelegate" style="stroke:#A80036;stroke-width:1.5;" width="140" x="328.5" y="992"/><ellipse cx="343.5" cy="1008" fill="#ADD1B2" rx="11" ry="11" style="stroke:#A80036;stroke-width:1.0;"/><path d="M345.9731,1014.1431 Q345.3921,1014.4419 344.7529,1014.5913 Q344.1138,1014.7407 343.4082,1014.7407 Q340.9014,1014.7407 339.5815,1013.0889 Q338.2617,1011.437 338.2617,1008.3159 Q338.2617,1005.1865 339.5815,1003.5347 Q340.9014,1001.8828 343.4082,1001.8828 Q344.1138,1001.8828 344.7612,1002.0322 Q345.4087,1002.1816 345.9731,1002.4805 L345.9731,1005.2031 Q345.3423,1004.6221 344.7488,1004.3523 Q344.1553,1004.0825 343.5244,1004.0825 Q342.1797,1004.0825 341.4949,1005.1492 Q340.8101,1006.2158 340.8101,1008.3159 Q340.8101,1010.4077 341.4949,1011.4744 Q342.1797,1012.541 343.5244,1012.541 Q344.1553,1012.541 344.7488,1012.2712 Q345.3423,1012.0015 345.9731,1011.4204 Z " fill="#000000"/><text fill="#000000" font-family="sans-serif" font-size="12" lengthAdjust="spacingAndGlyphs" textLength="108" x="357.5" y="1012.5352">HttpClientDelegate</text><line style="stroke:#A80036;stroke-width:1.5;" x1="329.5" x2="467.5" y1="1024" y2="1024"/><line style="stroke:#A80036;stroke-width:1.5;" x1="329.5" x2="467.5" y1="1032" y2="1032"/><!--MD5=[9e0be4c016889773ef2c25205e2f6a87]
class HttpClientDelegate.ClientBuilder--><rect codeLine="88" fill="#FEFECE" filter="url(#f1s234qydj6s40)" height="48" id="HttpClientDelegate.ClientBuilder" style="stroke:#A80036;stroke-width:1.5;" width="216" x="77.5" y="992"/><ellipse cx="92.5" cy="1008" fill="#ADD1B2" rx="11" ry="11" style="stroke:#A80036;stroke-width:1.0;"/><path d="M94.9731,1014.1431 Q94.3921,1014.4419 93.7529,1014.5913 Q93.1138,1014.7407 92.4082,1014.7407 Q89.9014,1014.7407 88.5815,1013.0889 Q87.2617,1011.437 87.2617,1008.3159 Q87.2617,1005.1865 88.5815,1003.5347 Q89.9014,1001.8828 92.4082,1001.8828 Q93.1138,1001.8828 93.7612,1002.0322 Q94.4087,1002.1816 94.9731,1002.4805 L94.9731,1005.2031 Q94.3423,1004.6221 93.7488,1004.3523 Q93.1553,1004.0825 92.5244,1004.0825 Q91.1797,1004.0825 90.4949,1005.1492 Q89.8101,1006.2158 89.8101,1008.3159 Q89.8101,1010.4077 90.4949,1011.4744 Q91.1797,1012.541 92.5244,1012.541 Q93.1553,1012.541 93.7488,1012.2712 Q94.3423,1012.0015 94.9731,1011.4204 Z " fill="#000000"/><text fill="#000000" font-family="sans-serif" font-size="12" lengthAdjust="spacingAndGlyphs" textLength="184" x="106.5" y="1012.5352">HttpClientDelegate.ClientBuilder</text><line style="stroke:#A80036;stroke-width:1.5;" x1="78.5" x2="292.5" y1="1024" y2="1024"/><line style="stroke:#A80036;stroke-width:1.5;" x1="78.5" x2="292.5" y1="1032" y2="1032"/><!--MD5=[972690a56c3ae18bdf229af9c2b4fb97]
class HttpRequestDelegate--><rect codeLine="89" fill="#FEFECE" filter="url(#f1s234qydj6s40)" height="48" id="HttpRequestDelegate" style="stroke:#A80036;stroke-width:1.5;" width="155" x="785" y="992"/><ellipse cx="800" cy="1008" fill="#ADD1B2" rx="11" ry="11" style="stroke:#A80036;stroke-width:1.0;"/><path d="M802.4731,1014.1431 Q801.8921,1014.4419 801.2529,1014.5913 Q800.6138,1014.7407 799.9082,1014.7407 Q797.4014,1014.7407 796.0815,1013.0889 Q794.7617,1011.437 794.7617,1008.3159 Q794.7617,1005.1865 796.0815,1003.5347 Q797.4014,1001.8828 799.9082,1001.8828 Q800.6138,1001.8828 801.2612,1002.0322 Q801.9087,1002.1816 802.4731,1002.4805 L802.4731,1005.2031 Q801.8423,1004.6221 801.2488,1004.3523 Q800.6553,1004.0825 800.0244,1004.0825 Q798.6797,1004.0825 797.9949,1005.1492 Q797.3101,1006.2158 797.3101,1008.3159 Q797.3101,1010.4077 797.9949,1011.4744 Q798.6797,1012.541 800.0244,1012.541 Q800.6553,1012.541 801.2488,1012.2712 Q801.8423,1012.0015 802.4731,1011.4204 Z " fill="#000000"/><text fill="#000000" font-family="sans-serif" font-size="12" lengthAdjust="spacingAndGlyphs" textLength="123" x="814" y="1012.5352">HttpRequestDelegate</text><line style="stroke:#A80036;stroke-width:1.5;" x1="786" x2="939" y1="1024" y2="1024"/><line style="stroke:#A80036;stroke-width:1.5;" x1="786" x2="939" y1="1032" y2="1032"/><!--MD5=[e248ac24b00d8ee9dd87b7eef4fade51]
class HttpRequestDelegate.RequestBuilder--><rect codeLine="90" fill="#FEFECE" filter="url(#f1s234qydj6s40)" height="48" id="HttpRequestDelegate.RequestBuilder" style="stroke:#A80036;stroke-width:1.5;" width="246" x="503.5" y="992"/><ellipse cx="518.5" cy="1008" fill="#ADD1B2" rx="11" ry="11" style="stroke:#A80036;stroke-width:1.0;"/><path d="M520.9731,1014.1431 Q520.3921,1014.4419 519.7529,1014.5913 Q519.1138,1014.7407 518.4082,1014.7407 Q515.9014,1014.7407 514.5815,1013.0889 Q513.2617,1011.437 513.2617,1008.3159 Q513.2617,1005.1865 514.5815,1003.5347 Q515.9014,1001.8828 518.4082,1001.8828 Q519.1138,1001.8828 519.7612,1002.0322 Q520.4087,1002.1816 520.9731,1002.4805 L520.9731,1005.2031 Q520.3423,1004.6221 519.7488,1004.3523 Q519.1553,1004.0825 518.5244,1004.0825 Q517.1797,1004.0825 516.4949,1005.1492 Q515.8101,1006.2158 515.8101,1008.3159 Q515.8101,1010.4077 516.4949,1011.4744 Q517.1797,1012.541 518.5244,1012.541 Q519.1553,1012.541 519.7488,1012.2712 Q520.3423,1012.0015 520.9731,1011.4204 Z " fill="#000000"/><text fill="#000000" font-family="sans-serif" font-size="12" lengthAdjust="spacingAndGlyphs" textLength="214" x="532.5" y="1012.5352">HttpRequestDelegate.RequestBuilder</text><line style="stroke:#A80036;stroke-width:1.5;" x1="504.5" x2="748.5" y1="1024" y2="1024"/><line style="stroke:#A80036;stroke-width:1.5;" x1="504.5" x2="748.5" y1="1032" y2="1032"/><!--MD5=[67dfa492859feab34ed53b7f6d4c9926]
class HttpResponseDelegate--><rect codeLine="91" fill="#FEFECE" filter="url(#f1s234qydj6s40)" height="48" id="HttpResponseDelegate" style="stroke:#A80036;stroke-width:1.5;" width="164" x="1274.5" y="992"/><ellipse cx="1289.5" cy="1008" fill="#ADD1B2" rx="11" ry="11" style="stroke:#A80036;stroke-width:1.0;"/><path d="M1291.9731,1014.1431 Q1291.3921,1014.4419 1290.7529,1014.5913 Q1290.1138,1014.7407 1289.4082,1014.7407 Q1286.9014,1014.7407 1285.5815,1013.0889 Q1284.2617,1011.437 1284.2617,1008.3159 Q1284.2617,1005.1865 1285.5815,1003.5347 Q1286.9014,1001.8828 1289.4082,1001.8828 Q1290.1138,1001.8828 1290.7612,1002.0322 Q1291.4087,1002.1816 1291.9731,1002.4805 L1291.9731,1005.2031 Q1291.3423,1004.6221 1290.7488,1004.3523 Q1290.1553,1004.0825 1289.5244,1004.0825 Q1288.1797,1004.0825 1287.4949,1005.1492 Q1286.8101,1006.2158 1286.8101,1008.3159 Q1286.8101,1010.4077 1287.4949,1011.4744 Q1288.1797,1012.541 1289.5244,1012.541 Q1290.1553,1012.541 1290.7488,1012.2712 Q1291.3423,1012.0015 1291.9731,1011.4204 Z " fill="#000000"/><text fill="#000000" font-family="sans-serif" font-size="12" lengthAdjust="spacingAndGlyphs" textLength="132" x="1303.5" y="1012.5352">HttpResponseDelegate</text><line style="stroke:#A80036;stroke-width:1.5;" x1="1275.5" x2="1437.5" y1="1024" y2="1024"/><line style="stroke:#A80036;stroke-width:1.5;" x1="1275.5" x2="1437.5" y1="1032" y2="1032"/><!--MD5=[4738c6902080903df92e8cf1c0671730]
class HttpResponseDelegate.ResponseBuilder--><rect codeLine="92" fill="#FEFECE" filter="url(#f1s234qydj6s40)" height="48" id="HttpResponseDelegate.ResponseBuilder" style="stroke:#A80036;stroke-width:1.5;" width="264" x="975.5" y="992"/><ellipse cx="990.5" cy="1008" fill="#ADD1B2" rx="11" ry="11" style="stroke:#A80036;stroke-width:1.0;"/><path d="M992.9731,1014.1431 Q992.3921,1014.4419 991.7529,1014.5913 Q991.1138,1014.7407 990.4082,1014.7407 Q987.9014,1014.7407 986.5815,1013.0889 Q985.2617,1011.437 985.2617,1008.3159 Q985.2617,1005.1865 986.5815,1003.5347 Q987.9014,1001.8828 990.4082,1001.8828 Q991.1138,1001.8828 991.7612,1002.0322 Q992.4087,1002.1816 992.9731,1002.4805 L992.9731,1005.2031 Q992.3423,1004.6221 991.7488,1004.3523 Q991.1553,1004.0825 990.5244,1004.0825 Q989.1797,1004.0825 988.4949,1005.1492 Q987.8101,1006.2158 987.8101,1008.3159 Q987.8101,1010.4077 988.4949,1011.4744 Q989.1797,1012.541 990.5244,1012.541 Q991.1553,1012.541 991.7488,1012.2712 Q992.3423,1012.0015 992.9731,1011.4204 Z " fill="#000000"/><text fill="#000000" font-family="sans-serif" font-size="12" lengthAdjust="spacingAndGlyphs" textLength="232" x="1004.5" y="1012.5352">HttpResponseDelegate.ResponseBuilder</text><line style="stroke:#A80036;stroke-width:1.5;" x1="976.5" x2="1238.5" y1="1024" y2="1024"/><line style="stroke:#A80036;stroke-width:1.5;" x1="976.5" x2="1238.5" y1="1032" y2="1032"/><!--MD5=[1aafbf539e74cdc37030554382c6e8c0]
class FileBodyHandler--><rect codeLine="96" fill="#FEFECE" filter="url(#f1s234qydj6s40)" height="54.2656" id="FileBodyHandler" style="stroke:#A80036;stroke-width:1.5;" width="154" x="1158.5" y="155"/><ellipse cx="1173.5" cy="174.1328" fill="#ADD1B2" rx="11" ry="11" style="stroke:#A80036;stroke-width:1.0;"/><path d="M1175.9731,180.2759 Q1175.3921,180.5747 1174.7529,180.7241 Q1174.1138,180.8735 1173.4082,180.8735 Q1170.9014,180.8735 1169.5815,179.2217 Q1168.2617,177.5698 1168.2617,174.4487 Q1168.2617,171.3193 1169.5815,169.6675 Q1170.9014,168.0156 1173.4082,168.0156 Q1174.1138,168.0156 1174.7612,168.165 Q1175.4087,168.3145 1175.9731,168.6133 L1175.9731,171.3359 Q1175.3423,170.7549 1174.7488,170.4851 Q1174.1553,170.2153 1173.5244,170.2153 Q1172.1797,170.2153 1171.4949,171.282 Q1170.8101,172.3486 1170.8101,174.4487 Q1170.8101,176.5405 1171.4949,177.6072 Q1172.1797,178.6738 1173.5244,178.6738 Q1174.1553,178.6738 1174.7488,178.4041 Q1175.3423,178.1343 1175.9731,177.5532 Z " fill="#000000"/><text fill="#000000" font-family="sans-serif" font-size="12" font-style="italic" lengthAdjust="spacingAndGlyphs" textLength="86" x="1191" y="171.6016">«BodyHandler»</text><text fill="#000000" font-family="sans-serif" font-size="12" lengthAdjust="spacingAndGlyphs" textLength="93" x="1187.5" y="185.7344">FileBodyHandler</text><rect fill="#FFFFFF" height="16.1328" style="stroke:#000000;stroke-width:1.0;stroke-dasharray:2.0,2.0;" width="27" x="1288.5" y="152"/><text fill="#000000" font-family="sans-serif" font-size="12" font-style="italic" lengthAdjust="spacingAndGlyphs" textLength="25" x="1289.5" y="164.6016">Path</text><line style="stroke:#A80036;stroke-width:1.5;" x1="1159.5" x2="1311.5" y1="193.2656" y2="193.2656"/><line style="stroke:#A80036;stroke-width:1.5;" x1="1159.5" x2="1311.5" y1="201.2656" y2="201.2656"/><!--MD5=[e01f02942efcb8f5c1aa16790bd69f3d]
class TempFileBodyHandler--><rect codeLine="97" fill="#FEFECE" filter="url(#f1s234qydj6s40)" height="54.2656" id="TempFileBodyHandler" style="stroke:#A80036;stroke-width:1.5;" width="188" x="1141.5" y="41"/><ellipse cx="1156.5" cy="60.1328" fill="#ADD1B2" rx="11" ry="11" style="stroke:#A80036;stroke-width:1.0;"/><path d="M1158.9731,66.2759 Q1158.3921,66.5747 1157.7529,66.7241 Q1157.1138,66.8735 1156.4082,66.8735 Q1153.9014,66.8735 1152.5815,65.2217 Q1151.2617,63.5698 1151.2617,60.4487 Q1151.2617,57.3193 1152.5815,55.6675 Q1153.9014,54.0156 1156.4082,54.0156 Q1157.1138,54.0156 1157.7612,54.165 Q1158.4087,54.3145 1158.9731,54.6133 L1158.9731,57.3359 Q1158.3423,56.7549 1157.7488,56.4851 Q1157.1553,56.2153 1156.5244,56.2153 Q1155.1797,56.2153 1154.4949,57.282 Q1153.8101,58.3486 1153.8101,60.4487 Q1153.8101,62.5405 1154.4949,63.6072 Q1155.1797,64.6738 1156.5244,64.6738 Q1157.1553,64.6738 1157.7488,64.4041 Q1158.3423,64.1343 1158.9731,63.5532 Z " fill="#000000"/><text fill="#000000" font-family="sans-serif" font-size="12" font-style="italic" lengthAdjust="spacingAndGlyphs" textLength="105" x="1181.5" y="57.6016">«FileBodyHandler»</text><text fill="#000000" font-family="sans-serif" font-size="12" lengthAdjust="spacingAndGlyphs" textLength="127" x="1170.5" y="71.7344">TempFileBodyHandler</text><rect fill="#FFFFFF" height="16.1328" style="stroke:#000000;stroke-width:1.0;stroke-dasharray:2.0,2.0;" width="27" x="1305.5" y="38"/><text fill="#000000" font-family="sans-serif" font-size="12" font-style="italic" lengthAdjust="spacingAndGlyphs" textLength="25" x="1306.5" y="50.6016">Path</text><line style="stroke:#A80036;stroke-width:1.5;" x1="1142.5" x2="1328.5" y1="79.2656" y2="79.2656"/><line style="stroke:#A80036;stroke-width:1.5;" x1="1142.5" x2="1328.5" y1="87.2656" y2="87.2656"/><!--MD5=[ed6624c6556d5e7b1bd23032162d20b7]
class Client--><rect codeLine="2" fill="#FEFECE" filter="url(#f1s234qydj6s40)" height="151.6406" id="Client" style="stroke:#A80036;stroke-width:1.5;" width="545" x="94" y="269"/><ellipse cx="346.25" cy="285" fill="#B4A7E5" rx="11" ry="11" style="stroke:#A80036;stroke-width:1.0;"/><path d="M342.6777,281.2651 L342.6777,279.1069 L350.0571,279.1069 L350.0571,281.2651 L347.5918,281.2651 L347.5918,289.3418 L350.0571,289.3418 L350.0571,291.5 L342.6777,291.5 L342.6777,289.3418 L345.1431,289.3418 L345.1431,281.2651 Z " fill="#000000"/><text fill="#000000" font-family="sans-serif" font-size="12" font-style="italic" lengthAdjust="spacingAndGlyphs" textLength="32" x="366.75" y="289.5352">Client</text><line style="stroke:#A80036;stroke-width:1.5;" x1="95" x2="638" y1="301" y2="301"/><text fill="#000000" font-family="sans-serif" font-size="11" lengthAdjust="spacingAndGlyphs" textLength="92" x="100" y="315.6348">Version version()</text><text fill="#000000" font-family="sans-serif" font-size="11" lengthAdjust="spacingAndGlyphs" textLength="176" x="100" y="328.5898">Response send(Request request)</text><text fill="#000000" font-family="sans-serif" font-size="11" lengthAdjust="spacingAndGlyphs" textLength="347" x="100" y="341.5449">Response send(Request request, BodyHandler&lt;R&gt; bodyHandler)</text><text fill="#000000" font-family="sans-serif" font-size="11" lengthAdjust="spacingAndGlyphs" textLength="329" x="100" y="354.5">CompletableFuture&lt;Response&gt; sendAsync(Request request)</text><text fill="#000000" font-family="sans-serif" font-size="11" lengthAdjust="spacingAndGlyphs" textLength="533" x="100" y="367.4551">CompletableFuture&lt;Response&gt; sendAsync(Request request, BodyHandler&lt;RESULT&gt; bodyHandler)</text><text fill="#000000" font-family="sans-serif" font-size="11" lengthAdjust="spacingAndGlyphs" textLength="109" x="100" y="380.4102">Object getDelegate()</text><line style="stroke:#A80036;stroke-width:1.0;" x1="95" x2="638" y1="386.7305" y2="386.7305"/><text fill="#000000" font-family="sans-serif" font-size="11" lengthAdjust="spacingAndGlyphs" textLength="126" x="100" y="401.3652">static Client newClient()</text><text fill="#000000" font-family="sans-serif" font-size="11" lengthAdjust="spacingAndGlyphs" textLength="169" x="100" y="414.3203">static Builder newClientBuilder()</text><!--MD5=[33bae59c25a085c7927fb6f740869016]
class Client.Builder--><rect codeLine="13" fill="#FEFECE" filter="url(#f1s234qydj6s40)" height="190.5059" id="Client.Builder" style="stroke:#A80036;stroke-width:1.5;" width="341" x="7" y="680"/><ellipse cx="135.25" cy="696" fill="#B4A7E5" rx="11" ry="11" style="stroke:#A80036;stroke-width:1.0;"/><path d="M131.6777,692.2651 L131.6777,690.1069 L139.0571,690.1069 L139.0571,692.2651 L136.5918,692.2651 L136.5918,700.3418 L139.0571,700.3418 L139.0571,702.5 L131.6777,702.5 L131.6777,700.3418 L134.1431,700.3418 L134.1431,692.2651 Z " fill="#000000"/><text fill="#000000" font-family="sans-serif" font-size="12" font-style="italic" lengthAdjust="spacingAndGlyphs" textLength="76" x="155.75" y="700.5352">Client.Builder</text><line style="stroke:#A80036;stroke-width:1.5;" x1="8" x2="347" y1="712" y2="712"/><text fill="#000000" font-family="sans-serif" font-size="11" lengthAdjust="spacingAndGlyphs" textLength="172" x="13" y="726.6348">Builder version(Version version)</text><text fill="#000000" font-family="sans-serif" font-size="11" lengthAdjust="spacingAndGlyphs" textLength="145" x="13" y="739.5898">Builder priority(int priority)</text><text fill="#000000" font-family="sans-serif" font-size="11" lengthAdjust="spacingAndGlyphs" textLength="269" x="13" y="752.5449">Builder authenticator(Authenticator authenticator)</text><text fill="#000000" font-family="sans-serif" font-size="11" lengthAdjust="spacingAndGlyphs" textLength="228" x="13" y="765.5">Builder sslContext(SSLContext sslContext)</text><text fill="#000000" font-family="sans-serif" font-size="11" lengthAdjust="spacingAndGlyphs" textLength="279" x="13" y="778.4551">Builder sslParameters(SSLParameters sslParameters)</text><text fill="#000000" font-family="sans-serif" font-size="11" lengthAdjust="spacingAndGlyphs" textLength="329" x="13" y="791.4102">Builder x509TrustManager(X509TrustManager trustManager)</text><text fill="#000000" font-family="sans-serif" font-size="11" lengthAdjust="spacingAndGlyphs" textLength="195" x="13" y="804.3652">Builder executor(Executor executor)</text><text fill="#000000" font-family="sans-serif" font-size="11" lengthAdjust="spacingAndGlyphs" textLength="231" x="13" y="817.3203">Builder connectTimeout(Duration duration)</text><text fill="#000000" font-family="sans-serif" font-size="11" lengthAdjust="spacingAndGlyphs" textLength="209" x="13" y="830.2754">Builder followRedirects(Redirect policy)</text><text fill="#000000" font-family="sans-serif" font-size="11" lengthAdjust="spacingAndGlyphs" textLength="232" x="13" y="843.2305">Builder proxy(ProxySelector proxySelector)</text><text fill="#000000" font-family="sans-serif" font-size="11" lengthAdjust="spacingAndGlyphs" textLength="69" x="13" y="856.1855">Client build()</text><line style="stroke:#A80036;stroke-width:1.0;" x1="8" x2="347" y1="862.5059" y2="862.5059"/><!--MD5=[ed17eb27918d6d975aac91b8ab0bf633]
class Method--><rect codeLine="28" fill="#FEFECE" filter="url(#f1s234qydj6s40)" height="112.7754" id="Method" style="stroke:#A80036;stroke-width:1.5;" width="75" x="819" y="494"/><ellipse cx="834" cy="510" fill="#EB937F" rx="11" ry="11" style="stroke:#A80036;stroke-width:1.0;"/><path d="M837.6143,516.5 L829.8945,516.5 L829.8945,504.1069 L837.6143,504.1069 L837.6143,506.2651 L832.3433,506.2651 L832.3433,508.938 L837.1162,508.938 L837.1162,511.0962 L832.3433,511.0962 L832.3433,514.3418 L837.6143,514.3418 Z " fill="#000000"/><text fill="#000000" font-family="sans-serif" font-size="12" lengthAdjust="spacingAndGlyphs" textLength="43" x="848" y="514.5352">Method</text><line style="stroke:#A80036;stroke-width:1.5;" x1="820" x2="893" y1="526" y2="526"/><text fill="#000000" font-family="sans-serif" font-size="11" lengthAdjust="spacingAndGlyphs" textLength="21" x="825" y="540.6348">GET</text><text fill="#000000" font-family="sans-serif" font-size="11" lengthAdjust="spacingAndGlyphs" textLength="21" x="825" y="553.5898">PUT</text><text fill="#000000" font-family="sans-serif" font-size="11" lengthAdjust="spacingAndGlyphs" textLength="28" x="825" y="566.5449">POST</text><text fill="#000000" font-family="sans-serif" font-size="11" lengthAdjust="spacingAndGlyphs" textLength="39" x="825" y="579.5">DELETE</text><text fill="#000000" font-family="sans-serif" font-size="11" lengthAdjust="spacingAndGlyphs" textLength="48" x="825" y="592.4551">OPTIONS</text><line style="stroke:#A80036;stroke-width:1.5;" x1="820" x2="893" y1="598.7754" y2="598.7754"/><!--MD5=[0851f84a889f989e7bb0bebc385d0f09]
class Request--><rect codeLine="35" fill="#FEFECE" filter="url(#f1s234qydj6s40)" height="112.7754" id="Request" style="stroke:#A80036;stroke-width:1.5;" width="193" x="591" y="494"/><ellipse cx="659.75" cy="510" fill="#B4A7E5" rx="11" ry="11" style="stroke:#A80036;stroke-width:1.0;"/><path d="M656.1777,506.2651 L656.1777,504.1069 L663.5571,504.1069 L663.5571,506.2651 L661.0918,506.2651 L661.0918,514.3418 L663.5571,514.3418 L663.5571,516.5 L656.1777,516.5 L656.1777,514.3418 L658.6431,514.3418 L658.6431,506.2651 Z " fill="#000000"/><text fill="#000000" font-family="sans-serif" font-size="12" font-style="italic" lengthAdjust="spacingAndGlyphs" textLength="47" x="680.25" y="514.5352">Request</text><line style="stroke:#A80036;stroke-width:1.5;" x1="592" x2="783" y1="526" y2="526"/><text fill="#000000" font-family="sans-serif" font-size="11" lengthAdjust="spacingAndGlyphs" textLength="58" x="597" y="540.6348">String url()</text><text fill="#000000" font-family="sans-serif" font-size="11" lengthAdjust="spacingAndGlyphs" textLength="92" x="597" y="553.5898">Method method()</text><text fill="#000000" font-family="sans-serif" font-size="11" lengthAdjust="spacingAndGlyphs" textLength="98" x="597" y="566.5449">Headers headers()</text><text fill="#000000" font-family="sans-serif" font-size="11" lengthAdjust="spacingAndGlyphs" textLength="109" x="597" y="579.5">Object getDelegate()</text><line style="stroke:#A80036;stroke-width:1.0;" x1="592" x2="783" y1="585.8203" y2="585.8203"/><text fill="#000000" font-family="sans-serif" font-size="11" lengthAdjust="spacingAndGlyphs" textLength="181" x="597" y="600.4551">static Builder newRequestBuilder()</text><!--MD5=[efa9d7953f5313d1d6a908484a3575a1]
class Request.Builder--><rect codeLine="43" fill="#FEFECE" filter="url(#f1s234qydj6s40)" height="190.5059" id="Request.Builder" style="stroke:#A80036;stroke-width:1.5;" width="317" x="477" y="680"/><ellipse cx="585.75" cy="696" fill="#B4A7E5" rx="11" ry="11" style="stroke:#A80036;stroke-width:1.0;"/><path d="M582.1777,692.2651 L582.1777,690.1069 L589.5571,690.1069 L589.5571,692.2651 L587.0918,692.2651 L587.0918,700.3418 L589.5571,700.3418 L589.5571,702.5 L582.1777,702.5 L582.1777,700.3418 L584.6431,700.3418 L584.6431,692.2651 Z " fill="#000000"/><text fill="#000000" font-family="sans-serif" font-size="12" font-style="italic" lengthAdjust="spacingAndGlyphs" textLength="91" x="606.25" y="700.5352">Request.Builder</text><line style="stroke:#A80036;stroke-width:1.5;" x1="478" x2="793" y1="712" y2="712"/><text fill="#000000" font-family="sans-serif" font-size="11" lengthAdjust="spacingAndGlyphs" textLength="113" x="483" y="726.6348">Builder url(String url)</text><text fill="#000000" font-family="sans-serif" font-size="11" lengthAdjust="spacingAndGlyphs" textLength="218" x="483" y="739.5898">Builder header(String name, String value)</text><text fill="#000000" font-family="sans-serif" font-size="11" lengthAdjust="spacingAndGlyphs" textLength="214" x="483" y="752.5449">Builder expectContinue(boolean enable)</text><text fill="#000000" font-family="sans-serif" font-size="11" lengthAdjust="spacingAndGlyphs" textLength="185" x="483" y="765.5">Builder timeout(Duration duration)</text><text fill="#000000" font-family="sans-serif" font-size="11" lengthAdjust="spacingAndGlyphs" textLength="69" x="483" y="778.4551">Builder GET()</text><text fill="#000000" font-family="sans-serif" font-size="11" lengthAdjust="spacingAndGlyphs" textLength="132" x="483" y="791.4102">Builder PUT(byte[] bytes)</text><text fill="#000000" font-family="sans-serif" font-size="11" lengthAdjust="spacingAndGlyphs" textLength="298" x="483" y="804.3652">Builder PUT(Flow.Publisher&lt;ByteBuffer&gt; bodyPublisher)</text><text fill="#000000" font-family="sans-serif" font-size="11" lengthAdjust="spacingAndGlyphs" textLength="139" x="483" y="817.3203">Builder POST(byte[] bytes)</text><text fill="#000000" font-family="sans-serif" font-size="11" lengthAdjust="spacingAndGlyphs" textLength="305" x="483" y="830.2754">Builder POST(Flow.Publisher&lt;ByteBuffer&gt; bodyPublisher)</text><text fill="#000000" font-family="sans-serif" font-size="11" lengthAdjust="spacingAndGlyphs" textLength="87" x="483" y="843.2305">Builder DELETE()</text><text fill="#000000" font-family="sans-serif" font-size="11" lengthAdjust="spacingAndGlyphs" textLength="81" x="483" y="856.1855">Request build()</text><line style="stroke:#A80036;stroke-width:1.0;" x1="478" x2="793" y1="862.5059" y2="862.5059"/><!--MD5=[62ba8ad8b61caf20139235a169a8c31d]
class Response--><rect codeLine="58" fill="#FEFECE" filter="url(#f1s234qydj6s40)" height="138.6855" id="Response" style="stroke:#A80036;stroke-width:1.5;" width="277" x="1097" y="481"/><ellipse cx="1203.25" cy="497" fill="#B4A7E5" rx="11" ry="11" style="stroke:#A80036;stroke-width:1.0;"/><path d="M1199.6777,493.2651 L1199.6777,491.1069 L1207.0571,491.1069 L1207.0571,493.2651 L1204.5918,493.2651 L1204.5918,501.3418 L1207.0571,501.3418 L1207.0571,503.5 L1199.6777,503.5 L1199.6777,501.3418 L1202.1431,501.3418 L1202.1431,493.2651 Z " fill="#000000"/><text fill="#000000" font-family="sans-serif" font-size="12" font-style="italic" lengthAdjust="spacingAndGlyphs" textLength="56" x="1223.75" y="501.5352">Response</text><line style="stroke:#A80036;stroke-width:1.5;" x1="1098" x2="1373" y1="513" y2="513"/><text fill="#000000" font-family="sans-serif" font-size="11" lengthAdjust="spacingAndGlyphs" textLength="58" x="1103" y="527.6348">String url()</text><text fill="#000000" font-family="sans-serif" font-size="11" lengthAdjust="spacingAndGlyphs" textLength="98" x="1103" y="540.5898">Headers headers()</text><text fill="#000000" font-family="sans-serif" font-size="11" lengthAdjust="spacingAndGlyphs" textLength="86" x="1103" y="553.5449">int statusCode()</text><text fill="#000000" font-family="sans-serif" font-size="11" lengthAdjust="spacingAndGlyphs" textLength="69" x="1103" y="566.5">byte[] body()</text><text fill="#000000" font-family="sans-serif" font-size="11" lengthAdjust="spacingAndGlyphs" textLength="265" x="1103" y="579.4551">&lt;R&gt; Optional&lt;BodyHandler&lt;R&gt;&gt; bodyHandler()</text><text fill="#000000" font-family="sans-serif" font-size="11" lengthAdjust="spacingAndGlyphs" textLength="226" x="1103" y="592.4102">Optional&lt;Response&gt; previousResponse()</text><line style="stroke:#A80036;stroke-width:1.0;" x1="1098" x2="1373" y1="598.7305" y2="598.7305"/><text fill="#000000" font-family="sans-serif" font-size="11" lengthAdjust="spacingAndGlyphs" textLength="190" x="1103" y="613.3652">static Builder newResponseBuilder()</text><!--MD5=[35b6bd425578d32dc4c8d91c32bb07ec]
class Response.Builder--><rect codeLine="68" fill="#FEFECE" filter="url(#f1s234qydj6s40)" height="86.8652" id="Response.Builder" style="stroke:#A80036;stroke-width:1.5;" width="308" x="968.5" y="732"/><ellipse cx="1068.25" cy="748" fill="#B4A7E5" rx="11" ry="11" style="stroke:#A80036;stroke-width:1.0;"/><path d="M1064.6777,744.2651 L1064.6777,742.1069 L1072.0571,742.1069 L1072.0571,744.2651 L1069.5918,744.2651 L1069.5918,752.3418 L1072.0571,752.3418 L1072.0571,754.5 L1064.6777,754.5 L1064.6777,752.3418 L1067.1431,752.3418 L1067.1431,744.2651 Z " fill="#000000"/><text fill="#000000" font-family="sans-serif" font-size="12" font-style="italic" lengthAdjust="spacingAndGlyphs" textLength="100" x="1088.75" y="752.5352">Response.Builder</text><line style="stroke:#A80036;stroke-width:1.5;" x1="969.5" x2="1275.5" y1="764" y2="764"/><text fill="#000000" font-family="sans-serif" font-size="11" lengthAdjust="spacingAndGlyphs" textLength="176" x="974.5" y="778.6348">Builder delegate(Object delegate)</text><text fill="#000000" font-family="sans-serif" font-size="11" lengthAdjust="spacingAndGlyphs" textLength="296" x="974.5" y="791.5898">&lt;R&gt; void bodyHandler(BodyHandler&lt;R&gt; bodyHandler)</text><text fill="#000000" font-family="sans-serif" font-size="11" lengthAdjust="spacingAndGlyphs" textLength="90" x="974.5" y="804.5449">Response build()</text><line style="stroke:#A80036;stroke-width:1.0;" x1="969.5" x2="1275.5" y1="810.8652" y2="810.8652"/><!--MD5=[de571d8a90489b7dd525662bda641eaf]
class BodyHandler--><rect codeLine="75" fill="#FEFECE" filter="url(#f1s234qydj6s40)" height="67.2207" id="BodyHandler" style="stroke:#A80036;stroke-width:1.5;" width="239" x="1116" y="311.5"/><ellipse cx="1131" cy="330.6328" fill="#B4A7E5" rx="11" ry="11" style="stroke:#A80036;stroke-width:1.0;"/><path d="M1127.4277,326.8979 L1127.4277,324.7397 L1134.8071,324.7397 L1134.8071,326.8979 L1132.3418,326.8979 L1132.3418,334.9746 L1134.8071,334.9746 L1134.8071,337.1328 L1127.4277,337.1328 L1127.4277,334.9746 L1129.8931,334.9746 L1129.8931,326.8979 Z " fill="#000000"/><text fill="#000000" font-family="sans-serif" font-size="12" font-style="italic" lengthAdjust="spacingAndGlyphs" textLength="199" x="1143" y="328.1016">«Flow.Subscriber&lt;List&lt;ByteBuffer»</text><text fill="#000000" font-family="sans-serif" font-size="12" font-style="italic" lengthAdjust="spacingAndGlyphs" textLength="74" x="1205.5" y="342.2344">BodyHandler</text><rect fill="#FFFFFF" height="16.1328" style="stroke:#000000;stroke-width:1.0;stroke-dasharray:2.0,2.0;" width="10" x="1348" y="308.5"/><text fill="#000000" font-family="sans-serif" font-size="12" font-style="italic" lengthAdjust="spacingAndGlyphs" textLength="8" x="1349" y="321.1016">T</text><line style="stroke:#A80036;stroke-width:1.5;" x1="1117" x2="1354" y1="349.7656" y2="349.7656"/><line style="stroke:#A80036;stroke-width:1.5;" x1="1117" x2="1354" y1="357.7656" y2="357.7656"/><text fill="#000000" font-family="sans-serif" font-size="11" lengthAdjust="spacingAndGlyphs" textLength="45" x="1122" y="372.4004">T body()</text><!--MD5=[a1bdee38ccf279c3dde6503b893bd0d2]
link Response to Response.Builder--><path codeLine="79" d="M1200.67,620.23 C1184.43,652.28 1165.37,689.9 1150.14,719.96 " fill="none" id="Response-to-Response.Builder" style="stroke:#A80036;stroke-width:1.0;"/><polygon fill="#A80036" points="1144.08,731.92,1150.3585,728.3731,1149.4992,721.2134,1143.2207,724.7603,1144.08,731.92" style="stroke:#A80036;stroke-width:1.0;"/><!--MD5=[dbb59ab50b776101fb8b8e5b9fd0a885]
link Request to Request.Builder--><path codeLine="80" d="M674.51,607.2 C670.28,625.36 665.42,646.18 660.61,666.83 " fill="none" id="Request-to-Request.Builder" style="stroke:#A80036;stroke-width:1.0;"/><polygon fill="#A80036" points="657.62,679.64,662.8802,674.7074,660.3501,667.9547,655.0899,672.8873,657.62,679.64" style="stroke:#A80036;stroke-width:1.0;"/><!--MD5=[6174a8809c656cdce2bf33931624c5c0]
link BodyHandler to Response--><path codeLine="81" d="M1235.5,378.7 C1235.5,406.11 1235.5,446.19 1235.5,480.63 " fill="none" id="BodyHandler-Response" style="stroke:#A80036;stroke-width:1.0;"/><!--MD5=[8c883c267c2011f65b4b2d9c9b38011e]
link Request to Method--><path codeLine="82" d="M784.21,550.5 C795.79,550.5 807.37,550.5 818.94,550.5 " fill="none" id="Request-Method" style="stroke:#A80036;stroke-width:1.0;"/><!--MD5=[2843606ffeca226d50b90c00bdb33223]
link Client to Client.Builder--><path codeLine="83" d="M333.36,421.13 C303.21,489.48 258.39,591.11 224.54,667.86 " fill="none" id="Client-to-Client.Builder" style="stroke:#A80036;stroke-width:1.0;"/><polygon fill="#A80036" points="219.2,679.95,225.2835,676.0781,224.0492,668.9734,217.9657,672.8453,219.2,679.95" style="stroke:#A80036;stroke-width:1.0;"/><!--MD5=[dd15dd5e59e57385b70809a0b967cba0]
link FileBodyHandler to BodyHandler--><path codeLine="100" d="M1235.5,209.23 C1235.5,231.34 1235.5,263.69 1235.5,291.15 " fill="none" id="FileBodyHandler-to-BodyHandler" style="stroke:#A80036;stroke-width:1.0;"/><polygon fill="none" points="1242.5,291.39,1235.5,311.39,1228.5,291.39,1242.5,291.39" style="stroke:#A80036;stroke-width:1.0;"/><!--MD5=[62195de8988c292490b83e3ec6504c15]
link TempFileBodyHandler to FileBodyHandler--><path codeLine="101" d="M1235.5,95.26 C1235.5,107.05 1235.5,121.33 1235.5,134.82 " fill="none" id="TempFileBodyHandler-to-FileBodyHandler" style="stroke:#A80036;stroke-width:1.0;"/><polygon fill="none" points="1242.5,134.91,1235.5,154.91,1228.5,134.91,1242.5,134.91" style="stroke:#A80036;stroke-width:1.0;"/><!--MD5=[9eb74eacbd8f17b23d5fe947f3832836]
reverse link Response to HttpResponseDelegate--><path codeLine="103" d="M1279.14,639 C1284.86,652.52 1290.22,666.48 1294.5,680 C1330.57,793.9 1348.32,936.63 1354.2,991.78 " fill="none" id="Response-backto-HttpResponseDelegate" style="stroke:#A80036;stroke-width:1.0;"/><polygon fill="none" points="1272.55,641.4,1270.87,620.28,1285.36,635.75,1272.55,641.4" style="stroke:#A80036;stroke-width:1.0;"/><!--MD5=[a609e3fbb5f442f3f1ae911e8ea052e9]
reverse link Response.Builder to HttpResponseDelegate.ResponseBuilder--><path codeLine="104" d="M1118.54,839.43 C1115.39,889.57 1111.15,956.96 1108.95,991.87 " fill="none" id="Response.Builder-backto-HttpResponseDelegate.ResponseBuilder" style="stroke:#A80036;stroke-width:1.0;"/><polygon fill="none" points="1111.58,838.66,1119.82,819.14,1125.55,839.54,1111.58,838.66" style="stroke:#A80036;stroke-width:1.0;"/><!--MD5=[b1c54d69599d7ccd94bff92b33121739]
reverse link Request to HttpRequestDelegate--><path codeLine="106" d="M769.84,621.57 C785.97,639.08 801.08,658.94 811.5,680 C864.45,787.05 865.49,934.97 863.66,991.63 " fill="none" id="Request-backto-HttpRequestDelegate" style="stroke:#A80036;stroke-width:1.0;"/><polygon fill="none" points="764.73,626.35,755.83,607.12,774.78,616.6,764.73,626.35" style="stroke:#A80036;stroke-width:1.0;"/><!--MD5=[b0f6876bf08d798e9135add5f849e950]
reverse link Request.Builder to HttpRequestDelegate.RequestBuilder--><path codeLine="107" d="M631.17,891.17 C629.74,929.22 628.28,967.9 627.38,991.67 " fill="none" id="Request.Builder-backto-HttpRequestDelegate.RequestBuilder" style="stroke:#A80036;stroke-width:1.0;"/><polygon fill="none" points="624.18,890.83,631.93,871.1,638.17,891.35,624.18,890.83" style="stroke:#A80036;stroke-width:1.0;"/><!--MD5=[3f22415d83706ef1ce10b79e49743d13]
reverse link Client to HttpClientDelegate--><path codeLine="109" d="M371.07,441.45 C378.62,599.28 393.28,905.82 397.4,991.98 " fill="none" id="Client-backto-HttpClientDelegate" style="stroke:#A80036;stroke-width:1.0;"/><polygon fill="none" points="364.06,441.43,370.09,421.12,378.04,440.76,364.06,441.43" style="stroke:#A80036;stroke-width:1.0;"/><!--MD5=[4873a006e344d1a2325285058e659f09]
reverse link Client.Builder to HttpClientDelegate.ClientBuilder--><path codeLine="110" d="M181.35,891.17 C182.62,929.22 183.92,967.9 184.72,991.67 " fill="none" id="Client.Builder-backto-HttpClientDelegate.ClientBuilder" style="stroke:#A80036;stroke-width:1.0;"/><polygon fill="none" points="174.35,891.33,180.67,871.1,188.34,890.86,174.35,891.33" style="stroke:#A80036;stroke-width:1.0;"/><!--MD5=[b28d5977c4608936550baacae9b6cb13]
@startuml

interface Client {
    Version version()
    Response send(Request request)
    Response send(Request request, BodyHandler<R> bodyHandler)
    CompletableFuture<Response> sendAsync(Request request)
    CompletableFuture<Response> sendAsync(Request request, BodyHandler<RESULT> bodyHandler)
    Object getDelegate()
    - -
    static Client newClient()
    static Builder newClientBuilder()
}
interface Client.Builder {
    Builder version(Version version)
    Builder priority(int priority)
    Builder authenticator(Authenticator authenticator)
    Builder sslContext(SSLContext sslContext)
    Builder sslParameters(SSLParameters sslParameters)
    Builder x509TrustManager(X509TrustManager trustManager)
    Builder executor(Executor executor)
    Builder connectTimeout(Duration duration)
    Builder followRedirects(Redirect policy)
    Builder proxy(ProxySelector proxySelector)
    Client build()
    - -
}

enum Method {
    GET
    PUT
    POST
    DELETE
    OPTIONS
}
interface Request {
    String url()
    Method method()
    Headers headers()
    Object getDelegate()
    - -
    static Builder newRequestBuilder()
}
interface Request.Builder {
    Builder url(String url)
    Builder header(String name, String value)
    Builder expectContinue(boolean enable)
    Builder timeout(Duration duration)
    Builder GET()
    Builder PUT(byte[] bytes)
    Builder PUT(Flow.Publisher<ByteBuffer> bodyPublisher)
    Builder POST(byte[] bytes)
    Builder POST(Flow.Publisher<ByteBuffer> bodyPublisher)
    Builder DELETE()
    Request build()
    - -
}

interface Response {
    String url()
    Headers headers()
    int statusCode()
    byte[] body()
    <R> Optional<BodyHandler<R>> bodyHandler()
    Optional<Response> previousResponse()
    - -
    static Builder newResponseBuilder()
}
interface Response.Builder {
    Builder delegate(Object delegate)
    <R> void bodyHandler(BodyHandler<R> bodyHandler)
    Response build()
    - -
}

interface BodyHandler<T> << Flow.Subscriber<List<ByteBuffer>> >> {
    T body()
}

Response.Builder *-up- Response
Request.Builder *-up- Request
Response -up- BodyHandler
Request -right- Method
Client.Builder *-up- - Client


package java.httpClient.native #EEE {
    class HttpClientDelegate
    class HttpClientDelegate.ClientBuilder
    class HttpRequestDelegate
    class HttpRequestDelegate.RequestBuilder
    class HttpResponseDelegate
    class HttpResponseDelegate.ResponseBuilder
}

package http.bodySubscriber #EEE {
    class FileBodyHandler<Path> <<BodyHandler>>
    class TempFileBodyHandler<Path> <<FileBodyHandler>>
}

BodyHandler <|-up- FileBodyHandler
FileBodyHandler <|-up- TempFileBodyHandler

Response <|- - - HttpResponseDelegate
Response.Builder <|- - - HttpResponseDelegate.ResponseBuilder

Request <|- - - HttpRequestDelegate
Request.Builder <|- - - HttpRequestDelegate.RequestBuilder

Client <|- - - HttpClientDelegate
Client.Builder <|- - - HttpClientDelegate.ClientBuilder

@enduml

PlantUML version 1.2020.26(Mon Dec 21 18:45:07 CET 2020)
(GPL source distribution)
Java Runtime: OpenJDK Runtime Environment
JVM: OpenJDK 64-Bit Server VM
Default Encoding: UTF-8
Language: en
Country: NO
--></g></svg>