<?xml version="1.0" encoding="UTF-8" standalone="no"?>
<svg xmlns="http://www.w3.org/2000/svg" contentScriptType="application/ecmascript" contentStyleType="text/css"
     height="1002px" preserveAspectRatio="none" style="width:1468px;height:1002px;" version="1.1"
     viewBox="0 0 1468 1002" width="1468px" zoomAndPan="magnify"><defs><filter height="300%" id="f5aktfcrt723x" width="300%" x="-1" y="-1"><feGaussianBlur result="blurOut" stdDeviation="2.0"/><feColorMatrix in="blurOut" result="blurOut2" type="matrix" values="0 0 0 0 0 0 0 0 0 0 0 0 0 0 0 0 0 0 .4 0"/><feOffset dx="4.0" dy="4.0" in="blurOut2" result="blurOut3"/><feBlend in="SourceGraphic" in2="blurOut3" mode="normal"/></filter></defs><g><!--MD5=[07b660542a5cf2b6fdf3a2b2a715284a]
cluster java.httpClient.native--><polygon fill="#EEEEEE" filter="url(#f5aktfcrt723x)" points="58.5,896,216.5,896,223.5,918.4883,1451.5,918.4883,1451.5,995,58.5,995,58.5,896" style="stroke:#000000;stroke-width:1.5;"/><line style="stroke:#000000;stroke-width:1.5;" x1="58.5" x2="223.5" y1="918.4883" y2="918.4883"/><text fill="#000000" font-family="sans-serif" font-size="14" font-weight="bold" lengthAdjust="spacingAndGlyphs" textLength="152" x="62.5" y="911.5352">java.httpClient.native</text><!--MD5=[e6f9c9c65886d55367eeb1e774ee4020]
cluster java.httpBodySubscriber.native--><polygon fill="#EEEEEE" filter="url(#f5aktfcrt723x)" points="1111.5,6,1336.5,6,1343.5,28.4883,1346.5,28.4883,1346.5,225,1111.5,225,1111.5,6" style="stroke:#000000;stroke-width:1.5;"/><line style="stroke:#000000;stroke-width:1.5;" x1="1111.5" x2="1343.5" y1="28.4883" y2="28.4883"/><text fill="#000000" font-family="sans-serif" font-size="14" font-weight="bold" lengthAdjust="spacingAndGlyphs" textLength="219" x="1115.5" y="21.5352">java.httpBodySubscriber.native</text><!--MD5=[18e87662fe9b5733f8895e917696f16f]
class HttpClientDelegate--><rect codeLine="87" fill="#FEFECE" filter="url(#f5aktfcrt723x)" height="48" id="HttpClientDelegate" style="stroke:#A80036;stroke-width:1.5;" width="140" x="325.5" y="931"/><ellipse cx="340.5" cy="947" fill="#ADD1B2" rx="11" ry="11" style="stroke:#A80036;stroke-width:1.0;"/><path d="M342.9731,953.1431 Q342.3921,953.4419 341.7529,953.5913 Q341.1138,953.7407 340.4082,953.7407 Q337.9014,953.7407 336.5815,952.0889 Q335.2617,950.437 335.2617,947.3159 Q335.2617,944.1865 336.5815,942.5347 Q337.9014,940.8828 340.4082,940.8828 Q341.1138,940.8828 341.7612,941.0322 Q342.4087,941.1816 342.9731,941.4805 L342.9731,944.2031 Q342.3423,943.6221 341.7488,943.3523 Q341.1553,943.0825 340.5244,943.0825 Q339.1797,943.0825 338.4949,944.1492 Q337.8101,945.2158 337.8101,947.3159 Q337.8101,949.4077 338.4949,950.4744 Q339.1797,951.541 340.5244,951.541 Q341.1553,951.541 341.7488,951.2712 Q342.3423,951.0015 342.9731,950.4204 Z " fill="#000000"/><text fill="#000000" font-family="sans-serif" font-size="12" lengthAdjust="spacingAndGlyphs" textLength="108" x="354.5" y="951.5352">HttpClientDelegate</text><line style="stroke:#A80036;stroke-width:1.5;" x1="326.5" x2="464.5" y1="963" y2="963"/><line style="stroke:#A80036;stroke-width:1.5;" x1="326.5" x2="464.5" y1="971" y2="971"/><!--MD5=[9e0be4c016889773ef2c25205e2f6a87]
class HttpClientDelegate.ClientBuilder--><rect codeLine="88" fill="#FEFECE" filter="url(#f5aktfcrt723x)" height="48" id="HttpClientDelegate.ClientBuilder" style="stroke:#A80036;stroke-width:1.5;" width="216" x="74.5" y="931"/><ellipse cx="89.5" cy="947" fill="#ADD1B2" rx="11" ry="11" style="stroke:#A80036;stroke-width:1.0;"/><path d="M91.9731,953.1431 Q91.3921,953.4419 90.7529,953.5913 Q90.1138,953.7407 89.4082,953.7407 Q86.9014,953.7407 85.5815,952.0889 Q84.2617,950.437 84.2617,947.3159 Q84.2617,944.1865 85.5815,942.5347 Q86.9014,940.8828 89.4082,940.8828 Q90.1138,940.8828 90.7612,941.0322 Q91.4087,941.1816 91.9731,941.4805 L91.9731,944.2031 Q91.3423,943.6221 90.7488,943.3523 Q90.1553,943.0825 89.5244,943.0825 Q88.1797,943.0825 87.4949,944.1492 Q86.8101,945.2158 86.8101,947.3159 Q86.8101,949.4077 87.4949,950.4744 Q88.1797,951.541 89.5244,951.541 Q90.1553,951.541 90.7488,951.2712 Q91.3423,951.0015 91.9731,950.4204 Z " fill="#000000"/><text fill="#000000" font-family="sans-serif" font-size="12" lengthAdjust="spacingAndGlyphs" textLength="184" x="103.5" y="951.5352">HttpClientDelegate.ClientBuilder</text><line style="stroke:#A80036;stroke-width:1.5;" x1="75.5" x2="289.5" y1="963" y2="963"/><line style="stroke:#A80036;stroke-width:1.5;" x1="75.5" x2="289.5" y1="971" y2="971"/><!--MD5=[972690a56c3ae18bdf229af9c2b4fb97]
class HttpRequestDelegate--><rect codeLine="89" fill="#FEFECE" filter="url(#f5aktfcrt723x)" height="48" id="HttpRequestDelegate" style="stroke:#A80036;stroke-width:1.5;" width="155" x="782" y="931"/><ellipse cx="797" cy="947" fill="#ADD1B2" rx="11" ry="11" style="stroke:#A80036;stroke-width:1.0;"/><path d="M799.4731,953.1431 Q798.8921,953.4419 798.2529,953.5913 Q797.6138,953.7407 796.9082,953.7407 Q794.4014,953.7407 793.0815,952.0889 Q791.7617,950.437 791.7617,947.3159 Q791.7617,944.1865 793.0815,942.5347 Q794.4014,940.8828 796.9082,940.8828 Q797.6138,940.8828 798.2612,941.0322 Q798.9087,941.1816 799.4731,941.4805 L799.4731,944.2031 Q798.8423,943.6221 798.2488,943.3523 Q797.6553,943.0825 797.0244,943.0825 Q795.6797,943.0825 794.9949,944.1492 Q794.3101,945.2158 794.3101,947.3159 Q794.3101,949.4077 794.9949,950.4744 Q795.6797,951.541 797.0244,951.541 Q797.6553,951.541 798.2488,951.2712 Q798.8423,951.0015 799.4731,950.4204 Z " fill="#000000"/><text fill="#000000" font-family="sans-serif" font-size="12" lengthAdjust="spacingAndGlyphs" textLength="123" x="811" y="951.5352">HttpRequestDelegate</text><line style="stroke:#A80036;stroke-width:1.5;" x1="783" x2="936" y1="963" y2="963"/><line style="stroke:#A80036;stroke-width:1.5;" x1="783" x2="936" y1="971" y2="971"/><!--MD5=[e248ac24b00d8ee9dd87b7eef4fade51]
class HttpRequestDelegate.RequestBuilder--><rect codeLine="90" fill="#FEFECE" filter="url(#f5aktfcrt723x)" height="48" id="HttpRequestDelegate.RequestBuilder" style="stroke:#A80036;stroke-width:1.5;" width="246" x="500.5" y="931"/><ellipse cx="515.5" cy="947" fill="#ADD1B2" rx="11" ry="11" style="stroke:#A80036;stroke-width:1.0;"/><path d="M517.9731,953.1431 Q517.3921,953.4419 516.7529,953.5913 Q516.1138,953.7407 515.4082,953.7407 Q512.9014,953.7407 511.5815,952.0889 Q510.2617,950.437 510.2617,947.3159 Q510.2617,944.1865 511.5815,942.5347 Q512.9014,940.8828 515.4082,940.8828 Q516.1138,940.8828 516.7612,941.0322 Q517.4087,941.1816 517.9731,941.4805 L517.9731,944.2031 Q517.3423,943.6221 516.7488,943.3523 Q516.1553,943.0825 515.5244,943.0825 Q514.1797,943.0825 513.4949,944.1492 Q512.8101,945.2158 512.8101,947.3159 Q512.8101,949.4077 513.4949,950.4744 Q514.1797,951.541 515.5244,951.541 Q516.1553,951.541 516.7488,951.2712 Q517.3423,951.0015 517.9731,950.4204 Z " fill="#000000"/><text fill="#000000" font-family="sans-serif" font-size="12" lengthAdjust="spacingAndGlyphs" textLength="214" x="529.5" y="951.5352">HttpRequestDelegate.RequestBuilder</text><line style="stroke:#A80036;stroke-width:1.5;" x1="501.5" x2="745.5" y1="963" y2="963"/><line style="stroke:#A80036;stroke-width:1.5;" x1="501.5" x2="745.5" y1="971" y2="971"/><!--MD5=[67dfa492859feab34ed53b7f6d4c9926]
class HttpResponseDelegate--><rect codeLine="91" fill="#FEFECE" filter="url(#f5aktfcrt723x)" height="48" id="HttpResponseDelegate" style="stroke:#A80036;stroke-width:1.5;" width="164" x="1271.5" y="931"/><ellipse cx="1286.5" cy="947" fill="#ADD1B2" rx="11" ry="11" style="stroke:#A80036;stroke-width:1.0;"/><path d="M1288.9731,953.1431 Q1288.3921,953.4419 1287.7529,953.5913 Q1287.1138,953.7407 1286.4082,953.7407 Q1283.9014,953.7407 1282.5815,952.0889 Q1281.2617,950.437 1281.2617,947.3159 Q1281.2617,944.1865 1282.5815,942.5347 Q1283.9014,940.8828 1286.4082,940.8828 Q1287.1138,940.8828 1287.7612,941.0322 Q1288.4087,941.1816 1288.9731,941.4805 L1288.9731,944.2031 Q1288.3423,943.6221 1287.7488,943.3523 Q1287.1553,943.0825 1286.5244,943.0825 Q1285.1797,943.0825 1284.4949,944.1492 Q1283.8101,945.2158 1283.8101,947.3159 Q1283.8101,949.4077 1284.4949,950.4744 Q1285.1797,951.541 1286.5244,951.541 Q1287.1553,951.541 1287.7488,951.2712 Q1288.3423,951.0015 1288.9731,950.4204 Z " fill="#000000"/><text fill="#000000" font-family="sans-serif" font-size="12" lengthAdjust="spacingAndGlyphs" textLength="132" x="1300.5" y="951.5352">HttpResponseDelegate</text><line style="stroke:#A80036;stroke-width:1.5;" x1="1272.5" x2="1434.5" y1="963" y2="963"/><line style="stroke:#A80036;stroke-width:1.5;" x1="1272.5" x2="1434.5" y1="971" y2="971"/><!--MD5=[4738c6902080903df92e8cf1c0671730]
class HttpResponseDelegate.ResponseBuilder--><rect codeLine="92" fill="#FEFECE" filter="url(#f5aktfcrt723x)" height="48" id="HttpResponseDelegate.ResponseBuilder" style="stroke:#A80036;stroke-width:1.5;" width="264" x="972.5" y="931"/><ellipse cx="987.5" cy="947" fill="#ADD1B2" rx="11" ry="11" style="stroke:#A80036;stroke-width:1.0;"/><path d="M989.9731,953.1431 Q989.3921,953.4419 988.7529,953.5913 Q988.1138,953.7407 987.4082,953.7407 Q984.9014,953.7407 983.5815,952.0889 Q982.2617,950.437 982.2617,947.3159 Q982.2617,944.1865 983.5815,942.5347 Q984.9014,940.8828 987.4082,940.8828 Q988.1138,940.8828 988.7612,941.0322 Q989.4087,941.1816 989.9731,941.4805 L989.9731,944.2031 Q989.3423,943.6221 988.7488,943.3523 Q988.1553,943.0825 987.5244,943.0825 Q986.1797,943.0825 985.4949,944.1492 Q984.8101,945.2158 984.8101,947.3159 Q984.8101,949.4077 985.4949,950.4744 Q986.1797,951.541 987.5244,951.541 Q988.1553,951.541 988.7488,951.2712 Q989.3423,951.0015 989.9731,950.4204 Z " fill="#000000"/><text fill="#000000" font-family="sans-serif" font-size="12" lengthAdjust="spacingAndGlyphs" textLength="232" x="1001.5" y="951.5352">HttpResponseDelegate.ResponseBuilder</text><line style="stroke:#A80036;stroke-width:1.5;" x1="973.5" x2="1235.5" y1="963" y2="963"/><line style="stroke:#A80036;stroke-width:1.5;" x1="973.5" x2="1235.5" y1="971" y2="971"/><!--MD5=[1aafbf539e74cdc37030554382c6e8c0]
class FileBodyHandler--><rect codeLine="96" fill="#FEFECE" filter="url(#f5aktfcrt723x)" height="54.2656" id="FileBodyHandler" style="stroke:#A80036;stroke-width:1.5;" width="154" x="1151.5" y="155"/><ellipse cx="1166.5" cy="174.1328" fill="#ADD1B2" rx="11" ry="11" style="stroke:#A80036;stroke-width:1.0;"/><path d="M1168.9731,180.2759 Q1168.3921,180.5747 1167.7529,180.7241 Q1167.1138,180.8735 1166.4082,180.8735 Q1163.9014,180.8735 1162.5815,179.2217 Q1161.2617,177.5698 1161.2617,174.4487 Q1161.2617,171.3193 1162.5815,169.6675 Q1163.9014,168.0156 1166.4082,168.0156 Q1167.1138,168.0156 1167.7612,168.165 Q1168.4087,168.3145 1168.9731,168.6133 L1168.9731,171.3359 Q1168.3423,170.7549 1167.7488,170.4851 Q1167.1553,170.2153 1166.5244,170.2153 Q1165.1797,170.2153 1164.4949,171.282 Q1163.8101,172.3486 1163.8101,174.4487 Q1163.8101,176.5405 1164.4949,177.6072 Q1165.1797,178.6738 1166.5244,178.6738 Q1167.1553,178.6738 1167.7488,178.4041 Q1168.3423,178.1343 1168.9731,177.5532 Z " fill="#000000"/><text fill="#000000" font-family="sans-serif" font-size="12" font-style="italic" lengthAdjust="spacingAndGlyphs" textLength="86" x="1184" y="171.6016">«BodyHandler»</text><text fill="#000000" font-family="sans-serif" font-size="12" lengthAdjust="spacingAndGlyphs" textLength="93" x="1180.5" y="185.7344">FileBodyHandler</text><rect fill="#FFFFFF" height="16.1328" style="stroke:#000000;stroke-width:1.0;stroke-dasharray:2.0,2.0;" width="27" x="1281.5" y="152"/><text fill="#000000" font-family="sans-serif" font-size="12" font-style="italic" lengthAdjust="spacingAndGlyphs" textLength="25" x="1282.5" y="164.6016">Path</text><line style="stroke:#A80036;stroke-width:1.5;" x1="1152.5" x2="1304.5" y1="193.2656" y2="193.2656"/><line style="stroke:#A80036;stroke-width:1.5;" x1="1152.5" x2="1304.5" y1="201.2656" y2="201.2656"/><!--MD5=[e01f02942efcb8f5c1aa16790bd69f3d]
class TempFileBodyHandler--><rect codeLine="97" fill="#FEFECE" filter="url(#f5aktfcrt723x)" height="54.2656" id="TempFileBodyHandler" style="stroke:#A80036;stroke-width:1.5;" width="188" x="1134.5" y="41"/><ellipse cx="1149.5" cy="60.1328" fill="#ADD1B2" rx="11" ry="11" style="stroke:#A80036;stroke-width:1.0;"/><path d="M1151.9731,66.2759 Q1151.3921,66.5747 1150.7529,66.7241 Q1150.1138,66.8735 1149.4082,66.8735 Q1146.9014,66.8735 1145.5815,65.2217 Q1144.2617,63.5698 1144.2617,60.4487 Q1144.2617,57.3193 1145.5815,55.6675 Q1146.9014,54.0156 1149.4082,54.0156 Q1150.1138,54.0156 1150.7612,54.165 Q1151.4087,54.3145 1151.9731,54.6133 L1151.9731,57.3359 Q1151.3423,56.7549 1150.7488,56.4851 Q1150.1553,56.2153 1149.5244,56.2153 Q1148.1797,56.2153 1147.4949,57.282 Q1146.8101,58.3486 1146.8101,60.4487 Q1146.8101,62.5405 1147.4949,63.6072 Q1148.1797,64.6738 1149.5244,64.6738 Q1150.1553,64.6738 1150.7488,64.4041 Q1151.3423,64.1343 1151.9731,63.5532 Z " fill="#000000"/><text fill="#000000" font-family="sans-serif" font-size="12" font-style="italic" lengthAdjust="spacingAndGlyphs" textLength="105" x="1174.5" y="57.6016">«FileBodyHandler»</text><text fill="#000000" font-family="sans-serif" font-size="12" lengthAdjust="spacingAndGlyphs" textLength="127" x="1163.5" y="71.7344">TempFileBodyHandler</text><rect fill="#FFFFFF" height="16.1328" style="stroke:#000000;stroke-width:1.0;stroke-dasharray:2.0,2.0;" width="27" x="1298.5" y="38"/><text fill="#000000" font-family="sans-serif" font-size="12" font-style="italic" lengthAdjust="spacingAndGlyphs" textLength="25" x="1299.5" y="50.6016">Path</text><line style="stroke:#A80036;stroke-width:1.5;" x1="1135.5" x2="1321.5" y1="79.2656" y2="79.2656"/><line style="stroke:#A80036;stroke-width:1.5;" x1="1135.5" x2="1321.5" y1="87.2656" y2="87.2656"/><!--MD5=[ed6624c6556d5e7b1bd23032162d20b7]
class Client--><rect codeLine="2" fill="#FEFECE" filter="url(#f5aktfcrt723x)" height="151.6406" id="Client" style="stroke:#A80036;stroke-width:1.5;" width="545" x="94" y="269"/><ellipse cx="346.25" cy="285" fill="#B4A7E5" rx="11" ry="11" style="stroke:#A80036;stroke-width:1.0;"/><path d="M342.6777,281.2651 L342.6777,279.1069 L350.0571,279.1069 L350.0571,281.2651 L347.5918,281.2651 L347.5918,289.3418 L350.0571,289.3418 L350.0571,291.5 L342.6777,291.5 L342.6777,289.3418 L345.1431,289.3418 L345.1431,281.2651 Z " fill="#000000"/><text fill="#000000" font-family="sans-serif" font-size="12" font-style="italic" lengthAdjust="spacingAndGlyphs" textLength="32" x="366.75" y="289.5352">Client</text><line style="stroke:#A80036;stroke-width:1.5;" x1="95" x2="638" y1="301" y2="301"/><text fill="#000000" font-family="sans-serif" font-size="11" lengthAdjust="spacingAndGlyphs" textLength="92" x="100" y="315.6348">Version version()</text><text fill="#000000" font-family="sans-serif" font-size="11" lengthAdjust="spacingAndGlyphs" textLength="176" x="100" y="328.5898">Response send(Request request)</text><text fill="#000000" font-family="sans-serif" font-size="11" lengthAdjust="spacingAndGlyphs" textLength="347" x="100" y="341.5449">Response send(Request request, BodyHandler&lt;R&gt; bodyHandler)</text><text fill="#000000" font-family="sans-serif" font-size="11" lengthAdjust="spacingAndGlyphs" textLength="329" x="100" y="354.5">CompletableFuture&lt;Response&gt; sendAsync(Request request)</text><text fill="#000000" font-family="sans-serif" font-size="11" lengthAdjust="spacingAndGlyphs" textLength="533" x="100" y="367.4551">CompletableFuture&lt;Response&gt; sendAsync(Request request, BodyHandler&lt;RESULT&gt; bodyHandler)</text><text fill="#000000" font-family="sans-serif" font-size="11" lengthAdjust="spacingAndGlyphs" textLength="109" x="100" y="380.4102">Object getDelegate()</text><line style="stroke:#A80036;stroke-width:1.0;" x1="95" x2="638" y1="386.7305" y2="386.7305"/><text fill="#000000" font-family="sans-serif" font-size="11" lengthAdjust="spacingAndGlyphs" textLength="126" x="100" y="401.3652">static Client newClient()</text><text fill="#000000" font-family="sans-serif" font-size="11" lengthAdjust="spacingAndGlyphs" textLength="169" x="100" y="414.3203">static Builder newClientBuilder()</text><!--MD5=[33bae59c25a085c7927fb6f740869016]
class Client.Builder--><rect codeLine="13" fill="#FEFECE" filter="url(#f5aktfcrt723x)" height="190.5059" id="Client.Builder" style="stroke:#A80036;stroke-width:1.5;" width="341" x="7" y="680"/><ellipse cx="135.25" cy="696" fill="#B4A7E5" rx="11" ry="11" style="stroke:#A80036;stroke-width:1.0;"/><path d="M131.6777,692.2651 L131.6777,690.1069 L139.0571,690.1069 L139.0571,692.2651 L136.5918,692.2651 L136.5918,700.3418 L139.0571,700.3418 L139.0571,702.5 L131.6777,702.5 L131.6777,700.3418 L134.1431,700.3418 L134.1431,692.2651 Z " fill="#000000"/><text fill="#000000" font-family="sans-serif" font-size="12" font-style="italic" lengthAdjust="spacingAndGlyphs" textLength="76" x="155.75" y="700.5352">Client.Builder</text><line style="stroke:#A80036;stroke-width:1.5;" x1="8" x2="347" y1="712" y2="712"/><text fill="#000000" font-family="sans-serif" font-size="11" lengthAdjust="spacingAndGlyphs" textLength="172" x="13" y="726.6348">Builder version(Version version)</text><text fill="#000000" font-family="sans-serif" font-size="11" lengthAdjust="spacingAndGlyphs" textLength="145" x="13" y="739.5898">Builder priority(int priority)</text><text fill="#000000" font-family="sans-serif" font-size="11" lengthAdjust="spacingAndGlyphs" textLength="269" x="13" y="752.5449">Builder authenticator(Authenticator authenticator)</text><text fill="#000000" font-family="sans-serif" font-size="11" lengthAdjust="spacingAndGlyphs" textLength="228" x="13" y="765.5">Builder sslContext(SSLContext sslContext)</text><text fill="#000000" font-family="sans-serif" font-size="11" lengthAdjust="spacingAndGlyphs" textLength="279" x="13" y="778.4551">Builder sslParameters(SSLParameters sslParameters)</text><text fill="#000000" font-family="sans-serif" font-size="11" lengthAdjust="spacingAndGlyphs" textLength="329" x="13" y="791.4102">Builder x509TrustManager(X509TrustManager trustManager)</text><text fill="#000000" font-family="sans-serif" font-size="11" lengthAdjust="spacingAndGlyphs" textLength="195" x="13" y="804.3652">Builder executor(Executor executor)</text><text fill="#000000" font-family="sans-serif" font-size="11" lengthAdjust="spacingAndGlyphs" textLength="231" x="13" y="817.3203">Builder connectTimeout(Duration duration)</text><text fill="#000000" font-family="sans-serif" font-size="11" lengthAdjust="spacingAndGlyphs" textLength="209" x="13" y="830.2754">Builder followRedirects(Redirect policy)</text><text fill="#000000" font-family="sans-serif" font-size="11" lengthAdjust="spacingAndGlyphs" textLength="232" x="13" y="843.2305">Builder proxy(ProxySelector proxySelector)</text><text fill="#000000" font-family="sans-serif" font-size="11" lengthAdjust="spacingAndGlyphs" textLength="69" x="13" y="856.1855">Client build()</text><line style="stroke:#A80036;stroke-width:1.0;" x1="8" x2="347" y1="862.5059" y2="862.5059"/><!--MD5=[ed17eb27918d6d975aac91b8ab0bf633]
class Method--><rect codeLine="28" fill="#FEFECE" filter="url(#f5aktfcrt723x)" height="112.7754" id="Method" style="stroke:#A80036;stroke-width:1.5;" width="75" x="811" y="494"/><ellipse cx="826" cy="510" fill="#EB937F" rx="11" ry="11" style="stroke:#A80036;stroke-width:1.0;"/><path d="M829.6143,516.5 L821.8945,516.5 L821.8945,504.1069 L829.6143,504.1069 L829.6143,506.2651 L824.3433,506.2651 L824.3433,508.938 L829.1162,508.938 L829.1162,511.0962 L824.3433,511.0962 L824.3433,514.3418 L829.6143,514.3418 Z " fill="#000000"/><text fill="#000000" font-family="sans-serif" font-size="12" lengthAdjust="spacingAndGlyphs" textLength="43" x="840" y="514.5352">Method</text><line style="stroke:#A80036;stroke-width:1.5;" x1="812" x2="885" y1="526" y2="526"/><text fill="#000000" font-family="sans-serif" font-size="11" lengthAdjust="spacingAndGlyphs" textLength="21" x="817" y="540.6348">GET</text><text fill="#000000" font-family="sans-serif" font-size="11" lengthAdjust="spacingAndGlyphs" textLength="21" x="817" y="553.5898">PUT</text><text fill="#000000" font-family="sans-serif" font-size="11" lengthAdjust="spacingAndGlyphs" textLength="28" x="817" y="566.5449">POST</text><text fill="#000000" font-family="sans-serif" font-size="11" lengthAdjust="spacingAndGlyphs" textLength="39" x="817" y="579.5">DELETE</text><text fill="#000000" font-family="sans-serif" font-size="11" lengthAdjust="spacingAndGlyphs" textLength="48" x="817" y="592.4551">OPTIONS</text><line style="stroke:#A80036;stroke-width:1.5;" x1="812" x2="885" y1="598.7754" y2="598.7754"/><!--MD5=[0851f84a889f989e7bb0bebc385d0f09]
class Request--><rect codeLine="35" fill="#FEFECE" filter="url(#f5aktfcrt723x)" height="112.7754" id="Request" style="stroke:#A80036;stroke-width:1.5;" width="193" x="583" y="494"/><ellipse cx="651.75" cy="510" fill="#B4A7E5" rx="11" ry="11" style="stroke:#A80036;stroke-width:1.0;"/><path d="M648.1777,506.2651 L648.1777,504.1069 L655.5571,504.1069 L655.5571,506.2651 L653.0918,506.2651 L653.0918,514.3418 L655.5571,514.3418 L655.5571,516.5 L648.1777,516.5 L648.1777,514.3418 L650.6431,514.3418 L650.6431,506.2651 Z " fill="#000000"/><text fill="#000000" font-family="sans-serif" font-size="12" font-style="italic" lengthAdjust="spacingAndGlyphs" textLength="47" x="672.25" y="514.5352">Request</text><line style="stroke:#A80036;stroke-width:1.5;" x1="584" x2="775" y1="526" y2="526"/><text fill="#000000" font-family="sans-serif" font-size="11" lengthAdjust="spacingAndGlyphs" textLength="58" x="589" y="540.6348">String url()</text><text fill="#000000" font-family="sans-serif" font-size="11" lengthAdjust="spacingAndGlyphs" textLength="92" x="589" y="553.5898">Method method()</text><text fill="#000000" font-family="sans-serif" font-size="11" lengthAdjust="spacingAndGlyphs" textLength="98" x="589" y="566.5449">Headers headers()</text><text fill="#000000" font-family="sans-serif" font-size="11" lengthAdjust="spacingAndGlyphs" textLength="109" x="589" y="579.5">Object getDelegate()</text><line style="stroke:#A80036;stroke-width:1.0;" x1="584" x2="775" y1="585.8203" y2="585.8203"/><text fill="#000000" font-family="sans-serif" font-size="11" lengthAdjust="spacingAndGlyphs" textLength="181" x="589" y="600.4551">static Builder newRequestBuilder()</text><!--MD5=[efa9d7953f5313d1d6a908484a3575a1]
class Request.Builder--><rect codeLine="43" fill="#FEFECE" filter="url(#f5aktfcrt723x)" height="190.5059" id="Request.Builder" style="stroke:#A80036;stroke-width:1.5;" width="317" x="471" y="680"/><ellipse cx="579.75" cy="696" fill="#B4A7E5" rx="11" ry="11" style="stroke:#A80036;stroke-width:1.0;"/><path d="M576.1777,692.2651 L576.1777,690.1069 L583.5571,690.1069 L583.5571,692.2651 L581.0918,692.2651 L581.0918,700.3418 L583.5571,700.3418 L583.5571,702.5 L576.1777,702.5 L576.1777,700.3418 L578.6431,700.3418 L578.6431,692.2651 Z " fill="#000000"/><text fill="#000000" font-family="sans-serif" font-size="12" font-style="italic" lengthAdjust="spacingAndGlyphs" textLength="91" x="600.25" y="700.5352">Request.Builder</text><line style="stroke:#A80036;stroke-width:1.5;" x1="472" x2="787" y1="712" y2="712"/><text fill="#000000" font-family="sans-serif" font-size="11" lengthAdjust="spacingAndGlyphs" textLength="113" x="477" y="726.6348">Builder url(String url)</text><text fill="#000000" font-family="sans-serif" font-size="11" lengthAdjust="spacingAndGlyphs" textLength="218" x="477" y="739.5898">Builder header(String name, String value)</text><text fill="#000000" font-family="sans-serif" font-size="11" lengthAdjust="spacingAndGlyphs" textLength="214" x="477" y="752.5449">Builder expectContinue(boolean enable)</text><text fill="#000000" font-family="sans-serif" font-size="11" lengthAdjust="spacingAndGlyphs" textLength="185" x="477" y="765.5">Builder timeout(Duration duration)</text><text fill="#000000" font-family="sans-serif" font-size="11" lengthAdjust="spacingAndGlyphs" textLength="69" x="477" y="778.4551">Builder GET()</text><text fill="#000000" font-family="sans-serif" font-size="11" lengthAdjust="spacingAndGlyphs" textLength="132" x="477" y="791.4102">Builder PUT(byte[] bytes)</text><text fill="#000000" font-family="sans-serif" font-size="11" lengthAdjust="spacingAndGlyphs" textLength="298" x="477" y="804.3652">Builder PUT(Flow.Publisher&lt;ByteBuffer&gt; bodyPublisher)</text><text fill="#000000" font-family="sans-serif" font-size="11" lengthAdjust="spacingAndGlyphs" textLength="139" x="477" y="817.3203">Builder POST(byte[] bytes)</text><text fill="#000000" font-family="sans-serif" font-size="11" lengthAdjust="spacingAndGlyphs" textLength="305" x="477" y="830.2754">Builder POST(Flow.Publisher&lt;ByteBuffer&gt; bodyPublisher)</text><text fill="#000000" font-family="sans-serif" font-size="11" lengthAdjust="spacingAndGlyphs" textLength="87" x="477" y="843.2305">Builder DELETE()</text><text fill="#000000" font-family="sans-serif" font-size="11" lengthAdjust="spacingAndGlyphs" textLength="81" x="477" y="856.1855">Request build()</text><line style="stroke:#A80036;stroke-width:1.0;" x1="472" x2="787" y1="862.5059" y2="862.5059"/><!--MD5=[62ba8ad8b61caf20139235a169a8c31d]
class Response--><rect codeLine="58" fill="#FEFECE" filter="url(#f5aktfcrt723x)" height="138.6855" id="Response" style="stroke:#A80036;stroke-width:1.5;" width="277" x="1090" y="481"/><ellipse cx="1196.25" cy="497" fill="#B4A7E5" rx="11" ry="11" style="stroke:#A80036;stroke-width:1.0;"/><path d="M1192.6777,493.2651 L1192.6777,491.1069 L1200.0571,491.1069 L1200.0571,493.2651 L1197.5918,493.2651 L1197.5918,501.3418 L1200.0571,501.3418 L1200.0571,503.5 L1192.6777,503.5 L1192.6777,501.3418 L1195.1431,501.3418 L1195.1431,493.2651 Z " fill="#000000"/><text fill="#000000" font-family="sans-serif" font-size="12" font-style="italic" lengthAdjust="spacingAndGlyphs" textLength="56" x="1216.75" y="501.5352">Response</text><line style="stroke:#A80036;stroke-width:1.5;" x1="1091" x2="1366" y1="513" y2="513"/><text fill="#000000" font-family="sans-serif" font-size="11" lengthAdjust="spacingAndGlyphs" textLength="58" x="1096" y="527.6348">String url()</text><text fill="#000000" font-family="sans-serif" font-size="11" lengthAdjust="spacingAndGlyphs" textLength="98" x="1096" y="540.5898">Headers headers()</text><text fill="#000000" font-family="sans-serif" font-size="11" lengthAdjust="spacingAndGlyphs" textLength="86" x="1096" y="553.5449">int statusCode()</text><text fill="#000000" font-family="sans-serif" font-size="11" lengthAdjust="spacingAndGlyphs" textLength="69" x="1096" y="566.5">byte[] body()</text><text fill="#000000" font-family="sans-serif" font-size="11" lengthAdjust="spacingAndGlyphs" textLength="265" x="1096" y="579.4551">&lt;R&gt; Optional&lt;BodyHandler&lt;R&gt;&gt; bodyHandler()</text><text fill="#000000" font-family="sans-serif" font-size="11" lengthAdjust="spacingAndGlyphs" textLength="226" x="1096" y="592.4102">Optional&lt;Response&gt; previousResponse()</text><line style="stroke:#A80036;stroke-width:1.0;" x1="1091" x2="1366" y1="598.7305" y2="598.7305"/><text fill="#000000" font-family="sans-serif" font-size="11" lengthAdjust="spacingAndGlyphs" textLength="190" x="1096" y="613.3652">static Builder newResponseBuilder()</text><!--MD5=[35b6bd425578d32dc4c8d91c32bb07ec]
class Response.Builder--><rect codeLine="68" fill="#FEFECE" filter="url(#f5aktfcrt723x)" height="86.8652" id="Response.Builder" style="stroke:#A80036;stroke-width:1.5;" width="308" x="960.5" y="732"/><ellipse cx="1060.25" cy="748" fill="#B4A7E5" rx="11" ry="11" style="stroke:#A80036;stroke-width:1.0;"/><path d="M1056.6777,744.2651 L1056.6777,742.1069 L1064.0571,742.1069 L1064.0571,744.2651 L1061.5918,744.2651 L1061.5918,752.3418 L1064.0571,752.3418 L1064.0571,754.5 L1056.6777,754.5 L1056.6777,752.3418 L1059.1431,752.3418 L1059.1431,744.2651 Z " fill="#000000"/><text fill="#000000" font-family="sans-serif" font-size="12" font-style="italic" lengthAdjust="spacingAndGlyphs" textLength="100" x="1080.75" y="752.5352">Response.Builder</text><line style="stroke:#A80036;stroke-width:1.5;" x1="961.5" x2="1267.5" y1="764" y2="764"/><text fill="#000000" font-family="sans-serif" font-size="11" lengthAdjust="spacingAndGlyphs" textLength="176" x="966.5" y="778.6348">Builder delegate(Object delegate)</text><text fill="#000000" font-family="sans-serif" font-size="11" lengthAdjust="spacingAndGlyphs" textLength="296" x="966.5" y="791.5898">&lt;R&gt; void bodyHandler(BodyHandler&lt;R&gt; bodyHandler)</text><text fill="#000000" font-family="sans-serif" font-size="11" lengthAdjust="spacingAndGlyphs" textLength="90" x="966.5" y="804.5449">Response build()</text><line style="stroke:#A80036;stroke-width:1.0;" x1="961.5" x2="1267.5" y1="810.8652" y2="810.8652"/><!--MD5=[de571d8a90489b7dd525662bda641eaf]
class BodyHandler--><rect codeLine="75" fill="#FEFECE" filter="url(#f5aktfcrt723x)" height="67.2207" id="BodyHandler" style="stroke:#A80036;stroke-width:1.5;" width="239" x="1109" y="311.5"/><ellipse cx="1124" cy="330.6328" fill="#B4A7E5" rx="11" ry="11" style="stroke:#A80036;stroke-width:1.0;"/><path d="M1120.4277,326.8979 L1120.4277,324.7397 L1127.8071,324.7397 L1127.8071,326.8979 L1125.3418,326.8979 L1125.3418,334.9746 L1127.8071,334.9746 L1127.8071,337.1328 L1120.4277,337.1328 L1120.4277,334.9746 L1122.8931,334.9746 L1122.8931,326.8979 Z " fill="#000000"/><text fill="#000000" font-family="sans-serif" font-size="12" font-style="italic" lengthAdjust="spacingAndGlyphs" textLength="199" x="1136" y="328.1016">«Flow.Subscriber&lt;List&lt;ByteBuffer»</text><text fill="#000000" font-family="sans-serif" font-size="12" font-style="italic" lengthAdjust="spacingAndGlyphs" textLength="74" x="1198.5" y="342.2344">BodyHandler</text><rect fill="#FFFFFF" height="16.1328" style="stroke:#000000;stroke-width:1.0;stroke-dasharray:2.0,2.0;" width="10" x="1341" y="308.5"/><text fill="#000000" font-family="sans-serif" font-size="12" font-style="italic" lengthAdjust="spacingAndGlyphs" textLength="8" x="1342" y="321.1016">T</text><line style="stroke:#A80036;stroke-width:1.5;" x1="1110" x2="1347" y1="349.7656" y2="349.7656"/><line style="stroke:#A80036;stroke-width:1.5;" x1="1110" x2="1347" y1="357.7656" y2="357.7656"/><text fill="#000000" font-family="sans-serif" font-size="11" lengthAdjust="spacingAndGlyphs" textLength="45" x="1115" y="372.4004">T body()</text><!--MD5=[a1bdee38ccf279c3dde6503b893bd0d2]
link Response to Response.Builder--><path codeLine="79" d="M1193.37,620.23 C1176.98,652.28 1157.75,689.9 1142.38,719.96 " fill="none" id="Response-to-Response.Builder" style="stroke:#A80036;stroke-width:1.0;"/><polygon fill="#A80036" points="1136.27,731.92,1142.5624,728.3978,1141.7313,721.2348,1135.4389,724.7569,1136.27,731.92" style="stroke:#A80036;stroke-width:1.0;"/><!--MD5=[dbb59ab50b776101fb8b8e5b9fd0a885]
link Request to Request.Builder--><path codeLine="80" d="M667.01,607.2 C662.94,625.36 658.27,646.18 653.64,666.83 " fill="none" id="Request-to-Request.Builder" style="stroke:#A80036;stroke-width:1.0;"/><polygon fill="#A80036" points="650.77,679.64,655.9852,674.6599,653.3941,667.9304,648.1789,672.9105,650.77,679.64" style="stroke:#A80036;stroke-width:1.0;"/><!--MD5=[6174a8809c656cdce2bf33931624c5c0]
link BodyHandler to Response--><path codeLine="81" d="M1228.5,378.7 C1228.5,406.11 1228.5,446.19 1228.5,480.63 " fill="none" id="BodyHandler-Response" style="stroke:#A80036;stroke-width:1.0;"/><!--MD5=[8c883c267c2011f65b4b2d9c9b38011e]
link Request to Method--><path codeLine="82" d="M776.21,550.5 C787.79,550.5 799.37,550.5 810.94,550.5 " fill="none" id="Request-Method" style="stroke:#A80036;stroke-width:1.0;"/><!--MD5=[2843606ffeca226d50b90c00bdb33223]
link Client to Client.Builder--><path codeLine="83" d="M333.36,421.13 C303.21,489.48 258.39,591.11 224.54,667.86 " fill="none" id="Client-to-Client.Builder" style="stroke:#A80036;stroke-width:1.0;"/><polygon fill="#A80036" points="219.2,679.95,225.2835,676.0781,224.0492,668.9734,217.9657,672.8453,219.2,679.95" style="stroke:#A80036;stroke-width:1.0;"/><!--MD5=[dd15dd5e59e57385b70809a0b967cba0]
link FileBodyHandler to BodyHandler--><path codeLine="100" d="M1228.5,209.23 C1228.5,231.34 1228.5,263.69 1228.5,291.15 " fill="none" id="FileBodyHandler-to-BodyHandler" style="stroke:#A80036;stroke-width:1.0;"/><polygon fill="none" points="1235.5,291.39,1228.5,311.39,1221.5,291.39,1235.5,291.39" style="stroke:#A80036;stroke-width:1.0;"/><!--MD5=[62195de8988c292490b83e3ec6504c15]
link TempFileBodyHandler to FileBodyHandler--><path codeLine="101" d="M1228.5,95.26 C1228.5,107.05 1228.5,121.33 1228.5,134.82 " fill="none" id="TempFileBodyHandler-to-FileBodyHandler" style="stroke:#A80036;stroke-width:1.0;"/><polygon fill="none" points="1235.5,134.91,1228.5,154.91,1221.5,134.91,1235.5,134.91" style="stroke:#A80036;stroke-width:1.0;"/><!--MD5=[9eb74eacbd8f17b23d5fe947f3832836]
reverse link Response to HttpResponseDelegate--><path codeLine="103" d="M1270.38,638.57 C1276.22,652.27 1281.81,666.4 1286.5,680 C1317.78,770.74 1340.43,883.15 1349.34,930.86 " fill="none" id="Response-backto-HttpResponseDelegate" style="stroke:#A80036;stroke-width:1.0;"/><polygon fill="none" points="1263.97,641.37,1262.34,620.24,1276.79,635.74,1263.97,641.37" style="stroke:#A80036;stroke-width:1.0;"/><!--MD5=[a609e3fbb5f442f3f1ae911e8ea052e9]
reverse link Response.Builder to HttpResponseDelegate.ResponseBuilder--><path codeLine="104" d="M1110.98,839.02 C1109.18,870.85 1107.11,907.62 1105.8,930.84 " fill="none" id="Response.Builder-backto-HttpResponseDelegate.ResponseBuilder" style="stroke:#A80036;stroke-width:1.0;"/><polygon fill="none" points="1103.99,838.59,1112.1,819.02,1117.97,839.38,1103.99,838.59" style="stroke:#A80036;stroke-width:1.0;"/><!--MD5=[b1c54d69599d7ccd94bff92b33121739]
reverse link Request to HttpRequestDelegate--><path codeLine="106" d="M762.49,621.74 C778.91,639.24 794.46,659.05 805.5,680 C850.15,764.71 858.05,881.8 859.32,930.89 " fill="none" id="Request-backto-HttpRequestDelegate" style="stroke:#A80036;stroke-width:1.0;"/><polygon fill="none" points="757.31,626.45,748.26,607.29,767.28,616.62,757.31,626.45" style="stroke:#A80036;stroke-width:1.0;"/><!--MD5=[b0f6876bf08d798e9135add5f849e950]
reverse link Request.Builder to HttpRequestDelegate.RequestBuilder--><path codeLine="107" d="M625.62,891.31 C625.11,906.24 624.65,920.09 624.28,930.95 " fill="none" id="Request.Builder-backto-HttpRequestDelegate.RequestBuilder" style="stroke:#A80036;stroke-width:1.0;"/><polygon fill="none" points="618.63,890.98,626.3,871.23,632.62,891.45,618.63,890.98" style="stroke:#A80036;stroke-width:1.0;"/><!--MD5=[3f22415d83706ef1ce10b79e49743d13]
reverse link Client to HttpClientDelegate--><path codeLine="109" d="M371.06,441.55 C377.94,585.92 390.6,851.27 394.4,930.85 " fill="none" id="Client-backto-HttpClientDelegate" style="stroke:#A80036;stroke-width:1.0;"/><polygon fill="none" points="364.05,441.47,370.09,421.16,378.03,440.81,364.05,441.47" style="stroke:#A80036;stroke-width:1.0;"/><!--MD5=[4873a006e344d1a2325285058e659f09]
reverse link Client.Builder to HttpClientDelegate.ClientBuilder--><path codeLine="110" d="M180.73,891.31 C181.15,906.24 181.54,920.09 181.85,930.95 " fill="none" id="Client.Builder-backto-HttpClientDelegate.ClientBuilder" style="stroke:#A80036;stroke-width:1.0;"/><polygon fill="none" points="173.73,891.42,180.17,871.23,187.73,891.02,173.73,891.42" style="stroke:#A80036;stroke-width:1.0;"/><!--MD5=[44a247d3c6af0f0abe304327ba6c8f68]
@startuml

interface Client {
    Version version()
    Response send(Request request)
    Response send(Request request, BodyHandler<R> bodyHandler)
    CompletableFuture<Response> sendAsync(Request request)
    CompletableFuture<Response> sendAsync(Request request, BodyHandler<RESULT> bodyHandler)
    Object getDelegate()
    - -
    static Client newClient()
    static Builder newClientBuilder()
}
interface Client.Builder {
    Builder version(Version version)
    Builder priority(int priority)
    Builder authenticator(Authenticator authenticator)
    Builder sslContext(SSLContext sslContext)
    Builder sslParameters(SSLParameters sslParameters)
    Builder x509TrustManager(X509TrustManager trustManager)
    Builder executor(Executor executor)
    Builder connectTimeout(Duration duration)
    Builder followRedirects(Redirect policy)
    Builder proxy(ProxySelector proxySelector)
    Client build()
    - -
}

enum Method {
    GET
    PUT
    POST
    DELETE
    OPTIONS
}
interface Request {
    String url()
    Method method()
    Headers headers()
    Object getDelegate()
    - -
    static Builder newRequestBuilder()
}
interface Request.Builder {
    Builder url(String url)
    Builder header(String name, String value)
    Builder expectContinue(boolean enable)
    Builder timeout(Duration duration)
    Builder GET()
    Builder PUT(byte[] bytes)
    Builder PUT(Flow.Publisher<ByteBuffer> bodyPublisher)
    Builder POST(byte[] bytes)
    Builder POST(Flow.Publisher<ByteBuffer> bodyPublisher)
    Builder DELETE()
    Request build()
    - -
}

interface Response {
    String url()
    Headers headers()
    int statusCode()
    byte[] body()
    <R> Optional<BodyHandler<R>> bodyHandler()
    Optional<Response> previousResponse()
    - -
    static Builder newResponseBuilder()
}
interface Response.Builder {
    Builder delegate(Object delegate)
    <R> void bodyHandler(BodyHandler<R> bodyHandler)
    Response build()
    - -
}

interface BodyHandler<T> << Flow.Subscriber<List<ByteBuffer>> >> {
    T body()
}

Response.Builder *-up- Response
Request.Builder *-up- Request
Response -up- BodyHandler
Request -right- Method
Client.Builder *-up- - Client


package java.httpClient.native #EEE {
    class HttpClientDelegate
    class HttpClientDelegate.ClientBuilder
    class HttpRequestDelegate
    class HttpRequestDelegate.RequestBuilder
    class HttpResponseDelegate
    class HttpResponseDelegate.ResponseBuilder
}

package java.httpBodySubscriber.native #EEE {
    class FileBodyHandler<Path> <<BodyHandler>>
    class TempFileBodyHandler<Path> <<FileBodyHandler>>
}

BodyHandler <|-up- FileBodyHandler
FileBodyHandler <|-up- TempFileBodyHandler

Response <|- - HttpResponseDelegate
Response.Builder <|- - HttpResponseDelegate.ResponseBuilder

Request <|- - HttpRequestDelegate
Request.Builder <|- - HttpRequestDelegate.RequestBuilder

Client <|- - HttpClientDelegate
Client.Builder <|- - HttpClientDelegate.ClientBuilder

@enduml

PlantUML version 1.2020.26(Mon Dec 21 18:45:07 CET 2020)
(GPL source distribution)
Java Runtime: OpenJDK Runtime Environment
JVM: OpenJDK 64-Bit Server VM
Default Encoding: UTF-8
Language: en
Country: NO
--></g></svg>