<?xml version="1.0" encoding="UTF-8" standalone="no"?><svg xmlns="http://www.w3.org/2000/svg" xmlns:xlink="http://www.w3.org/1999/xlink" contentScriptType="application/ecmascript" contentStyleType="text/css" height="393px" preserveAspectRatio="none" style="width:2240px;height:393px;" version="1.1" viewBox="0 0 2240 393" width="2240px" zoomAndPan="magnify"><defs><filter height="300%" id="f138oqpekimu2m" width="300%" x="-1" y="-1"><feGaussianBlur result="blurOut" stdDeviation="2.0"/><feColorMatrix in="blurOut" result="blurOut2" type="matrix" values="0 0 0 0 0 0 0 0 0 0 0 0 0 0 0 0 0 0 .4 0"/><feOffset dx="4.0" dy="4.0" in="blurOut2" result="blurOut3"/><feBlend in="SourceGraphic" in2="blurOut3" mode="normal"/></filter></defs><g><!--MD5=[fab625d79dc11c728c7376977b0d1810]
cluster queryFeature--><polygon fill="#FFFFFF" filter="url(#f138oqpekimu2m)" points="1051,6,1242,6,1249,28.4883,2223,28.4883,2223,271.5,1051,271.5,1051,6" style="stroke:#000000;stroke-width:1.5;"/><line style="stroke:#000000;stroke-width:1.5;" x1="1051" x2="1249" y1="28.4883" y2="28.4883"/><text fill="#000000" font-family="sans-serif" font-size="14" font-weight="bold" lengthAdjust="spacingAndGlyphs" textLength="185" x="1055" y="21.5352">api.queryFeature (Factory)</text><!--MD5=[baf563710780cbbbf3058eba83f258a9]
cluster query--><polygon fill="#FFFFFF" filter="url(#f138oqpekimu2m)" points="16,19,158,19,165,41.4883,1027,41.4883,1027,386,16,386,16,19" style="stroke:#000000;stroke-width:1.5;"/><line style="stroke:#000000;stroke-width:1.5;" x1="16" x2="165" y1="41.4883" y2="41.4883"/><text fill="#000000" font-family="sans-serif" font-size="14" font-weight="bold" lengthAdjust="spacingAndGlyphs" textLength="136" x="20" y="34.5352">api.query (Queries)</text><!--MD5=[e764349365f292109e8f6997409ce298]
class AbstractQueryHandler--><rect codeLine="3" fill="#FEFECE" filter="url(#f138oqpekimu2m)" height="60.9551" id="AbstractQueryHandler" style="stroke:#A80036;stroke-width:1.5;" width="302" x="1905" y="194.5"/><ellipse cx="1952.75" cy="210.5" fill="#A9DCDF" rx="11" ry="11" style="stroke:#A80036;stroke-width:1.0;"/><path d="M1952.6133,205.8481 L1951.4595,210.9199 L1953.7754,210.9199 Z M1951.1191,203.6069 L1954.1157,203.6069 L1957.4609,216 L1955.0122,216 L1954.2485,212.937 L1950.9697,212.937 L1950.2227,216 L1947.7739,216 Z " fill="#000000"/><text fill="#000000" font-family="sans-serif" font-size="12" font-style="italic" lengthAdjust="spacingAndGlyphs" textLength="128" x="1973.25" y="215.0352">AbstractQueryHandler</text><rect fill="#FFFFFF" height="16.1328" style="stroke:#000000;stroke-width:1.0;stroke-dasharray:2.0,2.0;" width="68" x="2142" y="191.5"/><text fill="#000000" font-family="sans-serif" font-size="12" font-style="italic" lengthAdjust="spacingAndGlyphs" textLength="66" x="2143" y="204.1016">Query|Body</text><line style="stroke:#A80036;stroke-width:1.5;" x1="1906" x2="2206" y1="226.5" y2="226.5"/><line style="stroke:#A80036;stroke-width:1.5;" x1="1906" x2="2206" y1="234.5" y2="234.5"/><ellipse cx="1916" cy="245.5" fill="#84BE84" rx="3" ry="3" style="stroke:#038048;stroke-width:1.0;"/><text fill="#000000" font-family="sans-serif" font-size="11" lengthAdjust="spacingAndGlyphs" textLength="276" x="1925" y="249.1348">ExecutionContext execute(ExecutionContext input)</text><!--MD5=[c8c32c74ca7ac8cbd0ac3bd3f5a0efcc]
class QueryFeature--><rect codeLine="6" fill="#FEFECE" filter="url(#f138oqpekimu2m)" height="86.8652" id="QueryFeature" style="stroke:#A80036;stroke-width:1.5;" width="239" x="1967.5" y="41"/><ellipse cx="2044.25" cy="57" fill="#B4A7E5" rx="11" ry="11" style="stroke:#A80036;stroke-width:1.0;"/><path d="M2040.6777,53.2651 L2040.6777,51.1069 L2048.0571,51.1069 L2048.0571,53.2651 L2045.5918,53.2651 L2045.5918,61.3418 L2048.0571,61.3418 L2048.0571,63.5 L2040.6777,63.5 L2040.6777,61.3418 L2043.1431,61.3418 L2043.1431,53.2651 Z " fill="#000000"/><text fill="#000000" font-family="sans-serif" font-size="12" font-style="italic" lengthAdjust="spacingAndGlyphs" textLength="77" x="2064.75" y="61.5352">QueryFeature</text><line style="stroke:#A80036;stroke-width:1.5;" x1="1968.5" x2="2205.5" y1="73" y2="73"/><line style="stroke:#A80036;stroke-width:1.5;" x1="1968.5" x2="2205.5" y1="81" y2="81"/><ellipse cx="1978.5" cy="92" fill="#84BE84" rx="3" ry="3" style="stroke:#038048;stroke-width:1.0;"/><text fill="#000000" font-family="sans-serif" font-size="11" lengthAdjust="spacingAndGlyphs" textLength="177" x="1987.5" y="95.6348">List&lt;?&gt; evaluateList(Object data)</text><ellipse cx="1978.5" cy="104.9551" fill="#84BE84" rx="3" ry="3" style="stroke:#038048;stroke-width:1.0;"/><text fill="#000000" font-family="sans-serif" font-size="11" lengthAdjust="spacingAndGlyphs" textLength="186" x="1987.5" y="108.5898">Object evaluateObject(Object data)</text><ellipse cx="1978.5" cy="117.9102" fill="#84BE84" rx="3" ry="3" style="stroke:#038048;stroke-width:1.0;"/><text fill="#000000" font-family="sans-serif" font-size="11" lengthAdjust="spacingAndGlyphs" textLength="213" x="1987.5" y="121.5449">String evaluateStringLiteral(Object data)</text><!--MD5=[a7300ecfa20269a1be591826a2cea8bf]
class DocumentParserFeature--><rect codeLine="11" fill="#FEFECE" filter="url(#f138oqpekimu2m)" height="86.8652" id="DocumentParserFeature" style="stroke:#A80036;stroke-width:1.5;" width="449" x="1483.5" y="41"/><ellipse cx="1634.75" cy="57" fill="#B4A7E5" rx="11" ry="11" style="stroke:#A80036;stroke-width:1.0;"/><path d="M1631.1777,53.2651 L1631.1777,51.1069 L1638.5571,51.1069 L1638.5571,53.2651 L1636.0918,53.2651 L1636.0918,61.3418 L1638.5571,61.3418 L1638.5571,63.5 L1631.1777,63.5 L1631.1777,61.3418 L1633.6431,61.3418 L1633.6431,53.2651 Z " fill="#000000"/><text fill="#000000" font-family="sans-serif" font-size="12" font-style="italic" lengthAdjust="spacingAndGlyphs" textLength="138" x="1655.25" y="61.5352">DocumentParserFeature</text><line style="stroke:#A80036;stroke-width:1.5;" x1="1484.5" x2="1931.5" y1="73" y2="73"/><line style="stroke:#A80036;stroke-width:1.5;" x1="1484.5" x2="1931.5" y1="81" y2="81"/><ellipse cx="1494.5" cy="92" fill="#84BE84" rx="3" ry="3" style="stroke:#038048;stroke-width:1.0;"/><text fill="#000000" font-family="sans-serif" font-size="11" lengthAdjust="spacingAndGlyphs" textLength="178" x="1503.5" y="95.6348">byte[] serialize(Object document)</text><ellipse cx="1494.5" cy="104.9551" fill="#84BE84" rx="3" ry="3" style="stroke:#038048;stroke-width:1.0;"/><text fill="#000000" font-family="sans-serif" font-size="11" lengthAdjust="spacingAndGlyphs" textLength="174" x="1503.5" y="108.5898">Object deserialize(byte[] source)</text><ellipse cx="1494.5" cy="117.9102" fill="#84BE84" rx="3" ry="3" style="stroke:#038048;stroke-width:1.0;"/><text fill="#000000" font-family="sans-serif" font-size="11" lengthAdjust="spacingAndGlyphs" textLength="423" x="1503.5" y="121.5449">void tokenDeserializer(InputStream source, Consumer&lt;Object&gt; entryCallback)</text><!--MD5=[568c14a238a9c41b2108c85c286da628]
class JqPathParser--><rect codeLine="16" fill="#FEFECE" filter="url(#f138oqpekimu2m)" height="48" id="JqPathParser" style="stroke:#A80036;stroke-width:1.5;" width="106" x="1300" y="201"/><ellipse cx="1315" cy="217" fill="#ADD1B2" rx="11" ry="11" style="stroke:#A80036;stroke-width:1.0;"/><path d="M1317.4731,223.1431 Q1316.8921,223.4419 1316.2529,223.5913 Q1315.6138,223.7407 1314.9082,223.7407 Q1312.4014,223.7407 1311.0815,222.0889 Q1309.7617,220.437 1309.7617,217.3159 Q1309.7617,214.1865 1311.0815,212.5347 Q1312.4014,210.8828 1314.9082,210.8828 Q1315.6138,210.8828 1316.2612,211.0322 Q1316.9087,211.1816 1317.4731,211.4805 L1317.4731,214.2031 Q1316.8423,213.6221 1316.2488,213.3523 Q1315.6553,213.0825 1315.0244,213.0825 Q1313.6797,213.0825 1312.9949,214.1492 Q1312.3101,215.2158 1312.3101,217.3159 Q1312.3101,219.4077 1312.9949,220.4744 Q1313.6797,221.541 1315.0244,221.541 Q1315.6553,221.541 1316.2488,221.2712 Q1316.8423,221.0015 1317.4731,220.4204 Z " fill="#000000"/><text fill="#000000" font-family="sans-serif" font-size="12" lengthAdjust="spacingAndGlyphs" textLength="74" x="1329" y="221.5352">JqPathParser</text><line style="stroke:#A80036;stroke-width:1.5;" x1="1301" x2="1405" y1="233" y2="233"/><line style="stroke:#A80036;stroke-width:1.5;" x1="1301" x2="1405" y1="241" y2="241"/><!--MD5=[7201c9588dc0dabeee62626a91da4430]
class XPathParser--><rect codeLine="18" fill="#FEFECE" filter="url(#f138oqpekimu2m)" height="48" id="XPathParser" style="stroke:#A80036;stroke-width:1.5;" width="102" x="1441" y="201"/><ellipse cx="1456" cy="217" fill="#ADD1B2" rx="11" ry="11" style="stroke:#A80036;stroke-width:1.0;"/><path d="M1458.4731,223.1431 Q1457.8921,223.4419 1457.2529,223.5913 Q1456.6138,223.7407 1455.9082,223.7407 Q1453.4014,223.7407 1452.0815,222.0889 Q1450.7617,220.437 1450.7617,217.3159 Q1450.7617,214.1865 1452.0815,212.5347 Q1453.4014,210.8828 1455.9082,210.8828 Q1456.6138,210.8828 1457.2612,211.0322 Q1457.9087,211.1816 1458.4731,211.4805 L1458.4731,214.2031 Q1457.8423,213.6221 1457.2488,213.3523 Q1456.6553,213.0825 1456.0244,213.0825 Q1454.6797,213.0825 1453.9949,214.1492 Q1453.3101,215.2158 1453.3101,217.3159 Q1453.3101,219.4077 1453.9949,220.4744 Q1454.6797,221.541 1456.0244,221.541 Q1456.6553,221.541 1457.2488,221.2712 Q1457.8423,221.0015 1458.4731,220.4204 Z " fill="#000000"/><text fill="#000000" font-family="sans-serif" font-size="12" lengthAdjust="spacingAndGlyphs" textLength="70" x="1470" y="221.5352">XPathParser</text><line style="stroke:#A80036;stroke-width:1.5;" x1="1442" x2="1542" y1="233" y2="233"/><line style="stroke:#A80036;stroke-width:1.5;" x1="1442" x2="1542" y1="241" y2="241"/><!--MD5=[f3054cebdbb73e71805efb6191719270]
class JsonTokenParser--><rect codeLine="20" fill="#FEFECE" filter="url(#f138oqpekimu2m)" height="48" id="JsonTokenParser" style="stroke:#A80036;stroke-width:1.5;" width="129" x="1578.5" y="201"/><ellipse cx="1593.5" cy="217" fill="#ADD1B2" rx="11" ry="11" style="stroke:#A80036;stroke-width:1.0;"/><path d="M1595.9731,223.1431 Q1595.3921,223.4419 1594.7529,223.5913 Q1594.1138,223.7407 1593.4082,223.7407 Q1590.9014,223.7407 1589.5815,222.0889 Q1588.2617,220.437 1588.2617,217.3159 Q1588.2617,214.1865 1589.5815,212.5347 Q1590.9014,210.8828 1593.4082,210.8828 Q1594.1138,210.8828 1594.7612,211.0322 Q1595.4087,211.1816 1595.9731,211.4805 L1595.9731,214.2031 Q1595.3423,213.6221 1594.7488,213.3523 Q1594.1553,213.0825 1593.5244,213.0825 Q1592.1797,213.0825 1591.4949,214.1492 Q1590.8101,215.2158 1590.8101,217.3159 Q1590.8101,219.4077 1591.4949,220.4744 Q1592.1797,221.541 1593.5244,221.541 Q1594.1553,221.541 1594.7488,221.2712 Q1595.3423,221.0015 1595.9731,220.4204 Z " fill="#000000"/><text fill="#000000" font-family="sans-serif" font-size="12" lengthAdjust="spacingAndGlyphs" textLength="97" x="1607.5" y="221.5352">JsonTokenParser</text><line style="stroke:#A80036;stroke-width:1.5;" x1="1579.5" x2="1706.5" y1="233" y2="233"/><line style="stroke:#A80036;stroke-width:1.5;" x1="1579.5" x2="1706.5" y1="241" y2="241"/><!--MD5=[3ebeff2085eb35a8a00d993dbb02a53b]
class XmlTokenParser--><rect codeLine="22" fill="#FEFECE" filter="url(#f138oqpekimu2m)" height="48" id="XmlTokenParser" style="stroke:#A80036;stroke-width:1.5;" width="127" x="1742.5" y="201"/><ellipse cx="1757.5" cy="217" fill="#ADD1B2" rx="11" ry="11" style="stroke:#A80036;stroke-width:1.0;"/><path d="M1759.9731,223.1431 Q1759.3921,223.4419 1758.7529,223.5913 Q1758.1138,223.7407 1757.4082,223.7407 Q1754.9014,223.7407 1753.5815,222.0889 Q1752.2617,220.437 1752.2617,217.3159 Q1752.2617,214.1865 1753.5815,212.5347 Q1754.9014,210.8828 1757.4082,210.8828 Q1758.1138,210.8828 1758.7612,211.0322 Q1759.4087,211.1816 1759.9731,211.4805 L1759.9731,214.2031 Q1759.3423,213.6221 1758.7488,213.3523 Q1758.1553,213.0825 1757.5244,213.0825 Q1756.1797,213.0825 1755.4949,214.1492 Q1754.8101,215.2158 1754.8101,217.3159 Q1754.8101,219.4077 1755.4949,220.4744 Q1756.1797,221.541 1757.5244,221.541 Q1758.1553,221.541 1758.7488,221.2712 Q1759.3423,221.0015 1759.9731,220.4204 Z " fill="#000000"/><text fill="#000000" font-family="sans-serif" font-size="12" lengthAdjust="spacingAndGlyphs" textLength="95" x="1771.5" y="221.5352">XmlTokenParser</text><line style="stroke:#A80036;stroke-width:1.5;" x1="1743.5" x2="1868.5" y1="233" y2="233"/><line style="stroke:#A80036;stroke-width:1.5;" x1="1743.5" x2="1868.5" y1="241" y2="241"/><!--MD5=[7d66c0582006187b5464dff9abfe5d01]
class Queries--><rect codeLine="24" fill="#FEFECE" filter="url(#f138oqpekimu2m)" height="73.9102" id="Queries" style="stroke:#A80036;stroke-width:1.5;" width="381" x="1067.5" y="47.5"/><ellipse cx="1231.75" cy="63.5" fill="#ADD1B2" rx="11" ry="11" style="stroke:#A80036;stroke-width:1.0;"/><path d="M1234.2231,69.6431 Q1233.6421,69.9419 1233.0029,70.0913 Q1232.3638,70.2407 1231.6582,70.2407 Q1229.1514,70.2407 1227.8315,68.5889 Q1226.5117,66.937 1226.5117,63.8159 Q1226.5117,60.6865 1227.8315,59.0347 Q1229.1514,57.3828 1231.6582,57.3828 Q1232.3638,57.3828 1233.0112,57.5322 Q1233.6587,57.6816 1234.2231,57.9805 L1234.2231,60.7031 Q1233.5923,60.1221 1232.9988,59.8523 Q1232.4053,59.5825 1231.7744,59.5825 Q1230.4297,59.5825 1229.7449,60.6492 Q1229.0601,61.7158 1229.0601,63.8159 Q1229.0601,65.9077 1229.7449,66.9744 Q1230.4297,68.041 1231.7744,68.041 Q1232.4053,68.041 1232.9988,67.7712 Q1233.5923,67.5015 1234.2231,66.9204 Z " fill="#000000"/><text fill="#000000" font-family="sans-serif" font-size="12" lengthAdjust="spacingAndGlyphs" textLength="44" x="1252.25" y="68.0352">Queries</text><line style="stroke:#A80036;stroke-width:1.5;" x1="1068.5" x2="1447.5" y1="79.5" y2="79.5"/><line style="stroke:#A80036;stroke-width:1.5;" x1="1068.5" x2="1447.5" y1="87.5" y2="87.5"/><ellipse cx="1078.5" cy="98.5" fill="#84BE84" rx="3" ry="3" style="stroke:#038048;stroke-width:1.0;"/><text fill="#000000" font-family="sans-serif" font-size="11" lengthAdjust="spacingAndGlyphs" textLength="209" x="1087.5" y="102.1348">static QueryFeature from(Query query)</text><ellipse cx="1078.5" cy="111.4551" fill="#84BE84" rx="3" ry="3" style="stroke:#038048;stroke-width:1.0;"/><text fill="#000000" font-family="sans-serif" font-size="11" lengthAdjust="spacingAndGlyphs" textLength="355" x="1087.5" y="115.0898">static QueryFeature from(ExecutionContext context, Query query)</text><!--MD5=[fcbf7df592e60eddd287d4afa8f4f07d]
class QueryBuilder--><rect codeLine="31" fill="#FEFECE" filter="url(#f138oqpekimu2m)" height="48" id="QueryBuilder" style="stroke:#A80036;stroke-width:1.5;" width="106" x="331" y="322"/><ellipse cx="346" cy="338" fill="#A9DCDF" rx="11" ry="11" style="stroke:#A80036;stroke-width:1.0;"/><path d="M345.8633,333.3481 L344.7095,338.4199 L347.0254,338.4199 Z M344.3691,331.1069 L347.3657,331.1069 L350.7109,343.5 L348.2622,343.5 L347.4985,340.437 L344.2197,340.437 L343.4727,343.5 L341.0239,343.5 Z " fill="#000000"/><text fill="#000000" font-family="sans-serif" font-size="12" font-style="italic" lengthAdjust="spacingAndGlyphs" textLength="74" x="360" y="342.5352">QueryBuilder</text><line style="stroke:#A80036;stroke-width:1.5;" x1="332" x2="436" y1="354" y2="354"/><line style="stroke:#A80036;stroke-width:1.5;" x1="332" x2="436" y1="362" y2="362"/><!--MD5=[7f5c670f8c4f73d8926db3af9647dd09]
class BodyBuilder--><rect codeLine="33" fill="#FEFECE" filter="url(#f138oqpekimu2m)" height="48" id="BodyBuilder" style="stroke:#A80036;stroke-width:1.5;" width="100" x="472" y="322"/><ellipse cx="487" cy="338" fill="#ADD1B2" rx="11" ry="11" style="stroke:#A80036;stroke-width:1.0;"/><path d="M489.4731,344.1431 Q488.8921,344.4419 488.2529,344.5913 Q487.6138,344.7407 486.9082,344.7407 Q484.4014,344.7407 483.0815,343.0889 Q481.7617,341.437 481.7617,338.3159 Q481.7617,335.1865 483.0815,333.5347 Q484.4014,331.8828 486.9082,331.8828 Q487.6138,331.8828 488.2612,332.0322 Q488.9087,332.1816 489.4731,332.4805 L489.4731,335.2031 Q488.8423,334.6221 488.2488,334.3523 Q487.6553,334.0825 487.0244,334.0825 Q485.6797,334.0825 484.9949,335.1492 Q484.3101,336.2158 484.3101,338.3159 Q484.3101,340.4077 484.9949,341.4744 Q485.6797,342.541 487.0244,342.541 Q487.6553,342.541 488.2488,342.2712 Q488.8423,342.0015 489.4731,341.4204 Z " fill="#000000"/><text fill="#000000" font-family="sans-serif" font-size="12" lengthAdjust="spacingAndGlyphs" textLength="68" x="501" y="342.5352">BodyBuilder</text><line style="stroke:#A80036;stroke-width:1.5;" x1="473" x2="571" y1="354" y2="354"/><line style="stroke:#A80036;stroke-width:1.5;" x1="473" x2="571" y1="362" y2="362"/><!--MD5=[2f9bb8a5e4c7841f934d8c581bdb1003]
class EvalBuilder--><rect codeLine="34" fill="#FEFECE" filter="url(#f138oqpekimu2m)" height="73.9102" id="EvalBuilder" style="stroke:#A80036;stroke-width:1.5;" width="465" x="476.5" y="188"/><ellipse cx="673.25" cy="204" fill="#ADD1B2" rx="11" ry="11" style="stroke:#A80036;stroke-width:1.0;"/><path d="M675.7231,210.1431 Q675.1421,210.4419 674.5029,210.5913 Q673.8638,210.7407 673.1582,210.7407 Q670.6514,210.7407 669.3315,209.0889 Q668.0117,207.437 668.0117,204.3159 Q668.0117,201.1865 669.3315,199.5347 Q670.6514,197.8828 673.1582,197.8828 Q673.8638,197.8828 674.5112,198.0322 Q675.1587,198.1816 675.7231,198.4805 L675.7231,201.2031 Q675.0923,200.6221 674.4988,200.3523 Q673.9053,200.0825 673.2744,200.0825 Q671.9297,200.0825 671.2449,201.1492 Q670.5601,202.2158 670.5601,204.3159 Q670.5601,206.4077 671.2449,207.4744 Q671.9297,208.541 673.2744,208.541 Q673.9053,208.541 674.4988,208.2712 Q675.0923,208.0015 675.7231,207.4204 Z " fill="#000000"/><text fill="#000000" font-family="sans-serif" font-size="12" lengthAdjust="spacingAndGlyphs" textLength="63" x="693.75" y="208.5352">EvalBuilder</text><line style="stroke:#A80036;stroke-width:1.5;" x1="477.5" x2="940.5" y1="220" y2="220"/><line style="stroke:#A80036;stroke-width:1.5;" x1="477.5" x2="940.5" y1="228" y2="228"/><ellipse cx="487.5" cy="239" fill="#84BE84" rx="3" ry="3" style="stroke:#038048;stroke-width:1.0;"/><text fill="#000000" font-family="sans-serif" font-size="11" lengthAdjust="spacingAndGlyphs" textLength="170" x="496.5" y="242.6348">EvalBuilder(String elExpression)</text><ellipse cx="487.5" cy="251.9551" fill="#84BE84" rx="3" ry="3" style="stroke:#038048;stroke-width:1.0;"/><text fill="#000000" font-family="sans-serif" font-size="11" lengthAdjust="spacingAndGlyphs" textLength="439" x="496.5" y="255.5898">EvalBuilder(QueryBuilder queryBuilder, String bindToVariable, String elExpression)</text><!--MD5=[6726fca7aa4c383f0bdebcfa694c4b2b]
class RegExBuilder--><rect codeLine="38" fill="#FEFECE" filter="url(#f138oqpekimu2m)" height="60.9551" id="RegExBuilder" style="stroke:#A80036;stroke-width:1.5;" width="346" x="665" y="54"/><ellipse cx="795.75" cy="70" fill="#ADD1B2" rx="11" ry="11" style="stroke:#A80036;stroke-width:1.0;"/><path d="M798.2231,76.1431 Q797.6421,76.4419 797.0029,76.5913 Q796.3638,76.7407 795.6582,76.7407 Q793.1514,76.7407 791.8315,75.0889 Q790.5117,73.437 790.5117,70.3159 Q790.5117,67.1865 791.8315,65.5347 Q793.1514,63.8828 795.6582,63.8828 Q796.3638,63.8828 797.0112,64.0322 Q797.6587,64.1816 798.2231,64.4805 L798.2231,67.2031 Q797.5923,66.6221 796.9988,66.3523 Q796.4053,66.0825 795.7744,66.0825 Q794.4297,66.0825 793.7449,67.1492 Q793.0601,68.2158 793.0601,70.3159 Q793.0601,72.4077 793.7449,73.4744 Q794.4297,74.541 795.7744,74.541 Q796.4053,74.541 796.9988,74.2712 Q797.5923,74.0015 798.2231,73.4204 Z " fill="#000000"/><text fill="#000000" font-family="sans-serif" font-size="12" lengthAdjust="spacingAndGlyphs" textLength="76" x="816.25" y="74.5352">RegExBuilder</text><line style="stroke:#A80036;stroke-width:1.5;" x1="666" x2="1010" y1="86" y2="86"/><line style="stroke:#A80036;stroke-width:1.5;" x1="666" x2="1010" y1="94" y2="94"/><ellipse cx="676" cy="105" fill="#84BE84" rx="3" ry="3" style="stroke:#038048;stroke-width:1.0;"/><text fill="#000000" font-family="sans-serif" font-size="11" lengthAdjust="spacingAndGlyphs" textLength="320" x="685" y="108.6348">RegExBuilder(QueryBuilder queryBuilder, String expression)</text><!--MD5=[dd42705047db7092da2893f67c78cb4f]
class JqPathBuilder--><rect codeLine="41" fill="#FEFECE" filter="url(#f138oqpekimu2m)" height="60.9551" id="JqPathBuilder" style="stroke:#A80036;stroke-width:1.5;" width="199" x="430.5" y="54"/><ellipse cx="487.25" cy="70" fill="#ADD1B2" rx="11" ry="11" style="stroke:#A80036;stroke-width:1.0;"/><path d="M489.7231,76.1431 Q489.1421,76.4419 488.5029,76.5913 Q487.8638,76.7407 487.1582,76.7407 Q484.6514,76.7407 483.3315,75.0889 Q482.0117,73.437 482.0117,70.3159 Q482.0117,67.1865 483.3315,65.5347 Q484.6514,63.8828 487.1582,63.8828 Q487.8638,63.8828 488.5112,64.0322 Q489.1587,64.1816 489.7231,64.4805 L489.7231,67.2031 Q489.0923,66.6221 488.4988,66.3523 Q487.9053,66.0825 487.2744,66.0825 Q485.9297,66.0825 485.2449,67.1492 Q484.5601,68.2158 484.5601,70.3159 Q484.5601,72.4077 485.2449,73.4744 Q485.9297,74.541 487.2744,74.541 Q487.9053,74.541 488.4988,74.2712 Q489.0923,74.0015 489.7231,73.4204 Z " fill="#000000"/><text fill="#000000" font-family="sans-serif" font-size="12" lengthAdjust="spacingAndGlyphs" textLength="77" x="507.75" y="74.5352">JqPathBuilder</text><line style="stroke:#A80036;stroke-width:1.5;" x1="431.5" x2="628.5" y1="86" y2="86"/><line style="stroke:#A80036;stroke-width:1.5;" x1="431.5" x2="628.5" y1="94" y2="94"/><ellipse cx="441.5" cy="105" fill="#84BE84" rx="3" ry="3" style="stroke:#038048;stroke-width:1.0;"/><text fill="#000000" font-family="sans-serif" font-size="11" lengthAdjust="spacingAndGlyphs" textLength="173" x="450.5" y="108.6348">JqPathBuilder(String expression)</text><!--MD5=[94809339d04a791a5c304c880fb343b1]
class XPathBuilder--><rect codeLine="44" fill="#FEFECE" filter="url(#f138oqpekimu2m)" height="60.9551" id="XPathBuilder" style="stroke:#A80036;stroke-width:1.5;" width="196" x="199" y="54"/><ellipse cx="256.25" cy="70" fill="#ADD1B2" rx="11" ry="11" style="stroke:#A80036;stroke-width:1.0;"/><path d="M258.7231,76.1431 Q258.1421,76.4419 257.5029,76.5913 Q256.8638,76.7407 256.1582,76.7407 Q253.6514,76.7407 252.3315,75.0889 Q251.0117,73.437 251.0117,70.3159 Q251.0117,67.1865 252.3315,65.5347 Q253.6514,63.8828 256.1582,63.8828 Q256.8638,63.8828 257.5112,64.0322 Q258.1587,64.1816 258.7231,64.4805 L258.7231,67.2031 Q258.0923,66.6221 257.4988,66.3523 Q256.9053,66.0825 256.2744,66.0825 Q254.9297,66.0825 254.2449,67.1492 Q253.5601,68.2158 253.5601,70.3159 Q253.5601,72.4077 254.2449,73.4744 Q254.9297,74.541 256.2744,74.541 Q256.9053,74.541 257.4988,74.2712 Q258.0923,74.0015 258.7231,73.4204 Z " fill="#000000"/><text fill="#000000" font-family="sans-serif" font-size="12" lengthAdjust="spacingAndGlyphs" textLength="73" x="276.75" y="74.5352">XPathBuilder</text><line style="stroke:#A80036;stroke-width:1.5;" x1="200" x2="394" y1="86" y2="86"/><line style="stroke:#A80036;stroke-width:1.5;" x1="200" x2="394" y1="94" y2="94"/><ellipse cx="210" cy="105" fill="#84BE84" rx="3" ry="3" style="stroke:#038048;stroke-width:1.0;"/><text fill="#000000" font-family="sans-serif" font-size="11" lengthAdjust="spacingAndGlyphs" textLength="170" x="219" y="108.6348">XPathBuilder(String expression)</text><!--MD5=[a8f50f4814c4ab4d5d8a3a3697d0a4d4]
class JsonTokenBuilder--><rect codeLine="47" fill="#FEFECE" filter="url(#f138oqpekimu2m)" height="48" id="JsonTokenBuilder" style="stroke:#A80036;stroke-width:1.5;" width="132" x="32" y="60.5"/><ellipse cx="47" cy="76.5" fill="#ADD1B2" rx="11" ry="11" style="stroke:#A80036;stroke-width:1.0;"/><path d="M49.4731,82.6431 Q48.8921,82.9419 48.2529,83.0913 Q47.6138,83.2407 46.9082,83.2407 Q44.4014,83.2407 43.0815,81.5889 Q41.7617,79.937 41.7617,76.8159 Q41.7617,73.6865 43.0815,72.0347 Q44.4014,70.3828 46.9082,70.3828 Q47.6138,70.3828 48.2612,70.5322 Q48.9087,70.6816 49.4731,70.9805 L49.4731,73.7031 Q48.8423,73.1221 48.2488,72.8523 Q47.6553,72.5825 47.0244,72.5825 Q45.6797,72.5825 44.9949,73.6492 Q44.3101,74.7158 44.3101,76.8159 Q44.3101,78.9077 44.9949,79.9744 Q45.6797,81.041 47.0244,81.041 Q47.6553,81.041 48.2488,80.7712 Q48.8423,80.5015 49.4731,79.9204 Z " fill="#000000"/><text fill="#000000" font-family="sans-serif" font-size="12" lengthAdjust="spacingAndGlyphs" textLength="100" x="61" y="81.0352">JsonTokenBuilder</text><line style="stroke:#A80036;stroke-width:1.5;" x1="33" x2="163" y1="92.5" y2="92.5"/><line style="stroke:#A80036;stroke-width:1.5;" x1="33" x2="163" y1="100.5" y2="100.5"/><!--MD5=[05250a8f71ec60278298963010027317]
class XmlTokenBuilder--><rect codeLine="48" fill="#FEFECE" filter="url(#f138oqpekimu2m)" height="48" id="XmlTokenBuilder" style="stroke:#A80036;stroke-width:1.5;" width="130" x="163" y="201"/><ellipse cx="178" cy="217" fill="#ADD1B2" rx="11" ry="11" style="stroke:#A80036;stroke-width:1.0;"/><path d="M180.4731,223.1431 Q179.8921,223.4419 179.2529,223.5913 Q178.6138,223.7407 177.9082,223.7407 Q175.4014,223.7407 174.0815,222.0889 Q172.7617,220.437 172.7617,217.3159 Q172.7617,214.1865 174.0815,212.5347 Q175.4014,210.8828 177.9082,210.8828 Q178.6138,210.8828 179.2612,211.0322 Q179.9087,211.1816 180.4731,211.4805 L180.4731,214.2031 Q179.8423,213.6221 179.2488,213.3523 Q178.6553,213.0825 178.0244,213.0825 Q176.6797,213.0825 175.9949,214.1492 Q175.3101,215.2158 175.3101,217.3159 Q175.3101,219.4077 175.9949,220.4744 Q176.6797,221.541 178.0244,221.541 Q178.6553,221.541 179.2488,221.2712 Q179.8423,221.0015 180.4731,220.4204 Z " fill="#000000"/><text fill="#000000" font-family="sans-serif" font-size="12" lengthAdjust="spacingAndGlyphs" textLength="98" x="192" y="221.5352">XmlTokenBuilder</text><line style="stroke:#A80036;stroke-width:1.5;" x1="164" x2="292" y1="233" y2="233"/><line style="stroke:#A80036;stroke-width:1.5;" x1="164" x2="292" y1="241" y2="241"/><!--MD5=[6854ce54d63d912a525837f98ae0ba9b]
reverse link QueryFeature to AbstractQueryHandler--><path d="M2073.05,147.82 C2069.42,164.04 2065.68,180.77 2062.63,194.4 " fill="none" id="QueryFeature-backto-AbstractQueryHandler" style="stroke:#A80036;stroke-width:1.0;stroke-dasharray:7.0,7.0;"/><polygon fill="none" points="2066.25,146.17,2077.45,128.18,2079.91,149.23,2066.25,146.17" style="stroke:#A80036;stroke-width:1.0;"/><!--MD5=[199d1742ef01a4a99c733677b942de54]
reverse link DocumentParserFeature to JqPathParser--><path d="M1559.5,134.8 C1515.13,150.63 1466.68,169.01 1423,188 C1414.1,191.87 1404.76,196.36 1395.89,200.83 " fill="none" id="DocumentParserFeature-backto-JqPathParser" style="stroke:#A80036;stroke-width:1.0;stroke-dasharray:7.0,7.0;"/><polygon fill="none" points="1557.39,128.12,1578.58,128.06,1562.05,141.32,1557.39,128.12" style="stroke:#A80036;stroke-width:1.0;"/><!--MD5=[0563a2f84263529dcf22cdcabab3a0f9]
reverse link DocumentParserFeature to XPathParser--><path d="M1624.32,139.16 C1590.88,160.6 1554.16,184.15 1527.9,200.98 " fill="none" id="DocumentParserFeature-backto-XPathParser" style="stroke:#A80036;stroke-width:1.0;stroke-dasharray:7.0,7.0;"/><polygon fill="none" points="1620.82,133.09,1641.43,128.18,1628.37,144.87,1620.82,133.09" style="stroke:#A80036;stroke-width:1.0;"/><!--MD5=[c349957011bb5e010aa094c24c12436b]
reverse link DocumentParserFeature to JsonTokenParser--><path d="M1679.46,146.31 C1670.36,165.7 1660.83,186 1653.8,200.98 " fill="none" id="DocumentParserFeature-backto-JsonTokenParser" style="stroke:#A80036;stroke-width:1.0;stroke-dasharray:7.0,7.0;"/><polygon fill="none" points="1673.13,143.32,1687.97,128.18,1685.81,149.26,1673.13,143.32" style="stroke:#A80036;stroke-width:1.0;"/><!--MD5=[0a525f147782b8cbcefe65fabd56e7eb]
reverse link DocumentParserFeature to XmlTokenParser--><path d="M1749.96,144.81 C1764.01,164.65 1778.84,185.61 1789.71,200.98 " fill="none" id="DocumentParserFeature-backto-XmlTokenParser" style="stroke:#A80036;stroke-width:1.0;stroke-dasharray:7.0,7.0;"/><polygon fill="none" points="1744.04,148.55,1738.2,128.18,1755.47,140.47,1744.04,148.55" style="stroke:#A80036;stroke-width:1.0;"/><!--MD5=[bdab4a569bb45e89c044d22809ab1783]
reverse link QueryBuilder to BodyBuilder--><path codeLine="50" d="M457.23,346 C462.13,346 467.02,346 471.92,346 " fill="none" id="QueryBuilder-backto-BodyBuilder" style="stroke:#A80036;stroke-width:1.0;"/><polygon fill="none" points="457.1,353,437.1,346,457.1,339,457.1,353" style="stroke:#A80036;stroke-width:1.0;"/><!--MD5=[819131a886aa7dbbba0feefab97128c8]
reverse link EvalBuilder to QueryBuilder--><path codeLine="51" d="M591.51,269.02 C538.69,288.36 478.99,310.22 437.23,325.51 " fill="none" id="EvalBuilder-backto-QueryBuilder" style="stroke:#A80036;stroke-width:1.0;"/><polygon fill="none" points="589.42,262.33,610.61,262.03,594.23,275.48,589.42,262.33" style="stroke:#A80036;stroke-width:1.0;"/><!--MD5=[53f2a7cc8cda53cc47e8d09f907e5d61]
reverse link RegExBuilder to QueryBuilder--><path codeLine="52" d="M686.53,119.64 C588.85,142.82 476.81,172.06 459,188 C426.44,217.14 442.24,240.26 423,279.5 C415.89,294 406.7,309.55 399.03,321.86 " fill="none" id="RegExBuilder-backto-QueryBuilder" style="stroke:#A80036;stroke-width:1.0;"/><polygon fill="none" points="685.09,112.79,706.16,115.02,688.3,126.42,685.09,112.79" style="stroke:#A80036;stroke-width:1.0;"/><!--MD5=[9a2004411198ca517bf27217f9b66ed2]
reverse link JqPathBuilder to QueryBuilder--><path codeLine="53" d="M478.72,129.24 C461.53,146.11 443.56,166.53 431,188 C405.57,231.47 392.83,289.88 387.4,321.79 " fill="none" id="JqPathBuilder-backto-QueryBuilder" style="stroke:#A80036;stroke-width:1.0;"/><polygon fill="none" points="474.1,123.97,493.47,115.38,483.68,134.17,474.1,123.97" style="stroke:#A80036;stroke-width:1.0;"/><!--MD5=[c14aa4a375643f1b9c04682448becec9]
reverse link XPathBuilder to QueryBuilder--><path codeLine="54" d="M317.47,133.91 C324.35,150.88 331.84,170.16 338,188 C354.24,234.98 369.77,291.09 377.98,321.9 " fill="none" id="XPathBuilder-backto-QueryBuilder" style="stroke:#A80036;stroke-width:1.0;"/><polygon fill="none" points="310.93,136.42,309.78,115.27,323.87,131.09,310.93,136.42" style="stroke:#A80036;stroke-width:1.0;"/><!--MD5=[5b8b43abb958570bb96215e0473f2ad9]
reverse link JsonTokenBuilder to QueryBuilder--><path codeLine="55" d="M160.32,117.73 C167.28,121.23 174.28,124.72 181,128 C237.82,155.75 269.46,139.47 310,188 C336.95,220.26 315.55,241.72 334,279.5 C341.47,294.8 352.8,310.03 362.79,321.95 " fill="none" id="JsonTokenBuilder-backto-QueryBuilder" style="stroke:#A80036;stroke-width:1.0;"/><polygon fill="none" points="156.87,123.83,142.21,108.53,163.21,111.35,156.87,123.83" style="stroke:#A80036;stroke-width:1.0;"/><!--MD5=[f06af6557df77a613180a5882505f537]
reverse link XmlTokenBuilder to QueryBuilder--><path codeLine="56" d="M274.35,261.36 C299.98,280.91 331.1,304.65 353.63,321.83 " fill="none" id="XmlTokenBuilder-backto-QueryBuilder" style="stroke:#A80036;stroke-width:1.0;"/><polygon fill="none" points="270.1,266.92,258.45,249.23,278.6,255.79,270.1,266.92" style="stroke:#A80036;stroke-width:1.0;"/><!--MD5=[aa66f829fad1d1b16a3cd19e25f3cb10]
@startuml

package "api.queryFeature (Factory)" as queryFeature {
    abstract class AbstractQueryHandler<Query|Body> implements QueryFeature {
        +ExecutionContext execute(ExecutionContext input)
    }
    interface QueryFeature {
        +List<?> evaluateList(Object data)
        +Object evaluateObject(Object data)
        +String evaluateStringLiteral(Object data)
    }
    interface DocumentParserFeature {
        +byte[] serialize(Object document)
        +Object deserialize(byte[] source)
        +void tokenDeserializer(InputStream source, Consumer<Object> entryCallback)
    }
    class JqPathParser implements DocumentParserFeature {
    }
    class XPathParser implements DocumentParserFeature {
    }
    class JsonTokenParser implements DocumentParserFeature {
    }
    class XmlTokenParser implements DocumentParserFeature {
    }
    class Queries {
        +static QueryFeature from(Query query)
        +static QueryFeature from(ExecutionContext context, Query query)
    }
}

package "api.query (Queries)" as query {
    abstract class QueryBuilder {
    }
    class BodyBuilder
    class EvalBuilder {
        +EvalBuilder(String elExpression)
        +EvalBuilder(QueryBuilder queryBuilder, String bindToVariable, String elExpression)
    }
    class RegExBuilder {
        +RegExBuilder(QueryBuilder queryBuilder, String expression)
    }
    class JqPathBuilder {
        +JqPathBuilder(String expression)
    }
    class XPathBuilder {
        +XPathBuilder(String expression)
    }
    class JsonTokenBuilder
    class XmlTokenBuilder

    QueryBuilder <|-right- BodyBuilder
    EvalBuilder <|- - QueryBuilder
    RegExBuilder <|- - - QueryBuilder
    JqPathBuilder <|- - - QueryBuilder
    XPathBuilder <|- - - QueryBuilder
    JsonTokenBuilder <|- - - QueryBuilder
    XmlTokenBuilder <|- - QueryBuilder
}



@enduml

PlantUML version 1.2020.26(Mon Dec 21 18:45:07 CET 2020)
(GPL source distribution)
Java Runtime: OpenJDK Runtime Environment
JVM: OpenJDK 64-Bit Server VM
Default Encoding: UTF-8
Language: en
Country: NO
--></g></svg>